<?xml version="1.0" encoding="UTF-8"?>
<svg width="1500px" height="926px" viewBox="0 0 1500 926" version="1.1" xmlns="http://www.w3.org/2000/svg" xmlns:xlink="http://www.w3.org/1999/xlink">
    <title>embrace-cycles</title>
    <g id="embrace-cycles" stroke="none" stroke-width="1" fill="none" fill-rule="evenodd">
        <path d="M437.723854,557 C429.100256,557 421.434835,551.730995 418.081214,544.066987 L365.381448,419.047863 L323.221634,498.561942 C320.347102,503.830947 315.556214,507.662951 309.32806,509.099953 C303.578994,510.536954 297.35084,509.099953 292.080863,505.746949 L236.506564,466.46891 L195.784017,504.309948 C187.160419,512.452956 173.745933,511.494955 165.601424,502.872946 C157.456914,494.250938 158.415092,480.838924 167.03869,472.695916 L220.217545,423.358868 C227.403877,416.652861 238.422919,415.69486 247.046517,421.442866 L297.35084,456.888901 L349.571518,359.172804 C353.404228,351.987797 361.069648,347.676792 369.214158,348.155793 C377.358667,348.634793 384.544999,353.424798 387.89862,361.088806 L431.4957,465.510909 L472.697336,274.86872 C474.613691,266.725712 480.841845,260.498706 488.507266,258.582704 C496.651775,256.666702 504.796284,259.540705 510.066261,266.246712 L569.47327,342.407787 C576.659602,351.508796 575.222336,364.92081 565.64056,372.105817 C556.537873,379.290824 543.123387,377.853822 535.937055,368.273813 L504.317195,328.037773 L458.324672,540.234983 C456.408317,549.335992 448.742896,556.041999 439.640209,557 C439.161121,557 438.682032,557 437.723854,557 Z" id="Path" fill="#00B0FF" fill-rule="nonzero"></path>
        <path d="M813.723854,459 C805.100256,459 797.434835,453.730995 794.081214,446.066987 L741.381448,321.047863 L699.221634,400.561942 C696.347102,405.830947 691.556214,409.662951 685.32806,411.099953 C679.578994,412.536954 673.35084,411.099953 668.080863,407.746949 L612.506564,368.46891 L571.784017,406.309948 C563.160419,414.452956 549.745933,413.494955 541.601424,404.872946 C533.456914,396.250938 534.415092,382.838924 543.03869,374.695916 L596.217545,325.358868 C603.403877,318.652861 614.422919,317.69486 623.046517,323.442866 L673.35084,358.888901 L725.571518,261.172804 C729.404228,253.987797 737.069648,249.676792 745.214158,250.155793 C753.358667,250.634793 760.544999,255.424798 763.89862,263.088806 L807.4957,367.510909 L848.697336,176.86872 C850.613691,168.725712 856.841845,162.498706 864.507266,160.582704 C872.651775,158.666702 880.796284,161.540705 886.066261,168.246712 L945.47327,244.407787 C952.659602,253.508796 951.222336,266.92081 941.64056,274.105817 C932.537873,281.290824 919.123387,279.853822 911.937055,270.273813 L880.317195,230.037773 L834.324672,442.234983 C832.408317,451.335992 824.742896,458.041999 815.640209,459 C815.161121,459 814.682032,459 813.723854,459 Z" id="Path" fill="#00B0FF" fill-rule="nonzero" transform="translate(743.000000, 309.500000) scale(-1, -1) translate(-743.000000, -309.500000) "></path>
        <path d="M1185.72385,459 C1177.10026,459 1169.43484,453.730995 1166.08121,446.066987 L1113.38145,321.047863 L1071.22163,400.561942 C1068.3471,405.830947 1063.55621,409.662951 1057.32806,411.099953 C1051.57899,412.536954 1045.35084,411.099953 1040.08086,407.746949 L984.506564,368.46891 L943.784017,406.309948 C935.160419,414.452956 921.745933,413.494955 913.601424,404.872946 C905.456914,396.250938 906.415092,382.838924 915.03869,374.695916 L968.217545,325.358868 C975.403877,318.652861 986.422919,317.69486 995.046517,323.442866 L1045.35084,358.888901 L1097.57152,261.172804 C1101.40423,253.987797 1109.06965,249.676792 1117.21416,250.155793 C1125.35867,250.634793 1132.545,255.424798 1135.89862,263.088806 L1179.4957,367.510909 L1220.69734,176.86872 C1222.61369,168.725712 1228.84184,162.498706 1236.50727,160.582704 C1244.65177,158.666702 1252.79628,161.540705 1258.06626,168.246712 L1317.47327,244.407787 C1324.6596,253.508796 1323.22234,266.92081 1313.64056,274.105817 C1304.53787,281.290824 1291.12339,279.853822 1283.93706,270.273813 L1252.3172,230.037773 L1206.32467,442.234983 C1204.40832,451.335992 1196.7429,458.041999 1187.64021,459 C1187.16112,459 1186.68203,459 1185.72385,459 Z" id="Path" fill="#00B0FF" fill-rule="nonzero" transform="translate(1115.000000, 309.500000) scale(1, -1) translate(-1115.000000, -309.500000) "></path>
        <g id="undraw_i_can_fly_7egl" transform="translate(519.000000, 329.000000)" fill-rule="nonzero">
            <path d="M155,188 C155,188 167,217.170936 149,224.034686 C149,224.034686 174.714286,235.188279 180.714286,232.614373 C186.714286,230.040467 191,224.034686 191,222.318749 C191,220.602811 185,219.744842 185,219.744842 C185,219.744842 173.857143,220.602811 182.428571,192.289844 L155,188 Z" id="Path" fill="#FBBEBE"></path>
            <circle id="Oval" fill="#FBBEBE" cx="168.5" cy="182.5" r="21.5"></circle>
            <ellipse id="Oval" fill="#FF6584" cx="154" cy="177.5" rx="19" ry="26.5"></ellipse>
            <ellipse id="Oval" fill="#FF6584" cx="141" cy="169.5" rx="19" ry="26.5"></ellipse>
            <ellipse id="Oval" fill="#FF6584" cx="121.5" cy="150" rx="9.5" ry="13"></ellipse>
            <path d="M190,219.154391 C190,219.154391 195.149506,208.9569 214.031029,203.858154 C232.912551,198.759409 269.817345,137.574462 269.817345,137.574462 C269.817345,137.574462 268.100843,101.033453 276.683353,112.080735 C285.265863,123.128017 278.399855,145.222581 278.399855,145.222581 L256.253391,183.098484 C252.121353,190.167796 246.95197,196.590357 240.914386,202.156023 C227.222055,214.774925 202.757404,237 200.299012,237 C196.866008,237 190,219.154391 190,219.154391 Z" id="Path" fill="#FBBEBE"></path>
            <path d="M160,365 C160,365 166,437.364865 164.285714,444.175676 C162.571429,450.986486 157.428571,464.608108 166,504.621622 C174.571429,544.635135 164.285714,542.081081 164.285714,542.081081 L191.714286,554 C191.714286,554 182.285714,508.027027 184,495.256757 C185.714286,482.486486 184.857143,456.094595 190,438.216216 C195.142857,420.337838 196,370.108108 196,370.108108 L160,365 Z" id="Path" fill="#FBBEBE"></path>
            <path d="M160,365 C160,365 166,437.364865 164.285714,444.175676 C162.571429,450.986486 157.428571,464.608108 166,504.621622 C174.571429,544.635135 164.285714,542.081081 164.285714,542.081081 L191.714286,554 C191.714286,554 182.285714,508.027027 184,495.256757 C185.714286,482.486486 184.857143,456.094595 190,438.216216 C195.142857,420.337838 196,370.108108 196,370.108108 L160,365 Z" id="Path" fill="#000000" opacity="0.1"></path>
            <path d="M190.54803,544.522141 C188.423378,545.978484 182.965649,547.456492 172.76219,536.758374 C172.76219,536.758374 166.763593,528.302032 161.621939,536.758374 C156.480284,545.214716 159.908054,546.06035 163.335824,550.28852 C166.644761,554.3701 193.11177,582.092187 204.19338,580.966664 C204.578514,580.929389 204.958332,580.850478 205.326001,580.73135 C215.60931,577.348813 201.041289,566.355569 201.041289,566.355569 C201.041289,566.355569 191.490358,551.855726 191.435899,545.008533 C191.441875,544.797863 191.328437,544.601449 191.141709,544.499156 C190.954982,544.396863 190.726061,544.405726 190.54803,544.522141 Z" id="Path" fill="#3F3D56"></path>
            <path d="M139.293626,356 C139.293626,356 124.773465,389.255811 118.794575,406.310074 C115.655658,415.263561 106.160437,418.106294 97.8481918,418.786759 C87.5704142,419.585448 77.5863579,422.589227 68.5778955,427.592949 C56.6233101,434.291982 40.3108228,441.894073 29.9653702,440.418607 C12.0287004,437.860467 26.5488616,466 26.5488616,466 C26.5488616,466 53.0268028,449.798451 77.7964897,448.093025 C102.566177,446.387598 129.044118,443.829459 141.001898,428.480623 C152.959677,413.131787 182,364.52714 182,364.52714 L139.293626,356 Z" id="Path" fill="#FBBEBE"></path>
            <path d="M28.2365556,461.8893 C28.2365556,461.8893 19.6105063,455.940721 26.5113458,449.992141 C33.4121852,444.043561 36,438.944779 36,438.944779 C36,438.944779 23.923531,426.197823 19.6105063,432.996199 C15.2974817,439.794576 -3.67982681,470.387271 0.633197847,479.735039 C4.9462225,489.082807 9.25924715,491.632198 14.4348767,481.434633 C19.6105063,471.237068 32.6635821,463.208687 32.6635821,463.208687 L28.2365556,461.8893 Z" id="Path" fill="#3F3D56"></path>
            <path d="M186.2044,223.002693 C186.2044,223.002693 183.359845,228.663486 156.925235,223.21326 C149.761181,221.641989 142.428135,225.045512 139.034456,231.516995 C135.718655,238.115579 135.29081,247.694169 146.842633,259.614191 C146.842633,259.614191 167.379207,282.602806 157.11092,291.968539 C146.842633,301.334271 205.885284,286.008527 205.885284,286.008527 C205.885284,286.008527 198.184068,280.899946 205.029593,265.574203 C210.408224,253.532545 209.976007,246.747165 205.808271,241.501129 C203.292613,238.237632 201.5814,234.432462 200.812142,230.391396 C199.643705,224.691812 196.757333,217.549436 189.627171,217.042673 C189.627171,217.042673 182.131989,216.60589 181.601127,218.527125 C181.070265,220.44836 187.915781,222.151263 186.2044,223.002693 Z" id="Path" fill="#00B0FF"></path>
            <path d="M155.802929,241.168662 C155.626271,239.966719 155.410069,238.772457 155.258644,237.567096 C154.741679,233.451878 152.778396,223.480793 145.985976,225.196491 C137.465439,227.348702 128.056435,248.658227 128.056435,248.658227 C128.056435,248.658227 120.358159,272.524894 109.238428,278.491561 C98.1186958,284.458228 67.3255923,315.143944 67.3255923,315.143944 C67.3255923,315.143944 41.6646727,321.962992 51.0736765,328.78204 C60.4826804,335.601088 72.4577762,324.520135 72.4577762,324.520135 L102.710717,306.431698 C113.292264,300.088933 122.390339,291.564562 129.394652,281.430392 C135.697179,272.334276 143.589486,261.821725 148.590731,258.348179 C151.619844,256.329974 153.892898,253.368855 155.054853,249.927337 C155.968228,247.10223 156.224053,244.106954 155.802929,241.168662 L155.802929,241.168662 Z" id="Path" fill="#FBBEBE"></path>
            <path d="M162.499247,290.705561 C162.499247,290.705561 123.148961,285.597089 100.907494,311.990859 C78.6660281,338.384628 62.4126488,330.721921 64.1235308,334.978981 C65.8344129,339.23604 147.95675,389.469343 195.861447,383.50946 C225.025741,379.881091 240.556597,376.56829 248.244728,374.531619 C251.544552,373.6872 254.454703,371.744354 256.491564,369.025947 C257.63242,367.521318 259.046707,366.243016 260.661069,365.257342 C262.33618,364.162076 263.493621,362.437718 263.868965,360.478209 C264.244309,358.5187 263.80549,356.491451 262.652759,354.859602 C249.085627,335.323223 212.253014,283.572032 201.849534,282.191442 C189.017919,280.488618 162.499247,290.705561 162.499247,290.705561 Z" id="Path" fill="#00B0FF"></path>
            <ellipse id="Oval" fill="#FF6584" cx="168.5" cy="160" rx="13.5" ry="10"></ellipse>
            <path d="M441.954237,72 C442.829194,67.5483095 444.024957,63.1634137 445.532483,58.8784767 C447.083298,54.7087622 449.044718,51.1515205 451.231327,51.1515205 C456.532522,51.1515205 432.677147,29 432.677147,29 C432.677147,29 431.179712,31.7363313 428.701253,35.423932 C426.86996,38.1771418 424.887936,40.8305337 422.763938,43.3723853 C419.936417,46.8854684 416.574811,49.9488518 412.797624,52.4545447 C402.195276,58.9696993 441.954237,72 441.954237,72 Z" id="Path" fill="#A0616A"></path>
            <path d="M511.64144,160 C511.64144,160 564.061355,193.048697 547.909684,198.479179 C531.758014,203.909661 505,165.083331 505,165.083331 L511.64144,160 Z" id="Path" fill="#A0616A"></path>
            <path d="M440.195708,83.8828082 C440.195708,83.8828082 465.584571,102.259435 473.004456,116.238466 C480.424341,130.217497 519,161.281583 519,161.281583 C519,161.281583 511.035589,176.901368 507.185098,175.959013 C503.334608,175.016657 423.950467,116.396389 415.598814,111.64956 C407.247161,106.90273 419.976191,77.5829494 440.195708,83.8828082 Z" id="Path" fill="#00B0FF"></path>
            <path d="M440.195708,83.8828082 C440.195708,83.8828082 465.584571,102.259435 473.004456,116.238466 C480.424341,130.217497 519,161.281583 519,161.281583 C519,161.281583 511.035589,176.901368 507.185098,175.959013 C503.334608,175.016657 423.950467,116.396389 415.598814,111.64956 C407.247161,106.90273 419.976191,77.5829494 440.195708,83.8828082 Z" id="Path" fill="#000000" opacity="0.1"></path>
            <path d="M515.235103,117 C515.235103,117 574.130005,136.974511 559.733474,146.295949 C545.336943,155.617386 510,123.658173 510,123.658173 L515.235103,117 Z" id="Path" fill="#A0616A"></path>
            <path d="M476.597171,386.412381 C476.597171,386.412381 501.420254,375.961962 498.807294,391.637595 C496.194333,407.313228 484.436036,421.682572 484.436036,429.520389 C484.436036,437.358205 462.225913,454.340152 458.306472,450.421244 C454.387031,446.502336 464.838865,430.826694 462.225913,421.682572 C459.612961,412.53845 457,391.637595 457,391.637595 L476.597171,386.412381 Z" id="Path" fill="#55536E"></path>
            <path d="M476.597171,386.412381 C476.597171,386.412381 501.420254,375.961962 498.807294,391.637595 C496.194333,407.313228 484.436036,421.682572 484.436036,429.520389 C484.436036,437.358205 462.225913,454.340152 458.306472,450.421244 C454.387031,446.502336 464.838865,430.826694 462.225913,421.682572 C459.612961,412.53845 457,391.637595 457,391.637595 L476.597171,386.412381 Z" id="Path" fill="#000000" opacity="0.1"></path>
            <path d="M469.597167,398.412384 C469.597167,398.412384 494.420247,387.961957 491.807295,403.637598 C489.194343,419.313238 477.43604,433.682574 477.43604,441.52039 C477.43604,449.358206 455.225912,466.340152 451.30648,462.421244 C447.387048,458.502336 457.838872,442.826695 455.225912,433.682574 C452.612952,424.538452 450,403.637598 450,403.637598 L469.597167,398.412384 Z" id="Path" fill="#55536E"></path>
            <path d="M411.188309,302 C411.188309,302 488.557477,375.454548 485.934797,382.012984 C483.312118,388.57142 466.264669,403 466.264669,403 C466.264669,403 407.254285,325.610389 411.188309,302 Z" id="Path" fill="#3F3D56"></path>
            <path d="M411.188309,302 C411.188309,302 488.557477,375.454548 485.934797,382.012984 C483.312118,388.57142 466.264669,403 466.264669,403 C466.264669,403 407.254285,325.610389 411.188309,302 Z" id="Path" fill="#000000" opacity="0.1"></path>
            <path d="M393.172158,169.92447 C393.172158,169.92447 412.893079,189.664516 407.634166,227.828603 C402.375253,265.992689 411.578349,302.840779 422.096175,314.684802 C432.614,326.528824 476,394.960991 476,394.960991 C476,394.960991 457.593809,425.229054 443.131801,409.437024 C428.669792,393.644994 385.283767,329.160835 385.283767,329.160835 C385.283767,329.160835 345.84195,251.516656 341.897767,230.460605 C337.953585,209.404554 336.638855,176.504505 347.15668,169.924462 C357.674506,163.344418 393.172158,169.92447 393.172158,169.92447 Z" id="Path" fill="#3F3D56"></path>
            <path d="M425,39.3517207 C440.551879,42.4834845 439.007345,43.0917175 448.567495,46.3529402 C448.620754,46.1976415 448.674012,46.0682329 448.727271,45.9388159 C450.191925,42.5482349 451.110649,47 453.227734,47 C458.553714,47 434.58677,25 434.58677,25 C434.58677,25 433.681357,26.6305904 432.123505,29.0764676 C431.657479,29.7882359 431.151514,30.5647043 430.592281,31.3799995 C430.126256,32.0658777 429.62029,32.7905911 429.087687,33.5411778 L425,39.3517207 Z" id="Path" fill="#000000" opacity="0.1"></path>
            <circle id="Oval" fill="#A0616A" cx="453" cy="33" r="25"></circle>
            <path d="M407.025211,51 C407.025211,51 445.319834,54.9393924 453.242865,72.0100956 C461.165896,89.0807988 404.384206,171.808082 400.422686,173.121207 C396.461166,174.434332 341,181 341,181 C341,181 343.641005,96.9595921 395.140651,65.4444444 C395.140677,65.4444444 407.025211,60.1919184 407.025211,51 Z" id="Path" fill="#00B0FF"></path>
            <path d="M428.423409,60.0401326 C428.423409,60.0401326 457.321813,71.9265335 467.830325,83.8129429 C478.338837,95.6993523 523,116.830734 523,116.830734 C523,116.830734 519.05931,134 515.11862,134 C511.17793,134 420.542021,95.6993437 411.347075,93.0579241 C402.15213,90.4165046 407.406386,58.7194186 428.423409,60.0401326 Z" id="Path" fill="#00B0FF"></path>
            <path d="M451.849055,36.1604824 C451.849055,36.1604824 458.38994,29.6191478 445.30817,24.3860819 C445.30817,24.3860819 458.38994,19.1530159 461.006288,11.3034212 C463.622637,3.45382654 472.779879,-9.62884256 480.628934,11.3034212 C488.477989,32.235685 502.867929,59.7092749 455.773582,59.7092749 C455.773582,59.7092749 444,62.3258036 444,51.8596802 C444,45.6828844 446.907959,39.8665609 451.849055,36.1604824 L451.849055,36.1604824 Z" id="Path" fill="#3F3D56"></path>
        </g>
    </g>
</svg>