<?xml version="1.0" encoding="UTF-8"?>
<svg width="1500px" height="926px" viewBox="0 0 1500 926" version="1.1" xmlns="http://www.w3.org/2000/svg" xmlns:xlink="http://www.w3.org/1999/xlink">
    <title>building-a-strong-startup-core</title>
    <defs>
        <linearGradient x1="50%" y1="100%" x2="50%" y2="0%" id="linearGradient-1">
            <stop stop-color="#808080" stop-opacity="0.25" offset="0%"></stop>
            <stop stop-color="#808080" stop-opacity="0.12" offset="54%"></stop>
            <stop stop-color="#808080" stop-opacity="0.1" offset="100%"></stop>
        </linearGradient>
        <linearGradient x1="50.0139799%" y1="100.014927%" x2="50.0139799%" y2="0.00226217574%" id="linearGradient-2">
            <stop stop-color="#808080" stop-opacity="0.25" offset="0%"></stop>
            <stop stop-color="#808080" stop-opacity="0.12" offset="54%"></stop>
            <stop stop-color="#808080" stop-opacity="0.1" offset="100%"></stop>
        </linearGradient>
    </defs>
    <g id="building-a-strong-startup-core" stroke="none" stroke-width="1" fill="none" fill-rule="evenodd">
        <g id="cover" transform="translate(202.000000, 118.000000)">
            <rect id="Rectangle" fill="#00B0FF" fill-rule="nonzero" x="169" y="433" width="109" height="44" rx="8.84"></rect>
            <rect id="Rectangle" fill="#00B0FF" fill-rule="nonzero" x="278" y="433" width="109" height="44" rx="8.84"></rect>
            <rect id="Rectangle" fill="#000000" fill-rule="nonzero" opacity="0.1" x="278" y="433" width="109" height="44" rx="8.84"></rect>
            <rect id="Rectangle" fill="#00B0FF" fill-rule="nonzero" x="386" y="433" width="109" height="44" rx="8.84"></rect>
            <rect id="Rectangle" fill="#00B0FF" fill-rule="nonzero" x="495" y="433" width="109" height="44" rx="8.84"></rect>
            <rect id="Rectangle" fill="#000000" fill-rule="nonzero" opacity="0.1" x="495" y="433" width="109" height="44" rx="8.84"></rect>
            <rect id="Rectangle" fill="#00B0FF" fill-rule="nonzero" x="603" y="433" width="109" height="44" rx="8.84"></rect>
            <rect id="Rectangle" fill="#00B0FF" fill-rule="nonzero" x="712" y="433" width="109" height="44" rx="8.84"></rect>
            <rect id="Rectangle" fill="#000000" fill-rule="nonzero" opacity="0.1" x="712" y="433" width="109" height="44" rx="8.84"></rect>
            <rect id="Rectangle" fill="#00B0FF" fill-rule="nonzero" transform="translate(766.500000, 412.000000) rotate(-180.000000) translate(-766.500000, -412.000000) " x="712" y="390" width="109" height="44" rx="8.84"></rect>
            <rect id="Rectangle" fill="#00B0FF" fill-rule="nonzero" transform="translate(657.500000, 412.000000) rotate(-180.000000) translate(-657.500000, -412.000000) " x="603" y="390" width="109" height="44" rx="8.84"></rect>
            <rect id="Rectangle" fill="#000000" fill-rule="nonzero" opacity="0.1" transform="translate(657.500000, 412.000000) rotate(-180.000000) translate(-657.500000, -412.000000) " x="603" y="390" width="109" height="44" rx="8.84"></rect>
            <rect id="Rectangle" fill="#00B0FF" fill-rule="nonzero" transform="translate(549.500000, 412.000000) rotate(-180.000000) translate(-549.500000, -412.000000) " x="495" y="390" width="109" height="44" rx="8.84"></rect>
            <rect id="Rectangle" fill="#00B0FF" fill-rule="nonzero" transform="translate(440.500000, 412.000000) rotate(-180.000000) translate(-440.500000, -412.000000) " x="386" y="390" width="109" height="44" rx="8.84"></rect>
            <rect id="Rectangle" fill="#000000" fill-rule="nonzero" opacity="0.1" transform="translate(440.500000, 412.000000) rotate(-180.000000) translate(-440.500000, -412.000000) " x="386" y="390" width="109" height="44" rx="8.84"></rect>
            <rect id="Rectangle" fill="#00B0FF" fill-rule="nonzero" transform="translate(332.500000, 412.000000) rotate(-180.000000) translate(-332.500000, -412.000000) " x="278" y="390" width="109" height="44" rx="8.84"></rect>
            <rect id="Rectangle" fill="#00B0FF" fill-rule="nonzero" transform="translate(223.500000, 412.000000) rotate(-180.000000) translate(-223.500000, -412.000000) " x="169" y="390" width="109" height="44" rx="8.84"></rect>
            <rect id="Rectangle" fill="#000000" fill-rule="nonzero" opacity="0.1" transform="translate(223.500000, 412.000000) rotate(-180.000000) translate(-223.500000, -412.000000) " x="169" y="390" width="109" height="44" rx="8.84"></rect>
            <rect id="Rectangle" fill="#00B0FF" fill-rule="nonzero" x="169" y="346" width="109" height="44" rx="8.84"></rect>
            <rect id="Rectangle" fill="#00B0FF" fill-rule="nonzero" x="278" y="346" width="109" height="44" rx="8.84"></rect>
            <rect id="Rectangle" fill="#000000" fill-rule="nonzero" opacity="0.1" x="278" y="346" width="109" height="44" rx="8.84"></rect>
            <rect id="Rectangle" fill="#00B0FF" fill-rule="nonzero" x="386" y="346" width="109" height="44" rx="8.84"></rect>
            <rect id="Rectangle" fill="#00B0FF" fill-rule="nonzero" x="495" y="346" width="109" height="44" rx="8.84"></rect>
            <rect id="Rectangle" fill="#000000" fill-rule="nonzero" opacity="0.1" x="495" y="346" width="109" height="44" rx="8.84"></rect>
            <rect id="Rectangle" fill="#00B0FF" fill-rule="nonzero" x="603" y="346" width="109" height="44" rx="8.84"></rect>
            <rect id="Rectangle" fill="#00B0FF" fill-rule="nonzero" x="712" y="346" width="109" height="44" rx="8.84"></rect>
            <rect id="Rectangle" fill="#000000" fill-rule="nonzero" opacity="0.1" x="712" y="346" width="109" height="44" rx="8.84"></rect>
            <rect id="Rectangle" fill="#00B0FF" fill-rule="nonzero" transform="translate(766.500000, 325.000000) rotate(-180.000000) translate(-766.500000, -325.000000) " x="712" y="303" width="109" height="44" rx="8.84"></rect>
            <rect id="Rectangle" fill="#00B0FF" fill-rule="nonzero" transform="translate(657.500000, 325.000000) rotate(-180.000000) translate(-657.500000, -325.000000) " x="603" y="303" width="109" height="44" rx="8.84"></rect>
            <rect id="Rectangle" fill="#000000" fill-rule="nonzero" opacity="0.1" transform="translate(657.500000, 325.000000) rotate(-180.000000) translate(-657.500000, -325.000000) " x="603" y="303" width="109" height="44" rx="8.84"></rect>
            <rect id="Rectangle" fill="#00B0FF" fill-rule="nonzero" transform="translate(549.500000, 325.000000) rotate(-180.000000) translate(-549.500000, -325.000000) " x="495" y="303" width="109" height="44" rx="8.84"></rect>
            <rect id="Rectangle" fill="#00B0FF" fill-rule="nonzero" transform="translate(440.500000, 325.000000) rotate(-180.000000) translate(-440.500000, -325.000000) " x="386" y="303" width="109" height="44" rx="8.84"></rect>
            <rect id="Rectangle" fill="#000000" fill-rule="nonzero" opacity="0.1" transform="translate(440.500000, 325.000000) rotate(-180.000000) translate(-440.500000, -325.000000) " x="386" y="303" width="109" height="44" rx="8.84"></rect>
            <rect id="Rectangle" fill="#00B0FF" fill-rule="nonzero" transform="translate(332.500000, 325.000000) rotate(-180.000000) translate(-332.500000, -325.000000) " x="278" y="303" width="109" height="44" rx="8.84"></rect>
            <rect id="Rectangle" fill="#00B0FF" fill-rule="nonzero" transform="translate(223.500000, 325.000000) rotate(-180.000000) translate(-223.500000, -325.000000) " x="169" y="303" width="109" height="44" rx="8.84"></rect>
            <rect id="Rectangle" fill="#000000" fill-rule="nonzero" opacity="0.1" transform="translate(223.500000, 325.000000) rotate(-180.000000) translate(-223.500000, -325.000000) " x="169" y="303" width="109" height="44" rx="8.84"></rect>
            <rect id="Rectangle" fill="#00B0FF" fill-rule="nonzero" x="169" y="261" width="109" height="44" rx="8.84"></rect>
            <rect id="Rectangle" fill="#00B0FF" fill-rule="nonzero" x="278" y="261" width="109" height="44" rx="8.84"></rect>
            <rect id="Rectangle" fill="#000000" fill-rule="nonzero" opacity="0.1" x="278" y="261" width="109" height="44" rx="8.84"></rect>
            <rect id="Rectangle" fill="#00B0FF" fill-rule="nonzero" x="386" y="261" width="109" height="44" rx="8.84"></rect>
            <rect id="Rectangle" fill="#00B0FF" fill-rule="nonzero" x="495" y="261" width="109" height="44" rx="8.84"></rect>
            <rect id="Rectangle" fill="#000000" fill-rule="nonzero" opacity="0.1" x="495" y="261" width="109" height="44" rx="8.84"></rect>
            <rect id="Rectangle" fill="#00B0FF" fill-rule="nonzero" x="603" y="261" width="109" height="44" rx="8.84"></rect>
            <rect id="Rectangle" fill="#00B0FF" fill-rule="nonzero" x="712" y="261" width="109" height="44" rx="8.84"></rect>
            <rect id="Rectangle" fill="#000000" fill-rule="nonzero" opacity="0.1" x="712" y="261" width="109" height="44" rx="8.84"></rect>
            <rect id="Rectangle" fill="#00B0FF" fill-rule="nonzero" transform="translate(766.500000, 240.000000) rotate(-180.000000) translate(-766.500000, -240.000000) " x="712" y="218" width="109" height="44" rx="8.84"></rect>
            <rect id="Rectangle" fill="#00B0FF" fill-rule="nonzero" transform="translate(657.500000, 240.000000) rotate(-180.000000) translate(-657.500000, -240.000000) " x="603" y="218" width="109" height="44" rx="8.84"></rect>
            <rect id="Rectangle" fill="#000000" fill-rule="nonzero" opacity="0.1" transform="translate(657.500000, 240.000000) rotate(-180.000000) translate(-657.500000, -240.000000) " x="603" y="218" width="109" height="44" rx="8.84"></rect>
            <rect id="Rectangle" fill="#00B0FF" fill-rule="nonzero" transform="translate(549.500000, 240.000000) rotate(-180.000000) translate(-549.500000, -240.000000) " x="495" y="218" width="109" height="44" rx="8.84"></rect>
            <rect id="Rectangle" fill="#00B0FF" fill-rule="nonzero" transform="translate(440.500000, 240.000000) rotate(-180.000000) translate(-440.500000, -240.000000) " x="386" y="218" width="109" height="44" rx="8.84"></rect>
            <rect id="Rectangle" fill="#000000" fill-rule="nonzero" opacity="0.1" transform="translate(440.500000, 240.000000) rotate(-180.000000) translate(-440.500000, -240.000000) " x="386" y="218" width="109" height="44" rx="8.84"></rect>
            <rect id="Rectangle" fill="#00B0FF" fill-rule="nonzero" transform="translate(332.500000, 240.000000) rotate(-180.000000) translate(-332.500000, -240.000000) " x="278" y="218" width="109" height="44" rx="8.84"></rect>
            <rect id="Rectangle" fill="#00B0FF" fill-rule="nonzero" transform="translate(223.500000, 240.000000) rotate(-180.000000) translate(-223.500000, -240.000000) " x="169" y="218" width="109" height="44" rx="8.84"></rect>
            <rect id="Rectangle" fill="#000000" fill-rule="nonzero" opacity="0.1" transform="translate(223.500000, 240.000000) rotate(-180.000000) translate(-223.500000, -240.000000) " x="169" y="218" width="109" height="44" rx="8.84"></rect>
            <rect id="Rectangle" fill="#00B0FF" fill-rule="nonzero" x="169" y="174" width="109" height="44" rx="8.84"></rect>
            <rect id="Rectangle" fill="#00B0FF" fill-rule="nonzero" x="278" y="174" width="109" height="44" rx="8.84"></rect>
            <rect id="Rectangle" fill="#000000" fill-rule="nonzero" opacity="0.1" x="278" y="174" width="109" height="44" rx="8.84"></rect>
            <rect id="Rectangle" fill="#00B0FF" fill-rule="nonzero" x="386" y="174" width="109" height="44" rx="8.84"></rect>
            <rect id="Rectangle" fill="#00B0FF" fill-rule="nonzero" x="495" y="174" width="109" height="44" rx="8.84"></rect>
            <rect id="Rectangle" fill="#000000" fill-rule="nonzero" opacity="0.1" x="495" y="174" width="109" height="44" rx="8.84"></rect>
            <rect id="Rectangle" fill="#00B0FF" fill-rule="nonzero" x="603" y="174" width="109" height="44" rx="8.84"></rect>
            <rect id="Rectangle" fill="#00B0FF" fill-rule="nonzero" x="712" y="174" width="109" height="44" rx="8.84"></rect>
            <rect id="Rectangle" fill="#000000" fill-rule="nonzero" opacity="0.1" x="712" y="174" width="109" height="44" rx="8.84"></rect>
            <rect id="Rectangle" fill="url(#linearGradient-1)" fill-rule="nonzero" x="704" y="29" width="117" height="47" rx="8.84"></rect>
            <rect id="Rectangle" fill="#00B0FF" fill-rule="nonzero" transform="translate(762.500000, 53.000000) rotate(-180.000000) translate(-762.500000, -53.000000) " x="708" y="31" width="109" height="44" rx="8.84"></rect>
            <rect id="Rectangle" fill="#00B0FF" fill-rule="nonzero" transform="translate(657.500000, 153.000000) rotate(-180.000000) translate(-657.500000, -153.000000) " x="603" y="131" width="109" height="44" rx="8.84"></rect>
            <rect id="Rectangle" fill="#000000" fill-rule="nonzero" opacity="0.1" transform="translate(657.500000, 153.000000) rotate(-180.000000) translate(-657.500000, -153.000000) " x="603" y="131" width="109" height="44" rx="8.84"></rect>
            <rect id="Rectangle" fill="#00B0FF" fill-rule="nonzero" transform="translate(549.500000, 153.000000) rotate(-180.000000) translate(-549.500000, -153.000000) " x="495" y="131" width="109" height="44" rx="8.84"></rect>
            <rect id="Rectangle" fill="#00B0FF" fill-rule="nonzero" transform="translate(440.500000, 153.000000) rotate(-180.000000) translate(-440.500000, -153.000000) " x="386" y="131" width="109" height="44" rx="8.84"></rect>
            <rect id="Rectangle" fill="#000000" fill-rule="nonzero" opacity="0.1" transform="translate(440.500000, 153.000000) rotate(-180.000000) translate(-440.500000, -153.000000) " x="386" y="131" width="109" height="44" rx="8.84"></rect>
            <rect id="Rectangle" fill="#00B0FF" fill-rule="nonzero" transform="translate(332.500000, 153.000000) rotate(-180.000000) translate(-332.500000, -153.000000) " x="278" y="131" width="109" height="44" rx="8.84"></rect>
            <rect id="Rectangle" fill="#00B0FF" fill-rule="nonzero" transform="translate(223.500000, 153.000000) rotate(-180.000000) translate(-223.500000, -153.000000) " x="169" y="131" width="109" height="44" rx="8.84"></rect>
            <rect id="Rectangle" fill="#000000" fill-rule="nonzero" opacity="0.1" transform="translate(223.500000, 153.000000) rotate(-180.000000) translate(-223.500000, -153.000000) " x="169" y="131" width="109" height="44" rx="8.84"></rect>
            <ellipse id="Oval" fill="#F5F5F5" fill-rule="nonzero" cx="526.5" cy="568.5" rx="526.5" ry="120.5"></ellipse>
            <path d="M120.105548,515 C120.105548,515 129.992436,482.738902 118.259996,458.985992 C113.287132,449.056027 111.787498,437.835205 113.986663,427.01133 C115.072012,421.879652 116.642174,416.854853 118.677442,412" id="Path" stroke="#535461" stroke-width="2"></path>
            <path d="M112,396.292156 C112,400.321747 119,412 119,412 C119,412 126,400.321747 126,396.292156 C126,392.264809 122.865993,389 119,389 C115.134007,389 112,392.264809 112,396.292156 L112,396.292156 Z" id="Path" fill="#00B0FF" fill-rule="nonzero"></path>
            <path d="M100.092173,417.98292 C102.141963,421.291649 114,427 114,427 C114,427 113.784772,413.53252 111.704235,410.223791 C109.617408,406.941008 105.351627,406.013342 102.157445,408.14768 C98.9632633,410.282018 98.04044,414.676687 100.092173,417.98292 Z" id="Path" fill="#00B0FF" fill-rule="nonzero"></path>
            <path d="M100.860805,456.064552 C104.4279,457.791108 118,456.598962 118,456.598962 C118,456.598962 110.91937,445.407181 107.352275,443.680626 C103.803516,442.051918 99.5486994,443.443996 97.7765895,446.81357 C96.0044797,450.183144 97.3653865,454.293683 100.839381,456.064552 L100.860805,456.064552 Z" id="Path" fill="#00B0FF" fill-rule="nonzero"></path>
            <path d="M107.544773,483.606061 C110.689084,485.945982 124,487 124,487 C124,487 119.094875,474.509882 115.961045,472.169961 C112.819613,470.093328 108.611762,470.85011 106.380766,473.892973 C104.149771,476.935837 104.674836,481.20202 107.576216,483.606061 L107.544773,483.606061 Z" id="Path" fill="#00B0FF" fill-rule="nonzero"></path>
            <path d="M128.856614,428.369065 C126.058388,431.136632 113,434 113,434 C113,434 116.196475,420.832766 118.994701,418.033265 C120.806909,416.243996 123.421294,415.572595 125.853041,416.271975 C128.284788,416.971354 130.164458,418.93526 130.783998,421.423908 C131.403537,423.912556 130.668822,426.547862 128.856614,428.337131 L128.856614,428.369065 Z" id="Path" fill="#00B0FF" fill-rule="nonzero"></path>
            <path d="M137.260013,461.060154 C133.667773,462.794828 120,461.597077 120,461.597077 C120,461.597077 127.130543,450.352672 130.722783,448.617998 C134.279678,447.082084 138.469243,448.50293 140.222412,451.839694 C141.97558,455.176458 140.669091,459.242903 137.260013,461.060154 L137.260013,461.060154 Z" id="Path" fill="#00B0FF" fill-rule="nonzero"></path>
            <path d="M139.455227,494.606061 C136.310916,496.945982 123,498 123,498 C123,498 127.905125,485.509882 131.038955,483.169961 C134.180387,481.093328 138.388238,481.85011 140.619234,484.892973 C142.850229,487.935837 142.325164,492.20202 139.423784,494.606061 L139.455227,494.606061 Z" id="Path" fill="#00B0FF" fill-rule="nonzero"></path>
            <path d="M629.410931,331 C629.410931,331 664.039197,365.957957 644.487756,417.826255 C624.936314,469.694553 678,556 678,556 C678,556 677.431461,555.91497 676.37861,555.723653 C605.258531,543.001039 569.924855,460.88332 609.469935,399.895555 C624.167733,377.213803 636.243933,350.620672 629.410931,331 Z" id="Path" fill="#00B0FF" fill-rule="nonzero"></path>
            <path d="M629.410931,331 C629.410931,331 664.039197,365.957957 644.487756,417.826255 C624.936314,469.694553 678,556 678,556 C678,556 677.431461,555.91497 676.37861,555.723653 C605.258531,543.001039 569.924855,460.88332 609.469935,399.895555 C624.167733,377.213803 636.243933,350.620672 629.410931,331 Z" id="Path" fill="#000000" fill-rule="nonzero" opacity="0.2"></path>
            <path d="M630.069258,331 C630.069258,331 649.745392,373.854612 630.069258,408.820828 C610.393124,443.787044 626.699839,541.902948 679,556" id="Path" stroke="#535461"></path>
            <path d="M568,472.440056 C568,472.440056 607.484307,466.068916 611.082398,501.811011 C614.680488,537.553106 687,542.469502 687,542.469502 L685.642826,543.382699 C625.927151,582.947478 568.8627,568.580557 577.447617,516.050509 C580.64592,496.522965 580.36186,476.889235 568,472.440056 Z" id="Path" fill="#00B0FF" fill-rule="nonzero"></path>
            <path d="M568,472.440056 C568,472.440056 607.484307,466.068916 611.082398,501.811011 C614.680488,537.553106 687,542.469502 687,542.469502 L685.642826,543.382699 C625.927151,582.947478 568.8627,568.580557 577.447617,516.050509 C580.64592,496.522965 580.36186,476.889235 568,472.440056 Z" id="Path" fill="#F5F5F5" fill-rule="nonzero" opacity="0.2"></path>
            <path d="M568,473 C568,473 598.646892,479.803932 596.132437,508.009902 C593.617982,536.215872 641.645124,570.022574 687,543.222111" id="Path" stroke="#535461"></path>
            <path d="M869,554.899077 C869,554.899077 810.160815,543.112724 794.463323,527.390532 C778.765831,511.668341 708.158809,484.170376 700.310063,503.817825 C692.461317,523.465274 594.39953,590.268718 661.140279,602.055072 C727.881028,613.841425 818.051815,617.766683 837.668398,609.916167 C857.284981,602.065652 869,554.899077 869,554.899077 Z" id="Path" fill="#A8A8A8" fill-rule="nonzero"></path>
            <path d="M661.089697,594.58036 C727.776911,606.46118 817.999546,610.417899 837.615918,602.504462 C852.55267,596.468067 862.968256,567.491237 867.035194,554 L869,554.415935 C869,554.415935 857.23229,601.939216 837.615918,609.873983 C817.999546,617.80875 727.755784,613.830701 661.089697,601.949881 C641.843046,598.515748 636.339476,590.463666 638.409917,580.267918 C639.962748,586.912218 646.712808,592.020758 661.089697,594.58036 Z" id="Path" fill="#000000" fill-rule="nonzero" opacity="0.2"></path>
            <path d="M988.163645,29.9167721 C987.11498,27.2908854 985.443921,24.9623725 983.295858,23.1338235 C967.509867,8.67627133 941.988302,13.0602427 922.390443,4.21799531 C917.871109,2.17992628 913.246183,-0.643648535 908.346718,0.131242297 C901.504362,1.19273659 895.13717,9.04779433 889.171227,5.56609306 L889.593595,6.87173103 L889.171227,6.64881723 L893.56385,20.0873349 C895.253321,25.2461972 897.027265,30.5536686 900.300614,34.8527205 C890.452341,43.4857292 885.638399,56.5551473 887.518864,69.5540175 C889.399328,82.5528877 897.716892,93.7025403 909.603262,99.1580446 C909.814446,99.6038722 910.01507,100.060315 910.215695,100.516757 L910.775332,100.750286 C912.075032,103.756217 913.04516,106.895525 913.668551,110.112666 C908.58958,110.823867 899.730418,116.481631 891.029645,124.803747 L873.628097,124.219925 C862.372783,123.84219 851.481468,120.118705 842.330655,113.520062 L790.210487,75.8900897 C786.497755,76.25768 783.000246,77.8128943 780.232051,80.3271359 C773.769826,73.5548023 768.279046,66.5277101 768.743651,62.2817329 C768.743651,62.2817329 744.520866,16.7117831 735.714501,39.4914506 C726.908135,62.271118 752.229076,86.1971993 752.229076,86.1971993 L768.289606,107.119252 C767.655355,110.787471 767.253298,114.492454 767.085858,118.211867 C786.90546,141.002149 856.258228,161.616369 856.258228,161.616369 L867.07084,162.147116 L867.134195,162.677863 C866.468832,165.530404 866.142735,168.452273 866.162749,171.382116 C866.162749,171.806714 866.162749,172.241926 866.162749,172.687754 C866.162749,173.133582 866.162749,173.271576 866.162749,173.558179 C866.711827,209.903744 871.664088,321.105886 871.664088,321.105886 C872.624974,320.670673 873.628097,320.27792 874.64178,319.906397 L873.870959,329.788909 C873.870959,329.788909 827.63226,336.295869 793.504954,349.320404 C759.377648,362.344939 758.279492,377.534922 758.279492,377.534922 L758.279492,511.559191 C748.533359,516.590674 733.148617,523.235628 725.250342,519.658392 C716.676279,515.815783 711.977439,519.042726 711.122144,522.407663 L711.122144,522.407663 C710.959285,523.073565 710.959285,523.769214 711.122144,524.435117 L711.122144,524.435117 C711.194518,524.734523 711.304513,525.023449 711.449479,525.294927 L711.449479,525.358617 C711.606617,525.639385 711.802101,525.896643 712.030235,526.122893 C715.335262,529.38168 786.894901,557.585583 803.409476,553.244072 C803.920403,553.109314 804.421409,552.939066 804.908881,552.734554 C805.067269,552.670865 805.204538,552.585945 805.362926,552.511641 C805.521314,552.437336 805.975359,552.225037 806.260457,552.055198 C806.545555,551.885359 806.587792,551.832284 806.74618,551.726135 C806.904568,551.619985 807.242462,551.397072 807.474764,551.216618 C807.707067,551.036164 807.780981,550.940629 807.92881,550.802635 C808.076638,550.664641 808.361736,550.431112 808.551802,550.218813 C808.741867,550.006514 808.826341,549.900365 808.96361,549.741141 C809.10088,549.581916 809.343741,549.316543 809.512688,549.083014 C809.681635,548.849485 809.74499,548.732721 809.871701,548.562882 C809.998411,548.393043 810.209595,548.074595 810.357424,547.819836 C810.505252,547.565077 810.558048,547.458928 810.653081,547.267859 C810.748114,547.07679 810.948738,546.726497 811.086008,546.439893 C811.223277,546.15329 811.254955,546.06837 811.328869,545.877301 C811.402783,545.686232 811.592849,545.27225 811.709,544.964416 C811.825151,544.656583 811.83571,544.592893 811.909625,544.401824 C811.983539,544.210755 812.141927,543.733083 812.23696,543.34033 C812.23696,543.159876 812.331992,542.979422 812.384788,542.798968 C812.479821,542.427445 812.585413,542.066537 812.669886,541.737474 C812.669886,541.567635 812.743801,541.397795 812.775478,541.227956 C812.859952,540.824589 812.944425,540.421221 813.007781,540.017853 C813.007781,539.869244 813.007781,539.71002 813.081695,539.56141 C813.155609,539.126198 813.218964,538.68037 813.27176,538.245157 L813.27176,537.863019 C813.324556,537.385347 813.377352,536.907675 813.419589,536.430002 L813.419589,536.132784 C813.461826,535.61619 813.493503,535.099596 813.514622,534.583002 L813.514622,534.370703 C813.514622,533.818726 813.514622,533.266749 813.514622,532.714772 L813.514622,532.608623 C813.494579,526.136352 812.786614,519.684763 811.402783,513.363731 L811.402783,513.363731 L815.552546,399.22125 C837.176462,399.559229 858.803149,398.758473 880.343743,396.822273 L882.709002,451.29816 C882.709002,451.29816 882.709002,487.102363 894.820394,503.37507 C905.18952,517.301875 917.163643,578.900389 920.394755,596.3832 C915.949336,604.875154 907.438628,615.490097 892.613523,615.129189 C892.613523,615.129189 864.726699,612.708982 866.300019,620.43666 L866.300019,620.43666 C866.344317,620.639215 866.404336,620.837969 866.479525,621.031097 L866.479525,621.031097 C866.567421,621.253426 866.669712,621.469726 866.785741,621.678609 L866.785741,621.678609 C866.901893,621.880292 867.028603,622.081976 867.176432,622.294275 L867.260905,622.421655 C867.419293,622.644568 867.598799,622.878097 867.799424,623.122241 L867.799424,623.175316 C867.989489,623.398229 868.190114,623.621143 868.411857,623.844057 L868.601922,624.035126 C868.855343,624.289885 869.108764,624.544643 869.404421,624.810017 C883.712125,637.834552 967.383156,640 967.383156,640 L967.383156,639.702782 C967.383156,639.617862 967.383156,639.511713 967.383156,639.394948 L967.383156,639.394948 C967.383156,635.626644 966.834079,615.86162 961.829022,600.97947 L962.990533,600.97947 C962.990533,600.97947 950.879141,491.390799 940.974619,478.376879 C940.974619,478.376879 938.345381,420.58913 944.279646,384.38156 L945.335565,383.978192 C973.08512,373.554318 975.059688,347.887386 972.198148,329.035248 C977.477743,330.733639 980.561027,331.890668 980.561027,331.890668 C980.561027,331.890668 980.465994,331.073317 980.286488,329.61907 L980.561027,329.725219 C980.561027,329.725219 980.033068,326.275363 979.156655,320.904202 C977.171527,306.117586 973.327981,280.280815 969.231015,268.084246 C968.565786,265.398665 967.932234,263.105838 967.351479,261.375602 C964.987126,254.046464 963.363369,246.496493 962.50481,238.840078 C961.382678,228.915971 960.81511,218.936407 960.80478,208.948399 C960.894798,195.603563 961.910948,182.281303 963.845827,169.078673 C965.524739,157.550845 967.013585,144.430776 966.907993,135.27008 C967.024301,132.070886 966.8013,128.868337 966.242764,125.716632 C964.775036,118.954913 958.281134,114.560327 951.53381,111.757982 C951.100884,111.577528 950.657398,111.428919 950.213911,111.259079 C950.382859,108.700878 950.594042,105.792384 950.868581,102.767125 C952.502372,103.905389 954.529229,104.319808 956.475512,103.913539 C959.379289,103.276642 961.45945,100.84582 963.307309,98.6060675 C973.064001,86.5581073 983.084674,74.0006299 986.833187,59.0335604 C988.347383,52.3496788 989.056421,45.5069782 988.945025,38.6528701 C988.945025,38.2778087 988.945025,37.9027474 988.945025,37.5276861 C989.125428,34.9643614 988.861029,32.3890239 988.163645,29.9167721 Z" id="Path" fill="url(#linearGradient-2)" fill-rule="nonzero"></path>
            <path d="M899,89.0535726 C899,89.0535726 913.64518,111.287424 910.506927,121.874972 C907.368674,132.46252 945.02771,126.109991 945.02771,126.109991 C945.02771,126.109991 946.073794,84.8185533 953.396384,75.2897599 C960.718974,65.7609665 899,89.0535726 899,89.0535726 Z" id="Path" fill="#F7C4A7" fill-rule="nonzero"></path>
            <path d="M802,103.44993 C802,103.44993 771.391851,78.0190964 772.447304,68.4825338 C772.447304,68.4825338 749.227329,23.9785748 740.783702,46.2305543 C732.340074,68.4825338 756.615503,91.7941313 756.615503,91.7941313 L786.168199,131 L802,103.44993 Z" id="Path" fill="#F7C4A7" fill-rule="nonzero"></path>
            <path d="M770.546135,503 C770.546135,503 742.178316,521.011262 730.621056,515.713832 C719.063796,510.416402 714.861156,518.89229 718.013136,522.070748 C721.165116,525.249205 789.458015,552.795841 805.217914,548.557897 C820.977814,544.319953 812.961278,509.611192 812.961278,509.611192 L770.546135,503 Z" id="Path" fill="#535461" fill-rule="nonzero"></path>
            <path d="M920.863533,580.222222 C920.863533,580.222222 914.007456,609.25 890.274879,608.722222 C890.274879,608.722222 854.412318,605.555556 868.124474,618.222222 C881.836629,630.888889 962,633 962,633 C962,633 962,589.722222 947.233063,580.222222 C932.466127,570.722222 920.863533,580.222222 920.863533,580.222222 Z" id="Path" fill="#535461" fill-rule="nonzero"></path>
            <path d="M878,373.882883 L881.157895,448.297297 C881.157895,448.297297 881.157895,483.378378 892.736842,499.324324 C904.315789,515.27027 918,595 918,595 L958,595 C958,595 946.421053,487.630631 936.947368,474.873874 C936.947368,474.873874 932.736842,380.261261 947.473684,359 L878,373.882883 Z" id="Path" fill="#575988" fill-rule="nonzero"></path>
            <path d="M878,373.882883 L881.157895,448.297297 C881.157895,448.297297 881.157895,483.378378 892.736842,499.324324 C904.315789,515.27027 918,595 918,595 L958,595 C958,595 946.421053,487.630631 936.947368,474.873874 C936.947368,474.873874 932.736842,380.261261 947.473684,359 L878,373.882883 Z" id="Path" fill="#000000" fill-rule="nonzero" opacity="0.1"></path>
            <path d="M961.370552,307.30926 C961.370552,307.30926 985.632577,365.711119 941.32801,382.700751 C897.023443,399.690383 816.853274,397.566679 816.853274,397.566679 L812.633791,520.741509 C812.633791,520.741509 763.054871,527.112621 762,511.184841 L762,376.329639 C762,376.329639 763.054871,361.463711 795.755861,348.721487 C828.456851,335.979263 872.761418,329.608152 872.761418,329.608152 L874.871159,302 L961.370552,307.30926 Z" id="Path" fill="#575988" fill-rule="nonzero"></path>
            <path d="M922.265205,115.308415 C930.713606,114.369858 939.261513,115.58161 947.120153,118.831855 C953.603592,121.569951 959.812041,125.868123 961.250455,132.479881 C962.921553,140.312106 961.070653,157.876245 958.944762,172.744739 C955.539141,196.045303 955.105537,219.686281 957.65442,243.096806 C958.712077,252.849944 960.24568,261.350775 962.308112,265.139534 C968.654056,276.813584 975,332 975,332 C975,332 905.194616,305.468069 870.291924,321.387228 C870.291924,321.387228 865.532466,212.606311 865.003637,177.053524 C864.591151,149.523993 899.377501,118.152638 911.011731,117.091361 C917.823044,116.47582 915.485622,116.019471 922.265205,115.308415 Z" id="Path" fill="#000000" fill-rule="nonzero" opacity="0.1"></path>
            <path d="M922.265205,113.308415 C930.713606,112.369858 939.261513,113.58161 947.120153,116.831855 C953.603592,119.569951 959.812041,123.868123 961.250455,130.479881 C962.921553,138.312106 961.070653,155.876245 958.944762,170.744739 C955.539141,194.045303 955.105537,217.686281 957.65442,241.096806 C958.477196,248.580432 960.036023,255.963988 962.308112,263.139534 C967.06757,277.466777 975,330 975,330 C975,330 905.194616,303.468069 870.291924,319.387228 C870.291924,319.387228 865.532466,210.606311 865.003637,175.053524 C864.591151,147.523993 899.377501,116.152638 911.011731,115.091361 C917.823044,114.47582 915.485622,114.019471 922.265205,113.308415 Z" id="Path" fill="#E14B5A" fill-rule="nonzero"></path>
            <path d="M941.018442,172 L866.048193,167.735028 C866.048193,167.735028 861.27544,130.619109 872.098609,131.002957 L946.298037,133.615252 C946.298037,133.615252 962.136822,152.807626 941.018442,172 Z" id="Path" fill="#000000" fill-rule="nonzero" opacity="0.1"></path>
            <path d="M941.020882,169 L855.510441,164.759036 C855.510441,164.759036 789.00232,144.614458 770,122.349398 C770,122.349398 771.055684,83.1204819 792.169374,81 L842.113805,117.779759 C850.843096,124.210008 861.297392,127.852663 872.116357,128.233735 L946.299304,130.831325 C946.299304,130.831325 962.134571,149.915663 941.020882,169 Z" id="Path" fill="#E14B5A" fill-rule="nonzero"></path>
            <path d="M944.504668,93.6966582 C945.749508,83.6914389 950.24767,80.3669198 953.396384,76.2825107 C960.718974,66.7838847 899,90.0027481 899,90.0027481 C902.190662,94.9471828 904.988935,100.138343 907.368674,105.527725 C912.289106,107.815051 917.642326,108.99965 923.059939,109 C932.119029,109 937.998023,99.110875 944.504668,93.6966582 Z" id="Path" fill="#000000" fill-rule="nonzero" opacity="0.1"></path>
            <circle id="Oval" fill="#F7C4A7" fill-rule="nonzero" cx="923" cy="70" r="38"></circle>
            <path d="M899.080371,42.7900551 C895.028898,38.330852 893.07192,32.3923428 891.231303,26.6347559 L887,13.4487113 C892.733416,16.8543079 898.847649,9.19171542 905.427325,8.12746646 C910.13465,7.3718497 914.588097,10.138897 918.925182,12.1290426 C937.754481,20.7920291 962.29604,16.4924633 977.444105,30.678902 C979.514633,32.4828075 981.11908,34.7653154 982.119695,37.330458 C982.818581,39.7476733 983.104729,42.2666715 982.965956,44.7802007 C983.08956,51.4974584 982.425599,58.2059556 980.987821,64.7667962 C977.391214,79.4427894 967.764999,91.7667923 958.382084,103.579956 C956.604937,105.825521 954.605646,108.209439 951.812986,108.837346 C946.365183,110.061232 942.155037,104.144008 940.049963,98.9504728 C937.261029,92.0685383 935.204428,84.9087783 933.914574,77.5909962 C933.364504,74.4940317 932.930796,71.3012848 931.396948,68.566165 C928.117688,62.7234382 920.035899,57.1893436 915.127588,52.655643 C910.219276,48.1219424 903.586708,47.7388128 899.080371,42.7900551 Z" id="Path" fill="#000000" fill-rule="nonzero" opacity="0.1"></path>
            <path d="M899.080371,41.7900551 C895.028898,37.330852 893.07192,31.3923428 891.231303,25.6347559 L887,12.4487113 C892.733416,15.8543079 898.847649,8.19171542 905.427325,7.12746646 C910.13465,6.3718497 914.588097,9.138897 918.925182,11.1290426 C937.754481,19.7920291 962.29604,15.4924633 977.444105,29.678902 C979.514633,31.4828075 981.11908,33.7653154 982.119695,36.330458 C982.818581,38.7476733 983.104729,41.2666715 982.965956,43.7802007 C983.08956,50.4974584 982.425599,57.2059556 980.987821,63.7667962 C977.391214,78.4427894 967.764999,90.7667923 958.382084,102.579956 C956.604937,104.825521 954.605646,107.209439 951.812986,107.837346 C946.365183,109.061232 942.155037,103.144008 940.049963,97.9504728 C937.261029,91.0685383 935.204428,83.9087783 933.914574,76.5909962 C933.364504,73.4940317 932.930796,70.3012848 931.396948,67.566165 C928.117688,61.7234382 920.035899,56.1893436 915.127588,51.655643 C910.219276,47.1219424 903.586708,46.7388128 899.080371,41.7900551 Z" id="Path" fill="#632652" fill-rule="nonzero"></path>
            <ellipse id="Oval" fill="#F7C4A7" fill-rule="nonzero" cx="933" cy="74" rx="3" ry="7"></ellipse>
            <path d="M953,258 C953,258 950.882353,263.868056 940.294118,262.890046 C929.705882,261.912037 899,259.956019 899,262.890046" id="Path" fill="#000000" fill-rule="nonzero" opacity="0.1"></path>
            <path d="M868.119092,617.350548 C866.220377,615.618675 865.271019,614.220657 865.049502,613 C864.775244,614.356286 865.619117,616.12989 868.119092,618.393845 C881.832033,630.913406 962,633 962,633 C962,633 962,632.634846 962,631.956703 C961.483128,631.94627 881.78984,629.828378 868.119092,617.350548 Z" id="Path" fill="#FFFFFF" fill-rule="nonzero" opacity="0.5"></path>
            <path d="M805.221272,546.405029 C789.46217,550.699062 721.17273,522.787847 718.020909,519.567322 C717.600874,519.131968 717.300166,518.591481 717.148906,518 C716.778601,519.308618 717.109898,520.719789 718.020909,521.714339 C721.17273,524.934863 789.46217,552.846079 805.221272,548.552046 C813.331956,546.340619 815.139,535.959794 814.991915,526.394835 C814.834324,535.304953 812.722605,544.343893 805.221272,546.405029 Z" id="Path" fill="#FFFFFF" fill-rule="nonzero" opacity="0.5"></path>
            <path d="M529.5,535 C530.328427,535 531,534.328427 531,533.5 C531,532.671573 530.328427,532 529.5,532 C528.671573,532 528,532.671573 528,533.5 C528,534.328427 528.671573,535 529.5,535 L529.5,535 Z" id="Path" fill="#67647E" fill-rule="nonzero"></path>
            <path d="M97,506.438714 C97,506.438714 136.243715,505.216216 148.063097,496.701251 C159.88248,488.186286 208.421865,478.023606 211.35568,491.673063 C214.289495,505.32252 270.336922,559.580176 225.993207,559.984131 C181.649492,560.388087 123.057322,553.010577 111.248455,545.739371 C99.4395878,538.468165 97,506.438714 97,506.438714 Z" id="Path" fill="#A8A8A8" fill-rule="nonzero"></path>
            <path d="M226.855943,555.160644 C182.543365,555.524718 123.894674,548.136165 112.082895,540.811861 C103.089956,535.232968 99.4612256,515.230337 98.3147572,506 L97,506 C97,506 99.4822617,538.231222 111.294041,545.544818 C123.10582,552.858414 181.754511,560.311215 226.025017,559.989973 C238.814975,559.882893 243.232559,555.257016 242.990644,548.393158 C241.255164,552.49434 236.374786,555.085688 226.855943,555.160644 Z" id="Path" fill="#000000" fill-rule="nonzero" opacity="0.2"></path>
            <rect id="Rectangle" fill="#00B0FF" fill-rule="nonzero" transform="translate(1042.500000, 587.000000) rotate(-180.000000) translate(-1042.500000, -587.000000) " x="988" y="565" width="109" height="44" rx="8.84"></rect>
            <rect id="Rectangle" fill="#000000" fill-rule="nonzero" opacity="0.1" transform="translate(1042.500000, 587.000000) rotate(-180.000000) translate(-1042.500000, -587.000000) " x="988" y="565" width="109" height="44" rx="8.84"></rect>
            <rect id="Rectangle" fill="#00B0FF" fill-rule="nonzero" x="988" y="523" width="109" height="44" rx="8.84"></rect>
            <rect id="Rectangle" fill="#00B0FF" fill-rule="nonzero" transform="translate(1042.500000, 502.000000) rotate(-180.000000) translate(-1042.500000, -502.000000) " x="988" y="480" width="109" height="44" rx="8.84"></rect>
            <rect id="Rectangle" fill="#000000" fill-rule="nonzero" opacity="0.1" transform="translate(1042.500000, 502.000000) rotate(-180.000000) translate(-1042.500000, -502.000000) " x="988" y="480" width="109" height="44" rx="8.84"></rect>
            <rect id="Rectangle" fill="#00B0FF" fill-rule="nonzero" x="988" y="436" width="109" height="44" rx="8.84"></rect>
        </g>
    </g>
</svg>