<?xml version="1.0" encoding="UTF-8"?>
<svg width="1500px" height="926px" viewBox="0 0 1500 926" version="1.1" xmlns="http://www.w3.org/2000/svg" xmlns:xlink="http://www.w3.org/1999/xlink">
    <title>comfortable-being-uncomfortable</title>
    <defs>
        <linearGradient x1="50.0052657%" y1="99.9955794%" x2="50.0052657%" y2="-0.0101424224%" id="linearGradient-1">
            <stop stop-color="#808080" stop-opacity="0.25" offset="0%"></stop>
            <stop stop-color="#808080" stop-opacity="0.12" offset="54%"></stop>
            <stop stop-color="#808080" stop-opacity="0.1" offset="100%"></stop>
        </linearGradient>
    </defs>
    <g id="comfortable-being-uncomfortable" stroke="none" stroke-width="1" fill="none" fill-rule="evenodd">
        <g id="cover" transform="translate(239.000000, 59.000000)">
            <path d="M260.64,0.9 C353.64,13.63 429.15,102.15 512.94,157.39 C531.61,169.7 551.18,180.54 571.87,183.75 C640.41,194.39 703.61,120.66 772.47,126.68 C828.28,131.56 875.61,190.68 895.69,260.22 C915.77,329.76 912.69,407.54 901.54,480.54 C884.08,594.54 845.4,706.69 778.07,780.84 C766.96,793.08 754.55,804.53 740.28,807.31 C716.5,812 694.45,791.85 673.87,775.19 C580.99,699.97 463.57,680.87 359.87,724.11 C324.75,738.75 291.16,760.11 255.22,770.65 C186.01,790.91 107.69,765.31 60.7,694.65 C13.71,623.99 6.07,507.85 50.84,434.65 C69.53,404.1 95.29,382.53 114.91,353.05 C164.21,279.05 146.01,204.23 139.91,117.45 C133.9,31.94 206.31,-6.53 260.64,0.9 Z" id="Path" fill="#00B0FF" fill-rule="nonzero" opacity="0.1"></path>
            <g id="Group" opacity="0.2" transform="translate(634.000000, 545.000000)">
                <path d="M49.38,0 C49.38,0 76.89,27.51 61.38,68.33 C45.87,109.15 88,177.03 88,177.03 L86.71,176.82 C30.21,166.82 2.14,102.23 33.56,54.23 C45.22,36.42 54.81,15.48 49.38,0 Z" id="Path" fill="#00B0FF" fill-rule="nonzero"></path>
                <path d="M49.38,0.5 C49.38,0.5 76.89,28.01 61.38,68.83 C45.87,109.65 88,177.53 88,177.53 L86.71,177.32 C30.21,167.32 2.14,102.73 33.56,54.73 C45.22,36.87 54.81,15.94 49.38,0.5 Z" id="Path" fill="#000000" fill-rule="nonzero" opacity="0.1"></path>
                <path d="M49.38,0 C49.38,0 64.91,33.72 49.38,61.23 C33.85,88.74 46.72,165.94 87.98,177.03" id="Path" stroke="#535461"></path>
                <path d="M0.39,111.3 C0.39,111.3 31.78,106.3 34.64,134.43 C37.5,162.56 95,166.43 95,166.43 L93.92,167.15 C46.44,198.32 1.06,187 7.92,145.62 C10.45,130.27 10.24,114.81 0.39,111.3 Z" id="Path" fill="#00B0FF" fill-rule="nonzero"></path>
                <path d="M0.39,111.3 C0.39,111.3 24.76,116.65 22.75,138.8 C20.74,160.95 58.93,187.51 95,166.46" id="Path" stroke="#535461"></path>
            </g>
            <g id="Group" opacity="0.2" transform="translate(316.000000, 501.000000)">
                <path d="M41.1,0.68 C41.1,0.68 63.96,23.54 51.1,57.45 C38.24,91.36 73.22,147.77 73.22,147.77 L72.15,147.59 C25.21,139.3 1.88,85.59 27.98,45.73 C37.64,30.9 45.61,13.51 41.1,0.68 Z" id="Path" fill="#00B0FF" fill-rule="nonzero"></path>
                <path d="M41.1,1.06 C41.1,1.06 63.96,23.92 51.1,57.83 C38.24,91.74 73.22,148.15 73.22,148.15 L72.1,148 C25.16,139.71 1.83,86 27.93,46.14 C37.64,31.28 45.61,13.89 41.1,1.06 Z" id="Path" fill="#000000" fill-rule="nonzero" opacity="0.1"></path>
                <path d="M41.1,0.68 C41.1,0.68 54,28.68 41.1,51.55 C28.2,74.42 38.89,138.55 73.17,147.77" id="Path" stroke="#535461"></path>
                <path d="M0.39,93.13 C0.39,93.13 26.5,89 28.85,112.35 C31.2,135.7 79,139 79,139 L78.1,139.6 C38.65,165.5 0.94,156.1 6.63,121.71 C8.74,108.88 8.57,96 0.39,93.13 Z" id="Path" fill="#00B0FF" fill-rule="nonzero"></path>
                <path d="M0.39,93.13 C0.39,93.13 20.63,97.57 18.97,115.98 C17.31,134.39 49.03,156.46 78.97,138.98" id="Path" stroke="#535461"></path>
            </g>
            <g id="Group" opacity="0.2" transform="translate(220.000000, 357.000000)">
                <path d="M41.1,0.68 C41.1,0.68 63.96,23.54 51.1,57.45 C38.24,91.36 73.22,147.77 73.22,147.77 L72.15,147.59 C25.21,139.3 1.88,85.59 27.98,45.73 C37.64,30.9 45.61,13.51 41.1,0.68 Z" id="Path" fill="#00B0FF" fill-rule="nonzero"></path>
                <path d="M41.1,1.06 C41.1,1.06 63.96,23.92 51.1,57.83 C38.24,91.74 73.22,148.15 73.22,148.15 L72.1,148 C25.16,139.71 1.83,86 27.93,46.14 C37.64,31.28 45.61,13.89 41.1,1.06 Z" id="Path" fill="#000000" fill-rule="nonzero" opacity="0.1"></path>
                <path d="M41.1,0.68 C41.1,0.68 54,28.68 41.1,51.55 C28.2,74.42 38.89,138.55 73.17,147.77" id="Path" stroke="#535461"></path>
                <path d="M0.39,93.13 C0.39,93.13 26.5,89 28.85,112.35 C31.2,135.7 79,139 79,139 L78.1,139.6 C38.65,165.5 0.94,156.1 6.63,121.71 C8.74,108.88 8.57,96 0.39,93.13 Z" id="Path" fill="#00B0FF" fill-rule="nonzero"></path>
                <path d="M0.39,93.13 C0.39,93.13 20.63,97.57 18.97,115.98 C17.31,134.39 49.03,156.46 78.97,138.98" id="Path" stroke="#535461"></path>
            </g>
            <polygon id="Path" fill="#DFE5EE" fill-rule="nonzero" points="14.76 592.38 14.76 578.75 294.05 500.42 344 494.74 344 507.23 65.85 607.13"></polygon>
            <polygon id="Path" fill="#000000" fill-rule="nonzero" opacity="0.05" points="14.76 592.38 14.76 578.75 294.05 500.42 344 494.74 344 507.23 65.85 607.13"></polygon>
            <polygon id="Path" fill="#DFE5EE" fill-rule="nonzero" points="14.76 578.75 294.05 486.79 342.87 494.74 65.85 593.51"></polygon>
            <rect id="Rectangle" fill="#DFE5EE" fill-rule="nonzero" x="57.9" y="370.99" width="18.17" height="211.17"></rect>
            <rect id="Rectangle" fill="#DFE5EE" fill-rule="nonzero" x="275.88" y="322.17" width="18.17" height="185.06"></rect>
            <polygon id="Path" fill="#DFE5EE" fill-rule="nonzero" points="339.46 264.27 339.46 321.04 112.67 371.7 85.84 377.7 19.3 392.56 0 386.88 0 321.04 102.91 301.42 128.52 296.54 315.62 260.87"></polygon>
            <polygon id="Path" fill="#000000" fill-rule="nonzero" opacity="0.05" points="339.46 264.27 339.46 321.04 112.67 371.7 85.84 377.7 19.3 392.56 0 386.88 0 321.04 102.91 301.42 128.52 296.54 315.62 260.87"></polygon>
            <polygon id="Path" fill="#000000" fill-rule="nonzero" opacity="0.05" points="76.07 370.99 76.07 382.15 57.9 386.21 57.9 370.99"></polygon>
            <polygon id="Path" fill="#000000" fill-rule="nonzero" opacity="0.05" points="294.05 322.17 294.05 333.46 275.88 337.51 275.88 322.17"></polygon>
            <polygon id="Path" fill="#DFE5EE" fill-rule="nonzero" points="339.46 264.27 339.46 321.04 247.38 341.61 220.6 347.59 112.67 371.7 85.84 377.7 19.3 392.56 20.44 327.85 112.91 309.42 138.78 304.27 138.79 304.27 244.5 283.2 270.32 278.05"></polygon>
            <polygon id="Path" fill="#00B0FF" fill-rule="nonzero" points="138.79 304.27 112.67 371.7 85.84 377.7 112.91 309.42 102.91 301.42 128.52 296.54 138.78 304.27"></polygon>
            <polygon id="Path" fill="#00B0FF" fill-rule="nonzero" points="271.62 279.03 247.38 341.61 220.6 347.59 245.74 284.18 244.5 283.2 235.74 276.18 261.35 271.3 270.32 278.05 271.61 279.03"></polygon>
            <polygon id="Path" fill="#000000" fill-rule="nonzero" opacity="0.05" points="61.88 578.47 80.04 574.21 80.04 578.47 61.88 582.73"></polygon>
            <polygon id="Path" fill="#000000" fill-rule="nonzero" opacity="0.05" points="278.72 503.54 296.88 499.28 296.88 503.54 278.72 507.8"></polygon>
            <path d="M659.73,348.51 C630.78,363.76 600.81,346.51 600.81,346.51 C600.340123,347.390848 599.801802,348.233438 599.2,349.03 C598.83,348.75 598.45,348.46 598.07,348.15 C585.63,337.98 571.86,313.97 571.86,313.97 L545.03,263.66 C541.743005,257.61394 539.265108,251.161996 537.66,244.47 C533.24,225.29 519.13,224.47 519.13,224.47 L502.6,224.47 C494.6,224.47 483.04,226.15 471.6,228.47 C471.903514,228.158227 472.10269,227.759875 472.17,227.33 L471.62,227.44 L477.76,221.44 C477.76,221.44 495.33,214.32 497.4,199.07 L506.7,189.92 C506.7,189.92 507,189.12 507.42,187.71 L510.51,183.82 C523.97,166.97 524.94,166.69 524.94,166.69 L565.75,142.54 C565.75,142.54 580.4,140.46 574.29,99.49 C568.18,58.52 572.29,53.49 572.29,53.49 C572.29,53.49 583.39,12.44 562.11,17.55 C540.83,22.66 550.45,57.75 550.45,57.75 L551.93,65.5 C553.785314,75.2057109 553.683318,85.184241 551.63,94.85 C549.42,105.3 546.95,118.21 547.57,121.29 C548.66,126.66 536.37,133.46 536.37,133.46 L529.42,137.52 C522.062218,141.815033 513.395507,143.293242 505.03,141.68 L504.66,141.12 L500.5,138 C500.376069,138.427461 500.275916,138.861459 500.2,139.3 L498.5,138 L498.5,138.1 C498.5,137.74 498.5,137.4 498.58,137.02 C499.068255,133.174176 499.970143,129.392277 501.27,125.74 C501.38,125.4 501.52,125.04 501.64,124.74 C517.772129,123.761847 530.387581,110.451366 530.5,94.29 C530.501269,91.0823074 529.988085,87.8951695 528.98,84.85 C529.766593,84.99625 530.573407,84.99625 531.36,84.85 C535.1,84.25 539.07,82.33 541.01,79.02 C543.106296,75.3050973 542.795882,70.6999692 540.22,67.3 C539.74308,66.6919004 539.207133,66.1325062 538.62,65.63 C535.07,61.63 529.13,60.63 524.41,57.94 C519.92,55.41 516.51,51.37 512.33,48.36 C504.43,42.65 494.33,40.93 484.69,39.36 C480.55,38.69 476.34,38.02 472.18,38.57 C466.92,39.27 462.08,41.9 457.96,45.19 C456.499051,46.2397569 455.275792,47.585683 454.37,49.14 C452.84,52.14 453.51,55.66 453.24,58.98 C452.58,67.06 446.24,73.64 439.24,77.93 C434.94,80.56 430.24,82.66 426.63,86.19 C423.02,89.72 420.89,95.29 423.14,99.75 C424.33,102.11 426.68,104.08 426.7,106.75 C426.621582,107.924278 426.279799,109.065836 425.7,110.09 C423.297966,115.104773 420.05436,119.67085 416.11,123.59 C401.51,120.07 385.75,127.81 385.75,127.81 L338.2,129.81 C338.2,129.81 324.76,123.71 307.2,161.33 C289.64,198.95 283.42,200.99 283.42,200.99 C283.42,200.99 251.42,229.46 272.05,236.58 C292.68,243.7 304.05,209.12 304.05,209.12 L315.5,187.84 C315.5,187.84 341.34,163.43 343.41,158.35 C345.48,153.27 357.88,153.27 357.88,153.27 L408.29,155.27 C408.356404,155.676994 408.396487,156.087846 408.41,156.5 C408.53,162.14 403.24,166.5 397.92,168.59 C394.56,169.93 390.72,170.94 388.67,173.88 C386.62,176.82 387.11,181.09 389.17,184.09 C389.798177,184.986274 390.53364,185.802335 391.36,186.52 C393.522065,188.749081 396.161635,190.458647 399.08,191.52 C401.500216,192.484459 404.018456,193.181921 406.59,193.6 C405.54419,197.916106 404.122081,202.13224 402.34,206.2 L404.34,207.06 L403.68,208.82 C400.86,216.31 395.05,231.09 389.91,240.03 C389.86,240.03 380.57,247.91 373.36,255.03 C367.85,260.45 354.57,312.63 393.43,313.57 L402.3,320.11 L402.48,320.11 C410.37,331.25 436.42,349.55 436.42,349.55 L390.35,352.27 C388.052145,352.409674 385.764717,352.686837 383.5,353.1 C382.746667,353.233333 381.993333,353.383333 381.24,353.55 C373.12,355.33 364.13,354.7 359.31,354.13 C356.12,348.13 341.31,350.57 341.31,350.57 C341.31,350.57 339.24,381.08 342.31,398.36 C345.38,415.64 356.78,404.46 356.78,404.46 C354.71,389.21 371.78,377.99 371.78,377.99 L371.78,377.99 C373.95,376.9 376.52,375.58 379.54,373.99 C389.12,368.85 434.69,376.71 448.78,379.31 C451.882437,379.88761 455.034581,380.155592 458.19,380.11 C498.58,379.45 488.09,359.75 488.09,359.75 L479.96,343.75 C478.626173,341.089768 477.437758,338.359083 476.4,335.57 C469.22,316.57 458.06,306.11 449.51,300.51 C449.97,299.93 450.43,299.35 450.88,298.74 C450.88,298.74 450.2,298.58 449.17,298.27 C456.39,294.58 461.17,291.63 461.17,291.63 C461.17,291.63 508.72,263.16 506.66,270.28 C504.6,277.4 517,304.85 539.74,324.17 C540.4,324.73 541.04,325.3 541.68,325.88 L542.3,326.45 L543.57,327.65 L544.26,328.32 L545.44,329.5 L546.1,330.18 L547.35,331.52 L547.85,332.06 C548.416667,332.686667 548.976667,333.32 549.53,333.96 L549.89,334.39 C550.316667,334.896667 550.74,335.403333 551.16,335.91 L551.73,336.62 L552.73,337.9 L553.31,338.65 L554.31,339.96 L554.83,340.65 L555.99,342.26 L556.27,342.64 C556.743333,343.306667 557.206667,343.973333 557.66,344.64 L558,345.15 L559,346.66 L559.42,347.31 L560.31,348.71 L560.7,349.33 L561.63,350.86 L561.9,351.3 C562.706667,352.633333 563.473333,353.966667 564.2,355.3 L564.32,355.52 L565.27,357.24 L565.42,357.52 L566.33,359.24 L566.39,359.36 C568.953141,364.254275 571.246569,369.285128 573.26,374.43 C572.098268,374.709657 570.918889,374.910118 569.73,375.03 C563.53,402.49 580.07,402.49 580.07,402.49 C580.07,402.49 641.07,393.34 663.81,369.95 C686.55,346.56 659.73,348.51 659.73,348.51 Z" id="Path" fill="url(#linearGradient-1)" fill-rule="nonzero"></path>
            <path d="M438.5,296.5 C438.5,296.5 463.64,303.02 476.18,336.72 C477.186651,339.446227 478.338293,342.116703 479.63,344.72 L487.5,360.5 C487.5,360.5 497.65,379.87 458.58,380.5 C455.527812,380.543529 452.479025,380.278854 449.48,379.71 C435.85,377.16 391.77,369.43 382.48,374.48 C377.288264,377.420932 371.947787,380.09117 366.48,382.48 L355.48,370.48 L359.48,354.48 C359.48,354.48 372.69,356.96 384.1,354.41 C386.998482,353.75636 389.944496,353.335024 392.91,353.15 L437.5,350.5 C437.5,350.5 402.5,325.5 402.5,316.5 C402.5,307.5 438.5,296.5 438.5,296.5 Z" id="Path" fill="#F8BDC5" fill-rule="nonzero"></path>
            <path d="M363.5,357.5 C363.5,357.5 352.5,375.44 374.99,378.5 C374.99,378.5 358.5,389.5 360.5,404.5 C360.5,404.5 349.5,415.5 346.5,398.5 C343.5,381.5 345.5,351.5 345.5,351.5 C345.5,351.5 363.5,348.5 363.5,357.5 Z" id="Path" fill="#000000" fill-rule="nonzero" opacity="0.05"></path>
            <path d="M438.5,296.5 C438.5,296.5 463.64,303.02 476.18,336.72 C477.186651,339.446227 478.338293,342.116703 479.63,344.72 L487.5,360.5 C487.5,360.5 497.65,379.87 458.58,380.5 C455.527812,380.543529 452.479025,380.278854 449.48,379.71 C435.85,377.16 391.77,369.43 382.48,374.48 C377.288264,377.420932 371.947787,380.09117 366.48,382.48 L355.48,370.48 L359.48,354.48 C359.48,354.48 372.69,356.96 384.1,354.41 C386.998482,353.75636 389.944496,353.335024 392.91,353.15 L437.5,350.5 C437.5,350.5 402.5,325.5 402.5,316.5 C402.5,307.5 438.5,296.5 438.5,296.5 Z" id="Path" fill="#000000" fill-rule="nonzero" opacity="0.05"></path>
            <path d="M360.5,372.5 L364.5,356.5 C364.5,356.5 377.71,358.98 389.12,356.43 C392.018482,355.77636 394.964496,355.355024 397.93,355.17 L442.5,352.5 C442.5,352.5 407.5,327.5 407.5,318.5 C407.5,309.5 443.5,298.5 443.5,298.5 L443.77,298.58 C442.076737,297.735689 440.31347,297.039751 438.5,296.5 C438.5,296.5 402.5,307.5 402.5,316.5 C402.5,325.5 437.5,350.5 437.5,350.5 L392.94,353.17 C389.974496,353.355024 387.028482,353.77636 384.13,354.43 C372.72,356.98 359.51,354.5 359.51,354.5 L355.51,370.5 L366.51,382.5 C366.51,382.5 367.25,382.2 368.77,381.5 L360.5,372.5 Z" id="Path" fill="#000000" fill-rule="nonzero" opacity="0.05"></path>
            <path d="M363.5,357.5 C363.5,357.5 352.5,375.44 374.99,378.5 C374.99,378.5 358.5,389.5 360.5,404.5 C360.5,404.5 349.5,415.5 346.5,398.5 C343.5,381.5 345.5,351.5 345.5,351.5 C345.5,351.5 363.5,348.5 363.5,357.5 Z" id="Path" fill="#FFD97B" fill-rule="nonzero"></path>
            <polygon id="Path" fill="#DFE5EE" fill-rule="nonzero" points="333.76 647.38 333.76 633.75 613.05 555.42 663 549.74 663 562.23 384.85 662.13"></polygon>
            <polygon id="Path" fill="#000000" fill-rule="nonzero" opacity="0.05" points="333.76 647.38 333.76 633.75 613.05 555.42 663 549.74 663 562.23 384.85 662.13"></polygon>
            <polygon id="Path" fill="#DFE5EE" fill-rule="nonzero" points="333.76 633.75 613.05 541.79 661.87 549.74 384.85 648.51"></polygon>
            <rect id="Rectangle" fill="#DFE5EE" fill-rule="nonzero" x="376.9" y="425.99" width="18.17" height="211.17"></rect>
            <rect id="Rectangle" fill="#DFE5EE" fill-rule="nonzero" x="594.88" y="377.17" width="18.17" height="185.06"></rect>
            <polygon id="Path" fill="#DFE5EE" fill-rule="nonzero" points="658.46 319.27 658.46 376.04 431.67 426.7 404.84 432.7 338.3 447.56 319 441.88 319 376.04 421.9 356.42 447.52 351.54 634.62 315.87"></polygon>
            <polygon id="Path" fill="#000000" fill-rule="nonzero" opacity="0.05" points="658.46 319.27 658.46 376.04 431.67 426.7 404.84 432.7 338.3 447.56 319 441.88 319 376.04 421.9 356.42 447.52 351.54 634.62 315.87"></polygon>
            <polygon id="Path" fill="#000000" fill-rule="nonzero" opacity="0.05" points="395.07 425.99 395.07 437.15 376.9 441.21 376.9 425.99"></polygon>
            <polygon id="Path" fill="#000000" fill-rule="nonzero" opacity="0.05" points="613.05 377.17 613.05 388.46 594.88 392.51 594.88 377.17"></polygon>
            <polygon id="Path" fill="#DFE5EE" fill-rule="nonzero" points="658.46 319.27 658.46 376.04 566.38 396.61 539.6 402.59 431.67 426.7 404.84 432.7 338.3 447.56 339.44 382.85 431.91 364.42 457.78 359.27 457.79 359.27 563.5 338.2 589.32 333.05"></polygon>
            <polygon id="Path" fill="#00B0FF" fill-rule="nonzero" points="457.79 359.27 431.67 426.7 404.84 432.7 431.91 364.42 421.9 356.42 447.52 351.54 457.78 359.27"></polygon>
            <polygon id="Path" fill="#00B0FF" fill-rule="nonzero" points="590.62 334.03 566.38 396.61 539.6 402.59 564.74 339.18 563.5 338.2 554.74 331.18 580.35 326.3 589.32 333.05 590.61 334.03"></polygon>
            <polygon id="Path" fill="#000000" fill-rule="nonzero" opacity="0.05" points="380.88 633.47 399.04 629.21 399.04 633.47 380.88 637.73"></polygon>
            <polygon id="Path" fill="#000000" fill-rule="nonzero" opacity="0.05" points="597.72 558.54 615.88 554.28 615.88 558.54 597.72 562.79"></polygon>
            <path d="M562.63,146.9 L523.15,170.65 C523.15,170.65 522.21,170.93 509.15,187.5 L504.46,193.5 C494.54,206.25 473.92,210.5 473.92,210.5 L460.84,190.38 L458.08,165.94 L460.98,156.07 L463.28,148.25 L483.4,151.13 L491.5,155.5 L501.5,145.5 C502.28,145.71 503.07,145.9 503.86,146.05 C511.95383,147.646229 520.352039,146.2044 527.45,142 L534.17,138 C534.17,138 546.05,131.31 545,126 C544.4,123 546.79,110.28 548.93,100 C550.915745,90.4918229 551.014277,80.6861607 549.22,71.14 L547.79,63.52 C547.79,63.52 538.5,29 559.07,24 C579.64,19 568.92,59.34 568.92,59.34 C568.92,59.34 564.98,64.28 570.92,104.57 C576.86,144.86 562.63,146.9 562.63,146.9 Z" id="Path" fill="#F8BDC5" fill-rule="nonzero"></path>
            <path d="M497.55,141.54 C496.43,152.12 501.5,153.54 501.5,153.54 L504.5,165.54 L504.5,178.54 L495.5,193.54 L473.5,193.54 L454.5,184.54 L454.5,142.54 L451.5,132.54 C453.179024,132.432251 454.849235,132.215124 456.5,131.89 C466.15,129.96 471.62,124.6 474.7,118.78 C479.5,109.67 478.5,99.5 478.5,99.5 C478.5,99.5 518.5,88.5 504.5,119.5 C502.64,123.63 501.22,127.26 500.15,130.5 C498.89619,134.077943 498.024667,137.778563 497.55,141.54 L497.55,141.54 Z" id="Path" fill="#F8BDC5" fill-rule="nonzero"></path>
            <path d="M472.09,229.33 C472.024523,229.77338 471.817583,230.183751 471.5,230.5 C470.979903,231.104045 470.545796,231.777081 470.21,232.5 C465.53,241.33 456.5,272.5 456.5,272.5 L407.5,254.5 L406.79,254.32 L387.5,249.5 C392.97,245.59 402.11,222.14 405.83,212.08 C406.83,209.27 407.5,207.5 407.5,207.5 L459.5,212.5 C459.5,212.5 472.98,224.3 472.09,229.33 Z" id="Path" fill="#F8BDC5" fill-rule="nonzero"></path>
            <path d="M451.5,129.5 C451.5,129.5 436.5,135.5 421.5,129.5 C406.5,123.5 388.5,132.5 388.5,132.5 L342.5,134.5 C342.5,134.5 329.5,128.5 312.5,165.5 C295.5,202.5 289.5,204.5 289.5,204.5 C289.5,204.5 258.5,232.5 278.5,239.5 C298.5,246.5 309.5,212.5 309.5,212.5 L320.5,191.5 C320.5,191.5 345.5,167.5 347.5,162.5 C349.5,157.5 361.5,157.5 361.5,157.5 L411.5,159.5 L411.19,174.12 L426.5,187.5 L440.5,175.5 L451.5,153.5 L451.5,129.5 Z" id="Path" fill="#F8BDC5" fill-rule="nonzero"></path>
            <path d="M504.5,119.5 C502.64,123.63 501.22,127.26 500.15,130.500017 C499.61,130.500017 499.05,130.500017 498.5,130.500017 C489.163168,130.509801 480.357006,126.160349 474.69,118.74 C479.5,109.67 478.5,99.5 478.5,99.5 C478.5,99.5 518.5,88.5 504.5,119.5 Z" id="Path" fill="#000000" fill-rule="nonzero" opacity="0.1"></path>
            <circle id="Oval" fill="#F8BDC5" fill-rule="nonzero" cx="498.5" cy="99.5" r="30"></circle>
            <path d="M472.09,229.33 C472.024523,229.77338 471.817583,230.183751 471.5,230.5 C470.979903,231.104045 470.545796,231.777081 470.21,232.5 C452.42,231.72 413.49,215.39 405.83,212.12 C406.83,209.31 407.5,207.54 407.5,207.54 L459.5,212.54 C459.5,212.54 472.98,224.3 472.09,229.33 Z" id="Path" fill="#000000" fill-rule="nonzero" opacity="0.1"></path>
            <path d="M509.19,187.5 L504.5,193.5 C494.58,206.25 473.96,210.5 473.96,210.5 L460.88,190.38 L458.12,165.94 L459,142 C461.79,155 469.59,182.12 481.5,184.5 C501.41,188.5 499.98,159.97 499,148 C498.850637,146.151562 499.019761,144.291202 499.5,142.5 L503.5,145.5 L503.86,146.05 C513.39,160.85 511.25,178.47 509.19,187.5 Z" id="Path" fill="#000000" fill-rule="nonzero" opacity="0.1"></path>
            <path d="M456.5,127.5 L446.5,127.5 C446.5,127.5 456.5,191.5 409.5,173.5 C409.5,173.5 413.5,188.5 404.5,209.5 C404.5,209.5 452.5,230.5 471.5,230.5 L477.5,224.5 C477.5,224.5 494.5,217.5 496.5,202.5 L505.5,193.5 C505.5,193.5 515.5,166.5 501.5,145.5 L497.5,142.5 C497.018976,144.291062 496.84984,146.151558 497,148 C498,160 499.41,188.48 479.5,184.5 C454.5,179.5 456.5,127.5 456.5,127.5 Z" id="Path" fill="#EB6576" fill-rule="nonzero"></path>
            <path d="M388.5,309.5 L404.5,321.5 C404.5,321.5 430.5,329.5 451.5,300.5 C451.5,300.5 438.5,297.5 440.5,290.5 C442.5,283.5 388.5,309.5 388.5,309.5 Z" id="Path" fill="#5E52AD" fill-rule="nonzero"></path>
            <path d="M388.5,309.5 L404.5,321.5 C404.5,321.5 430.5,329.5 451.5,300.5 C451.5,300.5 438.5,297.5 440.5,290.5 C442.5,283.5 388.5,309.5 388.5,309.5 Z" id="Path" fill="#000000" fill-rule="nonzero" opacity="0.05"></path>
            <path d="M472.09,230.33 C472.024523,230.77338 471.817583,231.183751 471.5,231.5 C467.5,235.5 456.5,273.5 456.5,273.5 L407.5,255.5 L406.79,255.32 C410.586959,252.920822 414.605374,250.891522 418.79,249.26 C422.2,247.94 425.63,246.54 428.6,245.2 C431.006743,244.170365 433.318877,242.93232 435.51,241.5 C439.7,238.5 455.79,233.7 472.09,230.33 Z" id="Path" fill="#000000" fill-rule="nonzero" opacity="0.1"></path>
            <path d="M585.5,372.5 L570.5,376.5 C570.5,376.5 570.16,375.5 569.5,373.76 C566.3,365.62 555.64,341.15 537.5,325.5 C515.5,306.5 503.5,279.5 505.5,272.5 C507.5,265.5 461.5,293.5 461.5,293.5 C461.5,293.5 428.15,314.25 406.11,314.28 C402.816803,314.373341 399.541297,313.766639 396.5,312.5 C388,308.67 384.56,301.96 383.41,295.5 C382.033314,287.231547 384.212296,278.766203 389.41,272.19 C397.030065,262.339062 407.195786,254.756264 418.81,250.26 C422.22,248.94 425.65,247.54 428.62,246.2 C431.026743,245.170365 433.338877,243.93232 435.53,242.5 C442.53,237.5 482.53,227.5 501.53,227.5 L517.53,227.5 C517.53,227.5 531.17,228.3 535.45,247.16 C536.992825,253.720355 539.379368,260.053097 542.55,266 L568.5,315.5 C568.5,315.5 581.82,339.11 593.85,349.11 C597.28,351.97 600.61,353.72 603.5,353.5 C616.5,352.5 585.5,372.5 585.5,372.5 Z" id="Path" fill="#F8BDC5" fill-rule="nonzero"></path>
            <path d="M538.66,84.52 C540.6854,80.8627118 540.388313,76.3595085 537.9,73 C534.54,68.63 528.47,67.63 523.68,64.89 C519.33,62.4 516.04,58.43 512,55.47 C504.36,49.86 494.62,48.16 485.27,46.63 C481.27,45.97 477.19,45.31 473.17,45.86 C468.08,46.55 463.4,49.14 459.41,52.37 C457.99428,53.4059473 456.812066,54.7278463 455.94,56.25 C454.46,59.17 455.11,62.67 454.85,65.93 C454.21,73.88 448.07,80.35 441.3,84.56 C437.14,87.15 432.56,89.21 429.1,92.68 C425.64,96.15 423.55,101.63 425.73,106.01 C426.89,108.33 429.16,110.27 429.17,112.87 C429.104033,114.022722 428.782975,115.146423 428.23,116.16 C425.861909,121.196928 422.633546,125.782286 418.69,129.71 C415.15,133.23 410.92,136.39 409.08,141.04 C407.31,145.51 408.08,150.61 409.71,155.14 C410.47,157.3 411.42,159.46 411.46,161.74 C411.57,167.29 406.46,171.55 401.31,173.63 C398.06,174.94 394.31,175.94 392.36,178.83 C390.41,181.72 390.85,185.92 392.84,188.83 C394.83,191.74 398.04,193.69 401.34,195.02 C407.466099,197.600349 414.25684,198.15398 420.72,196.6 C427.202798,194.980436 432.70289,190.703798 435.87,184.82 C438.87,178.98 439.07,171.82 443.23,166.72 C450.56,157.81 466.02,160.06 473.67,151.41 C479.81,144.46 478.14,133.93 477.67,124.67 C477.398389,119.511325 477.612667,114.338537 478.31,109.22 C478.81,105.58 479.73,101.67 482.59,99.37 C484.9,97.51 488.02,97.09 490.96,96.73 C497.1,95.96 504.17,94.47 506.96,88.94 C508.12,86.64 508.47,83.74 510.56,82.24 C513.45,80.16 517.5,82.24 520.02,84.74 C522.8,87.51 525.13,90.92 529.36,90.23 C532.95,89.67 536.79,87.78 538.66,84.52 Z" id="Path" fill="#000000" fill-rule="nonzero" opacity="0.1"></path>
            <path d="M537.58,83.44 C539.602511,79.7807877 539.30151,75.2774939 536.81,71.92 C533.45,67.55 527.38,66.55 522.59,63.81 C518.24,61.32 514.95,57.35 510.91,54.39 C503.27,48.78 493.53,47.08 484.18,45.55 C480.18,44.89 476.1,44.23 472.08,44.78 C466.99,45.47 462.31,48.06 458.32,51.29 C456.90428,52.3259473 455.722066,53.6478463 454.85,55.17 C453.37,58.09 454.02,61.59 453.76,64.85 C453.12,72.8 446.98,79.27 440.21,83.48 C436.05,86.07 431.47,88.13 428.01,91.6 C424.55,95.07 422.46,100.55 424.64,104.93 C425.8,107.25 428.07,109.19 428.08,111.79 C428.014033,112.942722 427.692975,114.066423 427.14,115.08 C424.771909,120.116928 421.543546,124.702286 417.6,128.63 C414.06,132.15 409.83,135.31 407.99,139.96 C406.22,144.43 406.99,149.53 408.62,154.06 C409.38,156.22 410.33,158.38 410.37,160.66 C410.48,166.21 405.37,170.47 400.22,172.55 C396.97,173.86 393.22,174.86 391.27,177.75 C389.32,180.64 389.76,184.84 391.75,187.75 C393.74,190.66 396.95,192.61 400.25,193.94 C406.376099,196.520349 413.16684,197.07398 419.63,195.52 C426.112798,193.900436 431.61289,189.623798 434.78,183.74 C437.78,177.9 437.98,170.74 442.14,165.64 C449.47,156.73 464.93,158.98 472.58,150.33 C478.72,143.38 477.05,132.85 476.58,123.59 C476.308389,118.431325 476.522667,113.258537 477.22,108.14 C477.72,104.5 478.64,100.59 481.5,98.29 C483.81,96.43 486.93,96.01 489.87,95.65 C496.01,94.88 503.08,93.39 505.87,87.86 C507.03,85.56 507.38,82.66 509.47,81.16 C512.36,79.08 516.41,81.16 518.93,83.66 C521.71,86.43 524.04,89.84 528.27,89.15 C531.86,88.58 535.71,86.69 537.58,83.44 Z" id="Path" fill="#6E464E" fill-rule="nonzero"></path>
            <path d="M434,202 C434,202 445,211 459,210" id="Path" fill="#000000" fill-rule="nonzero" opacity="0.1"></path>
            <path d="M605.92,353.68 C600.18,359.32 587.5,367.5 587.5,367.5 L572.5,371.5 C572.5,371.5 561.5,339.5 539.5,320.5 C517.5,301.5 505.5,274.5 507.5,267.5 C509.5,260.5 463.5,288.5 463.5,288.5 C463.5,288.5 430.15,309.25 408.11,309.28 C404.816803,309.373341 401.541297,308.766639 398.5,307.5 C390,303.67 386.56,296.96 385.41,290.5 C384.633759,286.060531 384.914686,281.500613 386.23,277.19 C383.326769,282.825215 382.336896,289.252373 383.41,295.5 C384.56,301.96 388,308.67 396.5,312.5 C399.541297,313.766639 402.816803,314.373341 406.11,314.28 C428.11,314.28 461.5,293.5 461.5,293.5 C461.5,293.5 507.5,265.5 505.5,272.5 C503.5,279.5 515.5,306.5 537.5,325.5 C559.5,344.5 570.5,376.5 570.5,376.5 L585.5,372.5 C585.5,372.5 611.39,355.79 605.92,353.68 Z" id="Path" fill="#000000" fill-rule="nonzero" opacity="0.05"></path>
            <path d="M429.5,246.5 L427.8,247.29 C415.390512,252.988844 405.225121,262.647725 398.9,274.75 C385.5,300.83 403.21,312.58 406.11,314.28 C402.816803,314.373341 399.541297,313.766639 396.5,312.5 C388,308.67 384.56,301.96 383.41,295.5 C382.033314,287.231547 384.212296,278.766203 389.41,272.19 C397.030065,262.339062 407.195786,254.756264 418.81,250.26 C422.22,248.94 425.65,247.54 428.62,246.2 L429.5,246.5 Z" id="Path" fill="#000000" fill-rule="nonzero" opacity="0.1"></path>
            <path d="M427.5,246.5 C427.5,246.5 406.5,239.04 392.5,242.77 C392.5,242.77 383.5,250.5 376.5,257.5 C370.8,263.2 356.5,321.5 404.5,314.5 C404.5,314.5 382.34,303.08 396.9,274.75 C403.224508,262.647262 413.390081,252.988208 425.8,247.29 L427.5,246.5 Z" id="Path" fill="#5E52AD" fill-rule="nonzero"></path>
            <path d="M585.5,372.5 L570.5,376.5 C570.5,376.5 570.16,375.5 569.5,373.76 C572.99,372.84 577.5,370.76 577.5,366.5 C577.5,366.5 588.95,355.81 593.85,349.11 C597.28,351.97 600.61,353.72 603.5,353.5 C616.5,352.5 585.5,372.5 585.5,372.5 Z" id="Path" fill="#000000" fill-rule="nonzero" opacity="0.1"></path>
            <path d="M578.5,367.5 C578.5,367.5 593.5,353.5 596.5,347.5 C596.5,347.5 625.5,364.5 653.5,349.5 C653.5,349.5 679.5,347.5 657.5,370.5 C635.5,393.5 576.5,402.5 576.5,402.5 C576.5,402.5 560.5,402.5 566.5,375.5 C566.5,375.5 578.5,374.5 578.5,367.5 Z" id="Path" fill="#FFD97B" fill-rule="nonzero"></path>
            <polygon id="Path" fill="#DFE5EE" fill-rule="nonzero" points="667.76 717.38 667.76 703.75 947.05 625.42 997 619.74 997 632.23 718.85 732.13"></polygon>
            <polygon id="Path" fill="#000000" fill-rule="nonzero" opacity="0.05" points="667.76 717.38 667.76 703.75 947.05 625.42 997 619.74 997 632.23 718.85 732.13"></polygon>
            <polygon id="Path" fill="#DFE5EE" fill-rule="nonzero" points="667.76 703.75 947.05 611.79 995.87 619.74 718.85 718.51"></polygon>
            <rect id="Rectangle" fill="#DFE5EE" fill-rule="nonzero" x="710.9" y="495.99" width="18.17" height="211.17"></rect>
            <rect id="Rectangle" fill="#DFE5EE" fill-rule="nonzero" x="928.88" y="447.17" width="18.17" height="185.06"></rect>
            <polygon id="Path" fill="#DFE5EE" fill-rule="nonzero" points="992.46 389.27 992.46 446.04 765.67 496.7 738.84 502.7 672.3 517.56 653 511.88 653 446.04 755.9 426.42 781.52 421.54 968.62 385.87"></polygon>
            <polygon id="Path" fill="#000000" fill-rule="nonzero" opacity="0.05" points="992.46 389.27 992.46 446.04 765.67 496.7 738.84 502.7 672.3 517.56 653 511.88 653 446.04 755.9 426.42 781.52 421.54 968.62 385.87"></polygon>
            <polygon id="Path" fill="#000000" fill-rule="nonzero" opacity="0.05" points="729.07 495.99 729.07 507.15 710.9 511.21 710.9 495.99"></polygon>
            <polygon id="Path" fill="#000000" fill-rule="nonzero" opacity="0.05" points="947.05 447.17 947.05 458.46 928.88 462.51 928.88 447.17"></polygon>
            <polygon id="Path" fill="#DFE5EE" fill-rule="nonzero" points="992.46 389.27 992.46 446.04 900.38 466.61 873.6 472.59 765.67 496.7 738.84 502.7 672.3 517.56 673.44 452.85 765.91 434.42 791.78 429.27 791.79 429.27 897.5 408.2 923.32 403.05"></polygon>
            <polygon id="Path" fill="#00B0FF" fill-rule="nonzero" points="791.79 429.27 765.67 496.7 738.84 502.7 765.91 434.42 755.9 426.42 781.52 421.54 791.78 429.27"></polygon>
            <polygon id="Path" fill="#00B0FF" fill-rule="nonzero" points="924.62 404.03 900.38 466.61 873.6 472.59 898.74 409.18 897.5 408.2 888.74 401.18 914.35 396.3 923.32 403.05 924.61 404.03"></polygon>
            <polygon id="Path" fill="#000000" fill-rule="nonzero" opacity="0.05" points="714.88 703.47 733.04 699.21 733.04 703.47 714.88 707.73"></polygon>
            <polygon id="Path" fill="#000000" fill-rule="nonzero" opacity="0.05" points="931.72 628.54 949.88 624.28 949.88 628.54 931.72 632.79"></polygon>
        </g>
    </g>
</svg>