<?xml version="1.0" encoding="UTF-8"?>
<svg width="985px" height="783px" viewBox="0 0 985 783" version="1.1" xmlns="http://www.w3.org/2000/svg" xmlns:xlink="http://www.w3.org/1999/xlink">
    <!-- Generator: Sketch 64 (93537) - https://sketch.com -->
    <title>cover</title>
    <desc>Created with Sketch.</desc>
    <g id="Page-1" stroke="none" stroke-width="1" fill="none" fill-rule="evenodd">
        <g id="cover" transform="translate(-1.000000, 0.000000)">
            <path d="M985.7163,357.91491 C985.7163,403.88491 972.4863,447.45491 948.8163,486.45491 C944.7263,493.20491 940.326317,499.811577 935.61635,506.27491 C915.57635,533.81491 890.11635,558.66491 860.36635,579.96491 C858.54635,581.26491 856.713017,582.551577 854.86635,583.82491 C854.16635,584.30491 853.47635,584.78491 852.77635,585.26491 C849.86635,587.23491 846.923017,589.17491 843.94635,591.08491 C843.00635,591.68491 842.06635,592.27491 841.12635,592.86491 C840.32635,593.37491 839.51635,593.87491 838.70635,594.37491 C830.03635,599.73495 821.069683,604.80495 811.80635,609.58491 C810.79635,610.10491 809.77635,610.62491 808.75635,611.14491 C807.87635,611.58491 806.99635,612.03491 806.10635,612.47491 C805.48635,612.78491 804.85635,613.09491 804.23635,613.39491 C803.19635,613.91491 802.14635,614.42491 801.09635,614.92491 C798.36635,616.23491 795.61635,617.518243 792.84635,618.77491 C791.57635,619.35491 790.29635,619.93491 789.00635,620.49491 C788.995342,620.505462 788.981397,620.512435 788.96635,620.51491 C787.68635,621.08491 786.40635,621.64491 785.11635,622.19491 C783.93629,622.70491 782.74635,623.21491 781.55635,623.70491 C777.97635,625.21491 774.36635,626.67491 770.72635,628.08491 C769.97635,628.38491 769.21635,628.67491 768.45635,628.96491 C767.40635,629.36491 766.36635,629.76491 765.30635,630.15491 C763.95635,630.65491 762.61635,631.15491 761.26635,631.64491 C760.00635,632.10491 758.74635,632.55491 757.47635,633.00491 L757.20635,633.09491 C755.93635,633.54491 754.66635,633.98491 753.38635,634.41491 C746.80639,636.67491 740.129723,638.788243 733.35635,640.75491 C732.50635,641.00491 731.65635,641.24491 730.80635,641.48491 C730.42635,641.60491 730.03635,641.71491 729.64635,641.81491 C728.65635,642.09491 727.66635,642.37491 726.66635,642.64491 C725.44635,642.99491 724.21635,643.32491 722.97635,643.64491 C719.52635,644.56491 716.059683,645.44491 712.57635,646.28491 C711.39635,646.57491 710.22635,646.85491 709.04635,647.12491 C709.025104,647.137436 709.001007,647.144321 708.97635,647.14491 C707.79635,647.41491 706.61635,647.68491 705.43635,647.95491 C703.78635,648.33491 702.11641,648.70491 700.44635,649.04491 C698.51635,649.46491 696.57635,649.86491 694.62635,650.26491 C693.41635,650.50491 692.20635,650.74491 690.99635,650.97491 C689.78635,651.21491 688.5663,651.44491 687.35635,651.66491 C681.26635,652.79491 675.12635,653.811577 668.93635,654.71491 C666.63635,655.04491 664.33635,655.36491 662.01635,655.67491 C660.59635,655.86491 659.16635,656.04491 657.73635,656.21491 C656.48635,656.36491 655.22635,656.51491 653.97635,656.65491 C652.72635,656.80491 651.47635,656.93491 650.21635,657.07491 L650.20635,657.07491 C650.08635,657.09491 649.96635,657.10491 649.84635,657.11491 C647.79635,657.33491 645.73635,657.53491 643.67635,657.73491 C642.46635,657.85491 641.25635,657.95491 640.03635,658.05491 C638.94635,658.15491 637.84635,658.24485 636.74635,658.32491 C633.45631,658.59491 630.15631,658.82491 626.84635,659.01491 C625.77635,659.08491 624.70635,659.14491 623.63635,659.19491 C621.35635,659.32491 619.07635,659.42496 616.78635,659.51491 C615.83635,659.55491 614.87635,659.59491 613.92635,659.62491 C611.36635,659.71491 608.79635,659.77491 606.22635,659.82491 C604.77635,659.85491 603.32635,659.87491 601.87635,659.88491 C600.15635,659.90491 598.43635,659.91491 596.71635,659.91491 C513.50635,659.91491 417.86635,631.41491 339.08635,589.98491 C319.282936,579.629827 300.12456,568.085378 281.71635,555.41491 C271.05635,548.04491 260.99635,540.46491 251.65635,532.70491 C182.04635,475.00491 151.91635,408.51491 207.71635,357.91491 C214.91635,351.38491 222.673017,344.588243 230.98635,337.52491 C237.27635,332.17491 243.843017,326.688243 250.68635,321.06491 C348.15635,241.00491 497.5464,135.98491 596.71635,55.91491 C763.87628,-79.04512 985.7163,191.12487 985.7163,357.91491 Z" id="Path" fill="#00B0FF" fill-rule="nonzero"></path>
            <path d="M628.7163,510.41491 L587.6863,515.73491 L585.5963,516.00491 L530.9863,523.08491 L281.7163,555.41491 C271.0563,548.04491 260.9963,540.46491 251.6563,532.70491 L536.9163,515.84491 L586.2563,512.92491 L588.3263,512.80491 L628.7163,510.41491 Z" id="Path" fill="#F2F2F2" fill-rule="nonzero"></path>
            <path d="M447.7163,309.41491 L230.9863,337.52491 C237.2763,332.17491 243.842967,326.688243 250.6863,321.06491 L447.7163,309.41491 Z" id="Path" fill="#F2F2F2" fill-rule="nonzero"></path>
            <path d="M948.81628,486.45488 C944.72628,493.20488 940.326297,499.811547 935.61633,506.27488 L747.31628,481.85488 L643.71628,468.41488 L745.62628,474.44488 L948.81628,486.45488 Z" id="Path" fill="#F2F2F2" fill-rule="nonzero"></path>
            <path d="M860.36633,579.96489 C791.05633,629.60489 698.44628,659.91489 596.71633,659.91489 C513.50633,659.91489 417.86633,631.41489 339.08633,589.98489 C345.31633,573.83489 353.99633,560.74489 366.06633,554.11489 C366.36633,553.94489 366.67633,553.77489 366.98633,553.62489 C372.141129,550.975623 377.831855,549.535842 383.62633,549.41489 C454.62633,547.41489 446.62633,627.41489 535.62633,517.41489 C590.97633,449.00489 653.67633,425.46489 696.53633,433.07489 C697.32633,433.21489 698.10633,433.36489 698.88633,433.52489 C723.72633,438.68489 741.49633,454.58489 746.62633,478.41489 C760.62633,543.41489 719.62633,595.41489 794.62633,579.41489 C816.327276,574.899224 838.743975,575.086769 860.36633,579.96489 Z" id="Path" fill="#3F3D56" fill-rule="nonzero"></path>
            <path d="M650.10651,657.26184 C615.22663,637.8175 593.51276,611.27063 585.56745,578.35949 C579.66804,553.92395 581.36335,526.42688 590.60554,496.63196 C597.456966,474.664595 607.72945,453.914987 621.04454,435.14758 C691.68268,335.16129 698.05815,270.00988 690.96784,232.96106 C683.19391,192.33801 657.93659,175.46692 657.6822,175.30139 L658.77253,173.62463 C659.03327,173.79406 684.95612,191.05725 692.91706,232.50451 C697.50641,256.39904 695.34723,283.64514 686.49958,313.48551 C675.48786,350.62321 654.0152,391.94451 622.67829,436.30192 C609.484555,454.897653 599.305368,475.457389 592.51569,497.22379 C577.35749,546.09098 575.21296,613.22086 651.08014,655.51579 L650.10651,657.26184 Z" id="Path" fill="#D0CDE1" fill-rule="nonzero"></path>
            <path d="M588.40241,468.12029 C560.90436,452.79216 561.66999,428.49919 567.15436,410.81951 C569.586002,403.021698 573.232191,395.656155 577.95856,388.99431 C602.70514,353.96599 604.94147,331.21111 602.46003,318.29021 C599.76472,304.25945 591.11872,298.49921 591.03181,298.44255 L592.12165,296.76579 C592.50593,297.01531 601.56989,303.05437 604.42389,317.91326 C608.1402,337.2614 599.78571,361.56462 579.59235,390.14861 C574.986936,396.638544 571.434002,403.814275 569.06452,411.41129 C563.79938,428.38492 563.04938,451.6984 589.37604,466.37418 L588.40241,468.12029 Z" id="Path" fill="#D0CDE1" fill-rule="nonzero"></path>
            <path d="M712.11921,254.12121 L711.14557,252.37414 C737.47223,237.69787 736.72223,214.3844 731.4571,197.41174 C729.08762,189.814569 725.534688,182.638672 720.92927,176.14856 C700.73591,147.56506 692.38141,123.26135 696.09772,103.91321 C698.95172,89.05432 708.01572,83.01526 708.39997,82.76574 L709.49128,84.44153 C709.40388,84.49914 700.71393,90.33508 698.04645,104.36926 C695.59235,117.28283 697.85309,140.01819 722.56306,174.99426 C727.289239,181.65604 730.935412,189.021391 733.36725,196.81897 C738.85163,214.49865 739.61725,238.79162 712.11921,254.12121 Z" id="Path" fill="#D0CDE1" fill-rule="nonzero"></path>
            <path d="M770.8296,154.61829 C761.776474,168.494801 743.188331,172.404926 729.31182,163.3518 C715.435309,154.298674 711.525184,135.710531 720.57831,121.83402 C729.63144,107.95751 775.2098,93.00002 775.2098,93.00002 C775.2098,93.00002 779.88272,140.74178 770.8296,154.61829 Z" id="Path" fill="#3F3D56" fill-rule="nonzero"></path>
            <path d="M759.8296,61.61829 C750.776474,75.4948006 732.188331,79.4049262 718.31182,70.3518 C704.435309,61.2986738 700.525184,42.7105306 709.57831,28.83402 C718.63144,14.95751 764.2098,2e-05 764.2098,2e-05 C764.2098,2e-05 768.88272,47.74178 759.8296,61.61829 Z" id="Path" fill="#3F3D56" fill-rule="nonzero"></path>
            <path d="M758.4063,343.13488 C756.4863,342.68488 711.1963,332.15488 696.0963,339.34488 C683.006025,345.578256 675.98454,360.0521 679.19163,374.191578 C682.39872,388.331057 694.97769,398.359163 709.4763,398.334924 C711.730114,398.336506 713.977165,398.088325 716.1763,397.59488 C718.447676,397.086854 720.654834,396.325419 722.7563,395.32488 C737.8563,388.12488 758.2163,346.32488 759.0763,344.54488 L759.6263,343.42488 L758.4063,343.13488 Z M721.8963,393.51488 C707.437485,400.401871 690.133291,394.263695 683.2463,379.80488 C676.359309,365.346065 682.497485,348.041871 696.9563,341.15488 C700.4763,339.47488 705.8563,338.84488 711.9963,338.84488 C728.7963,338.84488 751.2563,343.59488 756.7163,344.80488 C753.30633,351.64489 735.03631,387.25487 721.8963,393.51488 L721.8963,393.51488 Z" id="Shape" fill="#D0CDE1" fill-rule="nonzero"></path>
            <path d="M622.11376,173.24679 C614.390587,173.259209 606.943174,170.376789 601.24076,165.16814 C588.88041,153.89763 581.54349,107.98162 581.23685,106.0324 L581.04349,104.79998 L582.28861,104.87908 C584.25736,105.00457 630.65482,108.08367 643.01517,119.35418 L643.01517,119.35418 C652.478895,127.975524 655.666467,141.529169 651.037391,153.464886 C646.408315,165.400602 634.915733,173.260784 622.1138,173.24679 L622.11376,173.24679 Z M583.41943,106.96599 C584.69872,114.49529 591.83543,153.88591 602.58837,163.6906 C614.424602,174.473319 632.759814,173.623424 643.547809,161.792001 C654.335803,149.960578 653.494083,131.624988 641.66747,120.83172 L641.66747,120.83172 C630.91454,111.028 591.03466,107.54705 583.41943,106.96599 Z" id="Shape" fill="#D0CDE1" fill-rule="nonzero"></path>
            <path d="M580.34129,245.09309 C592.573518,256.258939 593.443121,275.224985 582.283987,287.463339 C571.124853,299.701694 552.159287,300.581705 539.91481,289.42929 C527.6717,278.26582 520.22547,230.87735 520.22547,230.87735 C520.22547,230.87735 568.09815,233.92963 580.34129,245.09309 Z" id="Path" fill="#3F3D56" fill-rule="nonzero"></path>
            <path d="M672.28631,246.19487 C670.579137,238.33509 663.639289,232.717514 655.59631,232.68487 C654.365652,232.689362 653.138887,232.823435 651.93631,233.08487 C642.99637,235.02487 627.10631,254.49487 626.43631,255.31487 L625.64631,256.28487 L626.76631,256.84487 C627.64631,257.28487 646.78631,266.76487 656.80631,266.76487 C657.605607,266.774506 658.40359,266.697388 659.18625,266.53487 C668.417281,264.531025 674.280045,255.428077 672.28625,246.19487 L672.28631,246.19487 Z M668.26631,257.99487 C666.108666,261.378308 662.681972,263.752851 658.75631,264.58487 C651.57631,266.14487 633.51631,257.85487 628.79631,255.60487 C632.15631,251.60487 645.17631,236.59487 652.36631,235.03487 C658.341754,233.741354 664.507926,236.175409 667.988672,241.201693 C671.469417,246.227976 671.579001,252.856272 668.26631,257.99487 L668.26631,257.99487 Z" id="Shape" fill="#D0CDE1" fill-rule="nonzero"></path>
            <ellipse id="Oval" fill="#3F3D56" fill-rule="nonzero" cx="430.21631" cy="715.77222" rx="417.5" ry="9.69734"></ellipse>
            <ellipse id="Oval" fill="#3F3D56" fill-rule="nonzero" cx="430.21631" cy="747.84803" rx="289.03846" ry="6.71354"></ellipse>
            <ellipse id="Oval" fill="#3F3D56" fill-rule="nonzero" cx="430.34837" cy="776.94004" rx="235.78148" ry="5.47653"></ellipse>
            <circle id="Oval" fill="#D0CDE1" fill-rule="nonzero" cx="181.71657" cy="422.07514" r="5"></circle>
            <text id="正心-follow-our-hearts" fill="#000000" font-family="STFangsong" font-size="30" font-weight="normal">
                <tspan x="0.405" y="85">正心 follow our hearts</tspan>
            </text>
            <text id="修身improve-ouselves" fill="#000000" font-family="STFangsong" font-size="30" font-weight="normal">
                <tspan x="0.225" y="132">修身improve ouselves</tspan>
            </text>
            <text id="齐家-nurture-a-communi" fill="#000000" font-family="STFangsong" font-size="30" font-weight="normal">
                <tspan x="0.36" y="177">齐家 nurture a community</tspan>
            </text>
            <text id="治国-guide-a-nation" fill="#000000" font-family="STFangsong" font-size="30" font-weight="normal">
                <tspan x="0.225" y="224">治国 guide a nation</tspan>
            </text>
            <text id="平天下-prosper-the-worl" fill="#000000" font-family="STFangsong" font-size="30" font-weight="normal">
                <tspan x="0.425" y="269">平天下 prosper the world</tspan>
            </text>
        </g>
    </g>
</svg>