<?xml version="1.0" encoding="UTF-8"?>
<svg width="1500px" height="926px" viewBox="0 0 1500 926" version="1.1" xmlns="http://www.w3.org/2000/svg" xmlns:xlink="http://www.w3.org/1999/xlink">
    <title>a-roadmap-of-learning</title>
    <g id="a-roadmap-of-learning" stroke="none" stroke-width="1" fill="none" fill-rule="evenodd">
        <g id="cover" transform="translate(270.000000, 71.000000)" fill-rule="nonzero">
            <path d="M973.7163,357.91491 C973.7163,403.88491 960.4863,447.45491 936.8163,486.45491 C932.7263,493.20491 928.326317,499.811577 923.61635,506.27491 C903.57635,533.81491 878.11635,558.66491 848.36635,579.96491 C846.54635,581.26491 844.713017,582.551577 842.86635,583.82491 C842.16635,584.30491 841.47635,584.78491 840.77635,585.26491 C837.86635,587.23491 834.923017,589.17491 831.94635,591.08491 C831.00635,591.68491 830.06635,592.27491 829.12635,592.86491 C828.32635,593.37491 827.51635,593.87491 826.70635,594.37491 C818.03635,599.73495 809.069683,604.80495 799.80635,609.58491 C798.79635,610.10491 797.77635,610.62491 796.75635,611.14491 C795.87635,611.58491 794.99635,612.03491 794.10635,612.47491 C793.48635,612.78491 792.85635,613.09491 792.23635,613.39491 C791.19635,613.91491 790.14635,614.42491 789.09635,614.92491 C786.36635,616.23491 783.61635,617.518243 780.84635,618.77491 C779.57635,619.35491 778.29635,619.93491 777.00635,620.49491 C776.995342,620.505462 776.981397,620.512435 776.96635,620.51491 C775.68635,621.08491 774.40635,621.64491 773.11635,622.19491 C771.93629,622.70491 770.74635,623.21491 769.55635,623.70491 C765.97635,625.21491 762.36635,626.67491 758.72635,628.08491 C757.97635,628.38491 757.21635,628.67491 756.45635,628.96491 C755.40635,629.36491 754.36635,629.76491 753.30635,630.15491 C751.95635,630.65491 750.61635,631.15491 749.26635,631.64491 C748.00635,632.10491 746.74635,632.55491 745.47635,633.00491 L745.20635,633.09491 C743.93635,633.54491 742.66635,633.98491 741.38635,634.41491 C734.80639,636.67491 728.129723,638.788243 721.35635,640.75491 C720.50635,641.00491 719.65635,641.24491 718.80635,641.48491 C718.42635,641.60491 718.03635,641.71491 717.64635,641.81491 C716.65635,642.09491 715.66635,642.37491 714.66635,642.64491 C713.44635,642.99491 712.21635,643.32491 710.97635,643.64491 C707.52635,644.56491 704.059683,645.44491 700.57635,646.28491 C699.39635,646.57491 698.22635,646.85491 697.04635,647.12491 C697.025104,647.137436 697.001007,647.144321 696.97635,647.14491 C695.79635,647.41491 694.61635,647.68491 693.43635,647.95491 C691.78635,648.33491 690.11641,648.70491 688.44635,649.04491 C686.51635,649.46491 684.57635,649.86491 682.62635,650.26491 C681.41635,650.50491 680.20635,650.74491 678.99635,650.97491 C677.78635,651.21491 676.5663,651.44491 675.35635,651.66491 C669.26635,652.79491 663.12635,653.811577 656.93635,654.71491 C654.63635,655.04491 652.33635,655.36491 650.01635,655.67491 C648.59635,655.86491 647.16635,656.04491 645.73635,656.21491 C644.48635,656.36491 643.22635,656.51491 641.97635,656.65491 C640.72635,656.80491 639.47635,656.93491 638.21635,657.07491 L638.20635,657.07491 C638.08635,657.09491 637.96635,657.10491 637.84635,657.11491 C635.79635,657.33491 633.73635,657.53491 631.67635,657.73491 C630.46635,657.85491 629.25635,657.95491 628.03635,658.05491 C626.94635,658.15491 625.84635,658.24485 624.74635,658.32491 C621.45631,658.59491 618.15631,658.82491 614.84635,659.01491 C613.77635,659.08491 612.70635,659.14491 611.63635,659.19491 C609.35635,659.32491 607.07635,659.42496 604.78635,659.51491 C603.83635,659.55491 602.87635,659.59491 601.92635,659.62491 C599.36635,659.71491 596.79635,659.77491 594.22635,659.82491 C592.77635,659.85491 591.32635,659.87491 589.87635,659.88491 C588.15635,659.90491 586.43635,659.91491 584.71635,659.91491 C501.50635,659.91491 405.86635,631.41491 327.08635,589.98491 C307.282936,579.629827 288.12456,568.085378 269.71635,555.41491 C259.05635,548.04491 248.99635,540.46491 239.65635,532.70491 C170.04635,475.00491 139.91635,408.51491 195.71635,357.91491 C202.91635,351.38491 210.673017,344.588243 218.98635,337.52491 C225.27635,332.17491 231.843017,326.688243 238.68635,321.06491 C336.15635,241.00491 485.5464,135.98491 584.71635,55.91491 C751.87628,-79.04512 973.7163,191.12487 973.7163,357.91491 Z" id="Path" fill="#00B0FF"></path>
            <path d="M616.7163,510.41491 L575.6863,515.73491 L573.5963,516.00491 L518.9863,523.08491 L269.7163,555.41491 C259.0563,548.04491 248.9963,540.46491 239.6563,532.70491 L524.9163,515.84491 L574.2563,512.92491 L576.3263,512.80491 L616.7163,510.41491 Z" id="Path" fill="#F2F2F2"></path>
            <path d="M435.7163,309.41491 L218.9863,337.52491 C225.2763,332.17491 231.842967,326.688243 238.6863,321.06491 L435.7163,309.41491 Z" id="Path" fill="#F2F2F2"></path>
            <path d="M936.81628,486.45488 C932.72628,493.20488 928.326297,499.811547 923.61633,506.27488 L735.31628,481.85488 L631.71628,468.41488 L733.62628,474.44488 L936.81628,486.45488 Z" id="Path" fill="#F2F2F2"></path>
            <path d="M848.36633,579.96489 C779.05633,629.60489 686.44628,659.91489 584.71633,659.91489 C501.50633,659.91489 405.86633,631.41489 327.08633,589.98489 C333.31633,573.83489 341.99633,560.74489 354.06633,554.11489 C354.36633,553.94489 354.67633,553.77489 354.98633,553.62489 C360.141129,550.975623 365.831855,549.535842 371.62633,549.41489 C442.62633,547.41489 434.62633,627.41489 523.62633,517.41489 C578.97633,449.00489 641.67633,425.46489 684.53633,433.07489 C685.32633,433.21489 686.10633,433.36489 686.88633,433.52489 C711.72633,438.68489 729.49633,454.58489 734.62633,478.41489 C748.62633,543.41489 707.62633,595.41489 782.62633,579.41489 C804.327276,574.899224 826.743975,575.086769 848.36633,579.96489 Z" id="Path" fill="#3F3D56"></path>
            <path d="M638.10651,657.26184 C603.22663,637.8175 581.51276,611.27063 573.56745,578.35949 C567.66804,553.92395 569.36335,526.42688 578.60554,496.63196 C585.456966,474.664595 595.72945,453.914987 609.04454,435.14758 C679.68268,335.16129 686.05815,270.00988 678.96784,232.96106 C671.19391,192.33801 645.93659,175.46692 645.6822,175.30139 L646.77253,173.62463 C647.03327,173.79406 672.95612,191.05725 680.91706,232.50451 C685.50641,256.39904 683.34723,283.64514 674.49958,313.48551 C663.48786,350.62321 642.0152,391.94451 610.67829,436.30192 C597.484555,454.897653 587.305368,475.457389 580.51569,497.22379 C565.35749,546.09098 563.21296,613.22086 639.08014,655.51579 L638.10651,657.26184 Z" id="Path" fill="#D0CDE1"></path>
            <path d="M576.40241,468.12029 C548.90436,452.79216 549.66999,428.49919 555.15436,410.81951 C557.586002,403.021698 561.232191,395.656155 565.95856,388.99431 C590.70514,353.96599 592.94147,331.21111 590.46003,318.29021 C587.76472,304.25945 579.11872,298.49921 579.03181,298.44255 L580.12165,296.76579 C580.50593,297.01531 589.56989,303.05437 592.42389,317.91326 C596.1402,337.2614 587.78571,361.56462 567.59235,390.14861 C562.986936,396.638544 559.434002,403.814275 557.06452,411.41129 C551.79938,428.38492 551.04938,451.6984 577.37604,466.37418 L576.40241,468.12029 Z" id="Path" fill="#D0CDE1"></path>
            <path d="M700.11921,254.12121 L699.14557,252.37414 C725.47223,237.69787 724.72223,214.3844 719.4571,197.41174 C717.08762,189.814569 713.534688,182.638672 708.92927,176.14856 C688.73591,147.56506 680.38141,123.26135 684.09772,103.91321 C686.95172,89.05432 696.01572,83.01526 696.39997,82.76574 L697.49128,84.44153 C697.40388,84.49914 688.71393,90.33508 686.04645,104.36926 C683.59235,117.28283 685.85309,140.01819 710.56306,174.99426 C715.289239,181.65604 718.935412,189.021391 721.36725,196.81897 C726.85163,214.49865 727.61725,238.79162 700.11921,254.12121 Z" id="Path" fill="#D0CDE1"></path>
            <path d="M758.8296,154.61829 C749.776474,168.494801 731.188331,172.404926 717.31182,163.3518 C703.435309,154.298674 699.525184,135.710531 708.57831,121.83402 C717.63144,107.95751 763.2098,93.00002 763.2098,93.00002 C763.2098,93.00002 767.88272,140.74178 758.8296,154.61829 Z" id="Path" fill="#3F3D56"></path>
            <path d="M747.8296,61.61829 C738.776474,75.4948006 720.188331,79.4049262 706.31182,70.3518 C692.435309,61.2986738 688.525184,42.7105306 697.57831,28.83402 C706.63144,14.95751 752.2098,1.99999999e-05 752.2098,1.99999999e-05 C752.2098,1.99999999e-05 756.88272,47.74178 747.8296,61.61829 Z" id="Path" fill="#3F3D56"></path>
            <path d="M746.4063,343.13488 C744.4863,342.68488 699.1963,332.15488 684.0963,339.34488 C671.006025,345.578256 663.98454,360.0521 667.19163,374.191578 C670.39872,388.331057 682.97769,398.359163 697.4763,398.334968 C699.730114,398.336506 701.977165,398.088325 704.1763,397.59488 C706.447676,397.086854 708.654834,396.325419 710.7563,395.32488 C725.8563,388.12488 746.2163,346.32488 747.0763,344.54488 L747.6263,343.42488 L746.4063,343.13488 Z M709.8963,393.51488 C695.437485,400.401871 678.133291,394.263695 671.2463,379.80488 C664.359309,365.346065 670.497485,348.041871 684.9563,341.15488 C688.4763,339.47488 693.8563,338.84488 699.9963,338.84488 C716.7963,338.84488 739.2563,343.59488 744.7163,344.80488 C741.30633,351.64489 723.03631,387.25487 709.8963,393.51488 L709.8963,393.51488 Z" id="Shape" fill="#D0CDE1"></path>
            <path d="M610.11376,173.24683 C602.390587,173.259209 594.943174,170.376789 589.24076,165.16814 C576.88041,153.89763 569.54349,107.98162 569.23685,106.0324 L569.04349,104.79998 L570.28861,104.87908 C572.25736,105.00457 618.65482,108.08367 631.01517,119.35418 L631.01517,119.35418 C640.478895,127.975524 643.666467,141.529169 639.037391,153.464886 C634.408315,165.400602 622.915733,173.260784 610.1138,173.24683 L610.11376,173.24683 Z M571.41943,106.96599 C572.69872,114.49529 579.83543,153.88591 590.58837,163.6906 C602.424602,174.473319 620.759814,173.623424 631.547809,161.792001 C642.335803,149.960578 641.494083,131.624988 629.66747,120.83172 L629.66747,120.83172 C618.91454,111.028 579.03466,107.54705 571.41943,106.96599 Z" id="Shape" fill="#D0CDE1"></path>
            <path d="M568.34129,245.09309 C580.573518,256.258939 581.443121,275.224985 570.283987,287.463339 C559.124853,299.701694 540.159287,300.581705 527.91481,289.42929 C515.6717,278.26582 508.22547,230.87735 508.22547,230.87735 C508.22547,230.87735 556.09815,233.92963 568.34129,245.09309 Z" id="Path" fill="#3F3D56"></path>
            <path d="M660.28631,246.19487 C658.579137,238.33509 651.639289,232.717514 643.59631,232.68487 C642.365652,232.689362 641.138887,232.823435 639.93631,233.08487 C630.99637,235.02487 615.10631,254.49487 614.43631,255.31487 L613.64631,256.28487 L614.76631,256.84487 C615.64631,257.28487 634.78631,266.76487 644.80631,266.76487 C645.605607,266.774506 646.40359,266.697388 647.18625,266.53487 C656.417281,264.531025 662.280045,255.428077 660.28625,246.19487 L660.28631,246.19487 Z M656.26631,257.99487 C654.108666,261.378308 650.681972,263.752851 646.75631,264.58487 C639.57631,266.14487 621.51631,257.85487 616.79631,255.60487 C620.15631,251.60487 633.17631,236.59487 640.36631,235.03487 C646.341754,233.741354 652.507926,236.175409 655.988672,241.201693 C659.469417,246.227976 659.579001,252.856272 656.26631,257.99487 L656.26631,257.99487 Z" id="Shape" fill="#D0CDE1"></path>
            <ellipse id="Oval" fill="#3F3D56" cx="418.21631" cy="715.77222" rx="417.5" ry="9.69734"></ellipse>
            <ellipse id="Oval" fill="#3F3D56" cx="418.21631" cy="747.84803" rx="289.03846" ry="6.71354"></ellipse>
            <ellipse id="Oval" fill="#3F3D56" cx="418.34837" cy="776.94004" rx="235.78148" ry="5.47653"></ellipse>
            <circle id="Oval" fill="#D0CDE1" cx="169.71657" cy="422.07514" r="5"></circle>
        </g>
        <g id="正心-follow-our-hearts" transform="translate(347.000000, 125.000000)" fill="#000000" font-family="STFangsong" font-size="48" font-weight="normal">
            <text>
                <tspan x="0.405" y="41">正心      follow our hearts</tspan>
            </text>
        </g>
        <g id="修身improve-ouselves" transform="translate(347.000000, 194.000000)" fill="#000000" font-family="STFangsong" font-size="48" font-weight="normal">
            <text id="修身-improve-ouselves">
                <tspan x="0.225" y="41">修身      improve ouselves</tspan>
            </text>
        </g>
        <g id="齐家-nurture-a-communi" transform="translate(347.000000, 255.000000)" fill="#000000" font-family="STFangsong" font-size="48" font-weight="normal">
            <text>
                <tspan x="0.36" y="41">齐家      nurture a community</tspan>
            </text>
        </g>
        <g id="治国-guide-a-nation" transform="translate(347.000000, 314.000000)" fill="#000000" font-family="STFangsong" font-size="48" font-weight="normal">
            <text>
                <tspan x="0.225" y="41">治国      guide a nation</tspan>
            </text>
        </g>
        <g id="平天下-prosper-the-worl" transform="translate(347.000000, 382.000000)" fill="#000000" font-family="STFangsong" font-size="48" font-weight="normal">
            <text>
                <tspan x="0.425" y="41">平天下  prosper the world</tspan>
            </text>
        </g>
    </g>
</svg>