<?xml version="1.0" encoding="UTF-8"?>
<svg width="1500px" height="926px" viewBox="0 0 1500 926" version="1.1" xmlns="http://www.w3.org/2000/svg" xmlns:xlink="http://www.w3.org/1999/xlink">
    <title>on-work-expectations</title>
    <g id="on-work-expectations" stroke="none" stroke-width="1" fill="none" fill-rule="evenodd">
        <g id="cover" transform="translate(362.000000, 254.000000)" fill-rule="nonzero">
            <path d="M732.906945,418 L399.092711,418 C388.001014,417.98742 379.012547,408.975183 379,397.854155 L379,251.145845 C379.012547,240.024817 388.001014,231.01258 399.092711,231 L732.906945,231 C743.998708,231.012556 752.987287,240.024752 753,251.145845 L753,397.854083 C752.987327,408.975205 743.998735,417.987444 732.906945,418 Z" id="Path" fill="#E6E6E6"></path>
            <circle id="Oval" fill="#00B0FF" cx="24.5" cy="34.5" r="24.5"></circle>
            <path d="M32,52 C17.6405965,52 6,40.3594035 6,26 C6,11.6405965 17.6405965,0 32,0 C46.3594035,0 58,11.6405965 58,26 C57.9837692,40.3526751 46.3526751,51.9837692 32,52 Z M32,2.88888889 C19.2360858,2.88888889 8.88888889,13.2360858 8.88888889,26 C8.88888889,38.7639142 19.2360858,49.1111111 32,49.1111111 C44.7639142,49.1111111 55.1111111,38.7639142 55.1111111,26 C55.096584,13.242108 44.757892,2.90341602 32,2.88888889 Z" id="Shape" fill="#3F3D56"></path>
            <circle id="Oval" fill="#E6E6E6" cx="321.5" cy="341.5" r="24.5"></circle>
            <path d="M328,359 C313.640597,359 302,347.359403 302,333 C302,318.640597 313.640597,307 328,307 C342.359403,307 354,318.640597 354,333 C353.983833,347.352701 342.352701,358.983833 328,359 L328,359 Z M328,309.888889 C315.236086,309.888889 304.888889,320.236086 304.888889,333 C304.888889,345.763914 315.236086,356.111111 328,356.111111 C340.763914,356.111111 351.111111,345.763914 351.111111,333 C351.096648,320.242082 340.757918,309.903352 328,309.888889 Z" id="Shape" fill="#3F3D56"></path>
            <circle id="Oval" fill="#00B0FF" cx="510.5" cy="156.5" r="24.5"></circle>
            <path d="M518,174 C503.640597,174 492,162.359403 492,148 C492,133.640597 503.640597,122 518,122 C532.359403,122 544,133.640597 544,148 C543.983833,162.352701 532.352701,173.983833 518,174 L518,174 Z M518,124.888889 C505.236086,124.888889 494.888889,135.236086 494.888889,148 C494.888889,160.763914 505.236086,171.111111 518,171.111111 C530.763914,171.111111 541.111111,160.763914 541.111111,148 C541.096648,135.242082 530.757918,124.903352 518,124.888889 L518,124.888889 Z" id="Shape" fill="#3F3D56"></path>
            <path d="M408.906862,277 L75.0930517,277 C64.0012911,276.987444 55.0127125,267.975248 55,256.854155 L55,110.146549 C55.0124124,99.0252166 64.0010533,90.0126435 75.0930517,90 L408.906948,90 C419.99895,90.0126356 428.987595,99.0252133 429,110.146549 L429,256.854155 C428.987287,267.975282 419.998657,276.987492 408.906862,277 Z" id="Path" fill="#00B0FF"></path>
            <path d="M431.159109,262 L96.8407189,262 C85.3361412,261.98707 76.0130403,252.675117 76,241.184201 L76,94.8157849 C76.0130403,83.324871 85.3361436,74.012922 96.8407189,74 L431.159109,74 C442.663725,74.0128902 451.986896,83.3248301 452,94.8157849 L452,241.184201 C451.986904,252.675161 442.663731,261.98711 431.159109,262 Z M96.8407189,76.8665109 C86.9204576,76.8777502 78.8812745,84.9073037 78.8699188,94.8157849 L78.8699188,241.184201 C78.8812666,251.092688 86.920452,259.12225 96.8407189,259.133489 L431.159109,259.133489 C441.079407,259.122258 449.118646,251.092719 449.130081,241.184201 L449.130081,94.8157849 C449.118639,84.9072726 441.079401,76.8777421 431.159109,76.8665109 L96.8407189,76.8665109 Z" id="Shape" fill="#3F3D56"></path>
            <path d="M755.159083,403 L420.840917,403 C409.336158,402.98677 400.013063,393.674597 400,382.183498 L400,235.815785 C400.013104,224.32483 409.336273,215.01289 420.840888,215 L755.159112,215 C766.663727,215.01289 775.986896,224.32483 776,235.815785 L776,382.183498 C775.986937,393.674597 766.663842,402.98677 755.159083,403 L755.159083,403 Z M420.840917,217.866511 C410.920611,217.877718 402.881353,225.907258 402.869918,235.815785 L402.869918,382.183498 C402.881045,392.092258 410.92035,400.122178 420.840888,400.133489 L755.159112,400.133489 C765.07965,400.122178 773.118955,392.092258 773.130082,382.183498 L773.130082,235.815785 C773.118639,225.907273 765.079403,217.877742 755.159112,217.866511 L420.840917,217.866511 Z" id="Shape" fill="#3F3D56"></path>
        </g>
    </g>
</svg>