<?xml version="1.0" encoding="UTF-8"?>
<svg width="1500px" height="926px" viewBox="0 0 1500 926" version="1.1" xmlns="http://www.w3.org/2000/svg" xmlns:xlink="http://www.w3.org/1999/xlink">
    <title>compound-knowledge</title>
    <g id="compound-knowledge" stroke="none" stroke-width="1" fill="none" fill-rule="evenodd">
        <g id="learning" transform="translate(329.000000, 110.000000)">
            <ellipse id="Oval" fill="#3F3D56" fill-rule="nonzero" cx="407.5" cy="638.5" rx="407.5" ry="21.5"></ellipse>
            <ellipse id="Oval" fill="#3F3D56" fill-rule="nonzero" cx="805.5" cy="675.5" rx="159.5" ry="8.5"></ellipse>
            <ellipse id="Oval" fill="#3F3D56" fill-rule="nonzero" cx="354.5" cy="696.5" rx="159.5" ry="8.5"></ellipse>
            <path d="M125,0 L125,633 L645,633 L645,0 L125,0 Z M152.745267,580.56213 C147.802271,580.56213 143.795181,576.369767 143.795181,571.198225 C143.795181,566.026683 147.802271,561.83432 152.745267,561.83432 C157.688263,561.83432 161.695353,566.026683 161.695353,571.198225 C161.695353,576.369767 157.688263,580.56213 152.745267,580.56213 L152.745267,580.56213 Z M152.745267,534.678994 C147.802271,534.678994 143.795181,530.486631 143.795181,525.315089 C143.795181,520.143547 147.802271,515.951183 152.745267,515.951183 C157.688263,515.951183 161.695353,520.143547 161.695353,525.315089 C161.695353,530.486631 157.688263,534.678994 152.745267,534.678994 Z M152.745267,489.732249 C147.802271,489.732249 143.795181,485.539885 143.795181,480.368343 C143.795181,475.196801 147.802271,471.004438 152.745267,471.004438 C157.688263,471.004438 161.695353,475.196801 161.695353,480.368343 C161.695353,485.539885 157.688263,489.732249 152.745267,489.732249 Z M152.745267,443.849112 C147.802271,443.849112 143.795181,439.656749 143.795181,434.485207 C143.795181,429.313665 147.802271,425.121302 152.745267,425.121302 C157.688263,425.121302 161.695353,429.313665 161.695353,434.485207 C161.695353,439.656749 157.688263,443.849112 152.745267,443.849112 Z M152.745267,397.965976 C147.802271,397.965976 143.795181,393.773613 143.795181,388.602071 C143.795181,383.430529 147.802271,379.238166 152.745267,379.238166 C157.688263,379.238166 161.695353,383.430529 161.695353,388.602071 C161.695353,393.773613 157.688263,397.965976 152.745267,397.965976 L152.745267,397.965976 Z M152.745267,353.019231 C147.802271,353.019231 143.795181,348.826868 143.795181,343.655325 C143.795181,338.483783 147.802271,334.29142 152.745267,334.29142 C157.688263,334.29142 161.695353,338.483783 161.695353,343.655325 C161.695353,348.826868 157.688263,353.019231 152.745267,353.019231 Z M152.745267,307.136095 C147.802271,307.136095 143.795181,302.943731 143.795181,297.772189 C143.795181,292.600647 147.802271,288.408284 152.745267,288.408284 C157.688263,288.408284 161.695353,292.600647 161.695353,297.772189 C161.695353,302.943731 157.688263,307.136095 152.745267,307.136095 Z M152.745267,261.252959 C147.802271,261.252959 143.795181,257.060595 143.795181,251.889053 C143.795181,246.717511 147.802271,242.525148 152.745267,242.525148 C157.688263,242.525148 161.695353,246.717511 161.695353,251.889053 C161.695353,257.060595 157.688263,261.252959 152.745267,261.252959 L152.745267,261.252959 Z M152.745267,216.306213 C147.802271,216.306213 143.795181,212.11385 143.795181,206.942308 C143.795181,201.770766 147.802271,197.578402 152.745267,197.578402 C157.688263,197.578402 161.695353,201.770766 161.695353,206.942308 C161.695353,212.11385 157.688263,216.306213 152.745267,216.306213 Z M152.745267,170.423077 C147.802271,170.423077 143.795181,166.230714 143.795181,161.059172 C143.795181,155.887629 147.802271,151.695266 152.745267,151.695266 C157.688263,151.695266 161.695353,155.887629 161.695353,161.059172 C161.695353,166.230714 157.688263,170.423077 152.745267,170.423077 Z M152.745267,124.539941 C147.802271,124.539941 143.795181,120.347578 143.795181,115.176036 C143.795181,110.004493 147.802271,105.81213 152.745267,105.81213 C157.688263,105.81213 161.695353,110.004493 161.695353,115.176036 C161.695353,120.347578 157.688263,124.539941 152.745267,124.539941 L152.745267,124.539941 Z M152.745267,80.5295858 C147.802271,80.5295858 143.795181,76.3372226 143.795181,71.1656805 C143.795181,65.9941384 147.802271,61.8017751 152.745267,61.8017751 C157.688263,61.8017751 161.695353,65.9941384 161.695353,71.1656805 C161.695353,76.3372226 157.688263,80.5295858 152.745267,80.5295858 Z" id="Shape" fill="#F2F2F2" fill-rule="nonzero"></path>
            <polygon id="Path" fill="#3F3D56" fill-rule="nonzero" opacity="0.3" points="645 48.0724172 645 46.1996361 186.537212 46.1996361 186.537212 0 184.747194 0 184.747194 46.1996361 125 46.1996361 125 48.0724172 184.747194 48.0724172 184.747194 91.7662722 125 91.7662722 125 93.6390533 184.747194 93.6390533 184.747194 137.332908 125 137.332908 125 139.205689 184.747194 139.205689 184.747194 182.898608 125 182.898608 125 184.771389 184.747194 184.771389 184.747194 228.464308 125 228.464308 125 230.337089 184.747194 230.337089 184.747194 274.030944 125 274.030944 125 275.903725 184.747194 275.903725 184.747194 319.596643 125 319.596643 125 321.469425 184.747194 321.469425 184.747194 365.16328 125 365.16328 125 367.036061 184.747194 367.036061 184.747194 410.728979 125 410.728979 125 412.60176 184.747194 412.60176 184.747194 456.294679 125 456.294679 125 458.16746 184.747194 458.16746 184.747194 501.861315 125 501.861315 125 503.734096 184.747194 503.734096 184.747194 547.427015 125 547.427015 125 549.299796 184.747194 549.299796 184.747194 592.992714 125 592.992714 125 594.865496 184.747194 594.865496 184.747194 633 186.537212 633 186.537212 594.865496 645 594.865496 645 592.992714 186.537212 592.992714 186.537212 549.299796 645 549.299796 645 547.427015 186.537212 547.427015 186.537212 503.734096 645 503.734096 645 501.861315 186.537212 501.861315 186.537212 458.16746 645 458.16746 645 456.294679 186.537212 456.294679 186.537212 412.60176 645 412.60176 645 410.728979 186.537212 410.728979 186.537212 367.036061 645 367.036061 645 365.16328 186.537212 365.16328 186.537212 321.469425 645 321.469425 645 319.596643 186.537212 319.596643 186.537212 275.903725 645 275.903725 645 274.030944 186.537212 274.030944 186.537212 230.337089 645 230.337089 645 228.464308 186.537212 228.464308 186.537212 184.771389 645 184.771389 645 182.898608 186.537212 182.898608 186.537212 139.205689 645 139.205689 645 137.332908 186.537212 137.332908 186.537212 93.6390533 645 93.6390533 645 91.7662722 186.537212 91.7662722 186.537212 48.0724172"></polygon>
            <path d="M241.025058,162.653295 C235.645624,166.938656 229.865996,170.664461 223.771121,173.775951 C219.832256,175.78638 215.461978,177.575891 211.141793,176.732691 C206.821609,175.889491 202.942551,171.349068 204.261775,167.035013 C205.192938,164.471859 207.381678,162.613301 210.005118,162.15808 C212.598597,161.74741 215.252239,162.141198 217.627047,163.289138 C221.975545,165.205044 225.604524,168.516609 227.971735,172.729011 C229.17884,174.890901 230.124873,177.369962 232.129218,178.771993 C233.744378,179.715379 235.553106,180.253705 237.408524,180.343258 C241.774876,180.904598 246.255465,181.460342 250.533053,180.398751 C254.810641,179.33716 258.908868,176.293445 260,171.909254" id="Path" stroke="#3F3D56" stroke-width="2"></path>
            <path d="M274.556878,141 C274.900003,154.667051 274.714377,168.333718 274,182 L283.415606,180.167678 C286.886226,179.492273 290.834773,178.460532 292.403173,175.200929 C293.865429,172.161926 292.473786,168.325656 290.039343,166.041675 C287.6049,163.757694 284.361015,162.66771 281.223076,161.639207 L276.082925,159.954467" id="Path" stroke="#3F3D56" stroke-width="2"></path>
            <path d="M324.252218,155.631359 C320.882217,155.142553 317.444024,154.674831 314.095164,155.302912 C310.746303,155.930993 307.442247,157.838916 305.898288,161.011464 C303.046468,166.871431 307.415749,174.087671 312.952748,177.197652 C317.561681,179.765847 322.872804,180.602527 328,179.568098" id="Path" stroke="#3F3D56" stroke-width="2"></path>
            <path d="M249.22846,108.690645 C240.742814,117.103118 232.257174,117.103118 223.77154,108.690645 C216.814254,101.650913 212.917944,91.8979022 213.001311,81.7312432 L213.001311,0 L259.998689,0 L259.998689,81.7312806 C260.082046,91.8979267 256.185737,101.650922 249.22846,108.690645 L249.22846,108.690645 Z" id="Path" fill="#00B0FF" fill-rule="nonzero"></path>
            <path d="M427.8,430.1 C470.8,388.9 496.9,334.6 502.1,276.1 L519.7,297.8 L526.1,292.6 L502.9,264 C502.9,263.8 502.9,263.6 502.9,263.4 L502.3,263.4 L494.8,254.2 L458.7,288.2 L464.4,294.2 L485.7,274.1 C475.7,390.6 378.7,480.6 259.5,482.2 L259.5,252 L243,252 L243,526.6 L517.6,526.6 L517.6,510.1 L259.5,510.1 L259.5,498.7 C322.7,497.9 382.3,473.7 427.8,430.1 Z" id="Path" fill="#00B0FF" fill-rule="nonzero"></path>
        </g>
    </g>
</svg>