<?xml version="1.0" encoding="UTF-8"?>
<svg width="1500px" height="926px" viewBox="0 0 1500 926" version="1.1" xmlns="http://www.w3.org/2000/svg" xmlns:xlink="http://www.w3.org/1999/xlink">
    <title>thinking-and-experiencing</title>
    <defs>
        <linearGradient x1="50.0049952%" y1="99.995446%" x2="50.0049952%" y2="0.0136912434%" id="linearGradient-1">
            <stop stop-color="#808080" stop-opacity="0.25" offset="0%"></stop>
            <stop stop-color="#808080" stop-opacity="0.12" offset="54%"></stop>
            <stop stop-color="#808080" stop-opacity="0.1" offset="100%"></stop>
        </linearGradient>
    </defs>
    <g id="thinking-and-experiencing" stroke="none" stroke-width="1" fill="none" fill-rule="evenodd">
        <g id="cover" transform="translate(259.000000, 116.000000)">
            <path d="M297.08,46.32 C284.96,47.9 271.79,50.56 263.78,61.15 C254.31,73.67 255.58,92.7 259.87,108.55 C264.16,124.4 270.94,139.85 270.87,156.45 C270.68,182.84 252.66,205.24 232.15,217.05 C211.64,228.86 188.49,232.67 166.35,239.56 C145.700738,246.017188 125.953327,255.065984 107.58,266.49 C91.99,276.16 76.31,288.8 70.07,307.88 C59.84,339.17 78.66,372.38 97.25,398.07 C154.25,476.84 226.91,552.42 315.73,560.07 C382.08,565.74 448.5,532.18 514.13,544.49 C544.28,550.13 572.37,565.15 600.67,578.38 C628.97,591.61 658.74,603.38 689.25,601.88 C719.76,600.38 751.4,583.08 764.62,551.39 C772.43,532.66 773.22,510.94 780.44,491.9 C802.56,433.49 871.5,424.01 911.5,380.05 C932.5,356.96 944.5,325.25 954.5,293.83 C970.65,242.71 982.76,188.83 980.06,134.48 C978.88,110.82 974.46,86.25 961.33,67.99 C951.78,54.7 938.45,45.88 925.43,37.35 C895.79,17.93 863.97,-2.12 829.92,0.19 C810.3,1.52 791.74,10.25 773.02,17.09 C737.36,30.09 700.16,36.53 663.15,42.88 C602,53.38 539.97,63.88 477.99,58.64 C450.62,56.31 424.77,47.01 397.84,43.2 C365.09,38.57 329.7,42.07 297.08,46.32 Z" id="Path" fill="#00B0FF" fill-rule="nonzero" opacity="0.2"></path>
            <circle id="Oval" fill="#00B0FF" fill-rule="nonzero" opacity="0.5" cx="791" cy="169.97" r="38"></circle>
            <polygon id="Path" fill="#00B0FF" fill-rule="nonzero" points="671.33 304.12 323.6 304.12 343.47 242.97 354.12 242.97 356.25 258.83 631.59 258.83 633.01 242.97 645.78 242.97"></polygon>
            <polygon id="Path" fill="#000000" fill-rule="nonzero" opacity="0.2" points="671.33 304.12 323.6 304.12 343.47 242.97 354.12 242.97 356.25 258.83 631.59 258.83 633.01 242.97 645.78 242.97"></polygon>
            <polygon id="Path" fill="#00B0FF" fill-rule="nonzero" points="695.46 317.71 292.38 317.71 282.44 292.8 703.98 292.8"></polygon>
            <polygon id="Path" fill="#00B0FF" fill-rule="nonzero" points="682.69 333.57 302.31 333.57 292.38 317.71 695.46 317.71"></polygon>
            <rect id="Rectangle" fill="#00B0FF" fill-rule="nonzero" x="302.31" y="329.04" width="380.37" height="18.12"></rect>
            <rect id="Rectangle" fill="#00B0FF" fill-rule="nonzero" x="279.6" y="376.6" width="432.89" height="67.95"></rect>
            <rect id="Rectangle" fill="#000000" fill-rule="nonzero" opacity="0.2" x="279.6" y="376.6" width="432.89" height="67.95"></rect>
            <polygon id="Path" fill="#00B0FF" fill-rule="nonzero" points="985 605.35 0 598.56 28.39 437.75 963.71 437.75"></polygon>
            <g id="Group" opacity="0.2" transform="translate(264.000000, 555.000000)" fill="#000000" fill-rule="nonzero">
                <path d="M15,0.53 L27.58,0.53 C35.8642712,0.53 42.58,7.24572875 42.58,15.53 L42.58,45.83 L0,45.83 L0,15.53 C0,7.24572875 6.71572875,0.53 15,0.53 Z" id="Path"></path>
                <path d="M107.25,0.53 L119.83,0.53 C128.114271,0.53 134.83,7.24572875 134.83,15.53 L134.83,45.83 L92.25,45.83 L92.25,15.53 C92.25,7.24572875 98.9657288,0.53 107.25,0.53 Z" id="Path"></path>
                <path d="M222.21,0.53 L234.79,0.53 C243.074271,0.53 249.79,7.24572875 249.79,15.53 L249.79,45.83 L207.21,45.83 L207.21,15.53 C207.21,7.24572875 213.925729,0.53 222.21,0.53 L222.21,0.53 Z" id="Path"></path>
                <path d="M341.43,0.53 L354,0.53 C362.284271,0.53 369,7.24572875 369,15.53 L369,45.83 L326.43,45.83 L326.43,15.53 C326.43,7.24572875 333.145729,0.53 341.43,0.53 Z" id="Path"></path>
                <path d="M436.53,0.53 L449.11,0.53 C457.394271,0.53 464.11,7.24572875 464.11,15.53 L464.11,45.83 L421.53,45.83 L421.53,15.53 C421.53,7.24572875 428.245729,0.53 436.53,0.53 Z" id="Path"></path>
            </g>
            <rect id="Rectangle" fill="#000000" fill-rule="nonzero" opacity="0.2" x="469.79" y="444.55" width="45.42" height="90.6"></rect>
            <rect id="Rectangle" fill="#00B0FF" fill-rule="nonzero" x="279.6" y="376.6" width="7.1" height="67.95"></rect>
            <rect id="Rectangle" fill="#00B0FF" fill-rule="nonzero" x="320.76" y="376.6" width="7.1" height="67.95"></rect>
            <rect id="Rectangle" fill="#00B0FF" fill-rule="nonzero" x="366.18" y="376.6" width="7.1" height="67.95"></rect>
            <rect id="Rectangle" fill="#00B0FF" fill-rule="nonzero" x="410.18" y="376.6" width="7.1" height="67.95"></rect>
            <rect id="Rectangle" fill="#00B0FF" fill-rule="nonzero" x="458.44" y="376.6" width="7.1" height="67.95"></rect>
            <rect id="Rectangle" fill="#00B0FF" fill-rule="nonzero" x="523.72" y="376.6" width="7.1" height="67.95"></rect>
            <rect id="Rectangle" fill="#00B0FF" fill-rule="nonzero" x="567.72" y="376.6" width="7.1" height="67.95"></rect>
            <rect id="Rectangle" fill="#00B0FF" fill-rule="nonzero" x="617.4" y="376.6" width="7.1" height="67.95"></rect>
            <rect id="Rectangle" fill="#00B0FF" fill-rule="nonzero" x="659.98" y="376.6" width="7.1" height="67.95"></rect>
            <rect id="Rectangle" fill="#00B0FF" fill-rule="nonzero" x="705.4" y="376.6" width="7.1" height="67.95"></rect>
            <polygon id="Path" fill="#00B0FF" fill-rule="nonzero" points="712.49 381.13 279.6 381.13 254.06 358.48 736.62 358.48"></polygon>
            <rect id="Rectangle" fill="#00B0FF" fill-rule="nonzero" x="279.6" y="381.13" width="17.03" height="9.06"></rect>
            <rect id="Rectangle" fill="#00B0FF" fill-rule="nonzero" x="316.51" y="381.13" width="17.03" height="9.06"></rect>
            <rect id="Rectangle" fill="#00B0FF" fill-rule="nonzero" x="360.5" y="381.13" width="17.03" height="9.06"></rect>
            <rect id="Rectangle" fill="#00B0FF" fill-rule="nonzero" x="405.92" y="381.13" width="17.03" height="9.06"></rect>
            <rect id="Rectangle" fill="#00B0FF" fill-rule="nonzero" x="454.18" y="381.13" width="17.03" height="9.06"></rect>
            <rect id="Rectangle" fill="#00B0FF" fill-rule="nonzero" x="518.05" y="381.13" width="17.03" height="9.06"></rect>
            <rect id="Rectangle" fill="#00B0FF" fill-rule="nonzero" x="563.47" y="381.13" width="17.03" height="9.06"></rect>
            <rect id="Rectangle" fill="#00B0FF" fill-rule="nonzero" x="613.14" y="381.13" width="17.03" height="9.06"></rect>
            <rect id="Rectangle" fill="#00B0FF" fill-rule="nonzero" x="655.72" y="381.13" width="17.03" height="9.06"></rect>
            <rect id="Rectangle" fill="#00B0FF" fill-rule="nonzero" x="695.46" y="381.13" width="17.03" height="9.06"></rect>
            <polygon id="Path" fill="#00B0FF" fill-rule="nonzero" points="739.46 358.48 252.64 358.48 246.96 342.63 743.72 342.63"></polygon>
            <polygon id="Path" fill="#000000" fill-rule="nonzero" opacity="0.2" points="739.46 358.48 252.64 358.48 246.96 342.63 743.72 342.63"></polygon>
            <ellipse id="Oval" fill="#00B0FF" fill-rule="nonzero" cx="492.5" cy="335.83" rx="11.35" ry="18.12"></ellipse>
            <ellipse id="Oval" fill="#000000" fill-rule="nonzero" opacity="0.2" cx="492.5" cy="335.83" rx="11.35" ry="18.12"></ellipse>
            <ellipse id="Oval" fill="#00B0FF" fill-rule="nonzero" cx="492.5" cy="335.83" rx="7.1" ry="11.32"></ellipse>
            <path d="M658.67,597.13 L609.99,559.77 C609.99,559.77 606.06,544.2 604.49,533.3 C602.92,522.4 600.56,475.7 600.56,475.7 C601.677061,471.657152 602.416894,467.519445 602.77,463.34 C603.25,463.24 603.77,463.12 604.22,462.99 C611.596255,461.109668 617.663714,455.878845 620.61,448.86 C625.61,436.42 619.15,421.72 610.97,411.86 C602.79,402 592.5,394.08 587.12,381.86 C580.48,366.8 582.75,348.6 579.36,332.12 C579.034563,329.810688 578.175144,327.609069 576.85,325.69 C574.75,323.08 571.46,322.51 568.52,321.47 C559.24,318.18 552.28,309.16 546.85,299.75 C538.06,284.5 528.96,261.31 510.85,259.99 C504.12,259.5 497.09,261.77 490.29,261.75 C479.74,261.75 469.29,261.88 458.83,263.33 C455.09,263.84 451.21,264.54 448.09,267.01 C437.38,275.48 442.23,297.87 431.91,307.01 C428.84,309.72 424.91,310.69 421.44,312.55 C408.36,319.55 402.55,338.22 403.32,355.02 C403.68,362.89 405.32,371.09 409.97,376.84 C413.65,381.44 418.9,384.08 422.33,388.93 C427.87,396.76 427.12,407.14 426.52,417.7 C419.12,420.8 413.18,424.36 411.31,428.19 C405.03,441.03 405.81,485.01 405.81,485.01 C405.81,485.01 408.17,557.01 390.11,566.01 L322.58,612.71 C322.58,612.71 274.68,571.07 262.9,595.59 C254.84,612.36 284.25,621.85 303.64,626.17 C291.41,634.85 284.64,650.89 290.38,661.76 C299.38,678.88 324.54,690.56 324.54,690.56 C324.54,690.56 420.49,695.19 464.84,685.25 L465.57,685.25 C484.4,688.66 511.42,692.25 533.09,690.09 C533.5,691.09 533.79,691.73 533.79,691.73 C533.79,691.73 672.79,703.41 697.9,655.92 C710.79,631.57 697.34,620.32 681.18,615.14 C699.27,613.7 719.87,608.64 722.24,593.26 C726.59,565.22 658.67,597.13 658.67,597.13 Z M644.67,612.02 C619.24,621.29 598.59,621.81 587.6,621.11 C582.19,609.34 559.68,558.32 559.09,524.18 C559.23,516.56 560.59,509.9 563.63,504.9 C570.18,494.13 572.11,485.69 571.89,479.27 C571.89,478.79 571.89,478.33 571.89,477.87 C571.920378,475.908086 571.729167,473.949013 571.32,472.03 C572.400185,474.669258 572.722269,477.557627 572.25,480.37 C569.89,492.44 576.18,570.66 576.18,570.66 C576.18,570.66 581.28,588.17 591.88,593.23 L644.67,612.02 Z M395.62,606.49 L419.96,590.92 C419.96,590.92 431.35,585.49 432.5,572.22 L440.5,508.99 C441.049432,511.699819 441.770892,514.371894 442.66,516.99 C444.08,521.14 444.66,527.22 444.77,534.46 C444.5,569.71 432.5,628.27 432.5,628.27 L432.65,628.27 L432.56,628.69 L431.71,628.74 C411.96,628.14 365.94,626.42 340.17,622.85 L395.62,606.49 Z M352.97,643.35 L352.97,643.49 L346.97,643.49 L352.97,643.35 Z" id="Shape" fill="url(#linearGradient-1)" fill-rule="nonzero"></path>
            <path d="M545.02,306.11 C550.27,315.29 557.02,324.11 565.97,327.29 C568.81,328.29 571.97,328.86 573.97,331.4 C575.248736,333.275757 576.076929,335.42153 576.39,337.67 C579.66,353.74 577.47,371.49 583.89,386.17 C589.09,398.06 599.04,405.81 606.95,415.4 C614.86,424.99 621.07,439.33 616.27,451.45 C613.459827,458.258384 607.623694,463.358061 600.5,465.23 C593.88,467.02 586.97,466.23 580.25,465.08 C571.39,463.51 562.37,461.08 554.99,455.08 C542.22,444.71 536.82,426.08 530.14,409.52 C527,401.76 522.83,393.63 515.93,390.85 C508.02,387.67 499.14,392.98 494.01,400.77 C488.88,408.56 486.6,418.35 484.12,427.77 C481.32,438.4 477.77,449.45 470.41,456.4 C463.889485,462.7623 454.2365,464.693681 445.77,461.33 C437.57,457.91 431.08,449.27 429.2,439.24 C426.29,423.78 433.26,405.24 424.71,393.02 C421.39,388.29 416.32,385.71 412.71,381.23 C408.26,375.62 406.63,367.63 406.28,359.96 C405.53,343.58 411.15,325.33 423.79,318.55 C427.17,316.74 430.94,315.79 433.91,313.15 C443.91,304.27 439.2,282.44 449.55,274.15 C452.55,271.74 456.31,271.07 459.93,270.56 C470.07,269.15 480.14,268.99 490.34,269.02 C496.92,269.02 503.71,266.83 510.22,267.31 C527.73,268.63 536.5,291.24 545.02,306.11 Z" id="Path" fill="#965D7B" fill-rule="nonzero"></path>
            <polygon id="Path" fill="#575988" fill-rule="nonzero" points="357.29 637.16 361.12 682.53 629 680.94 623.9 631.41 533.33 620.87 374.51 630.45"></polygon>
            <polygon id="Path" fill="#000000" fill-rule="nonzero" opacity="0.05" points="357.29 637.16 361.12 682.53 629 680.94 623.9 631.41 533.33 620.87 374.51 630.45"></polygon>
            <path d="M533.56,668.88 L444.38,677.23 C444.38,677.23 505.48,692.79 541.15,685.23 L533.56,668.88 Z" id="Path" fill="#F7C4A7" fill-rule="nonzero"></path>
            <path d="M533.56,668.88 L444.38,677.23 C444.38,677.23 505.48,692.79 541.15,685.23 L533.56,668.88 Z" id="Path" fill="#000000" fill-rule="nonzero" opacity="0.1"></path>
            <path d="M465.63,349.35 C465.63,349.35 483.09,395.27 457.28,415.76 C431.47,436.25 452.73,493.56 452.73,493.56 L552.16,489.01 C552.16,489.01 562.03,424.5 556.71,410.83 C556.71,410.83 533.18,417.66 527.87,403.24 C522.56,388.82 518.76,349.35 518.76,349.35 L465.63,349.35 Z" id="Path" fill="#F7C4A7" fill-rule="nonzero"></path>
            <path d="M442.86,627.13 C442.86,627.13 358.99,625.23 334.33,619.13 C309.67,613.03 288.41,642.28 297.14,658.98 C305.87,675.68 330.14,687.06 330.14,687.06 C330.14,687.06 454.99,693.13 481.94,676.06 C481.94,676.06 492.19,646.84 481.94,641.15 L351.79,641.15 L447.79,639.25 L442.86,627.13 Z" id="Path" fill="#575988" fill-rule="nonzero"></path>
            <path d="M576.07,618.41 C576.07,618.41 604.15,624.48 642.86,609.3 C642.86,609.3 715.34,607.02 691.06,653.3 C666.78,699.58 532.43,688.21 532.43,688.21 C532.43,688.21 524.43,671.13 532.43,666.58 C540.43,662.03 609.85,632.81 631.43,634.32 L571.43,646.08 L576.07,618.41 Z" id="Path" fill="#575988" fill-rule="nonzero"></path>
            <path d="M522.2,371.44 C520.75,360.63 519.9,351.82 519.9,351.82 L466.77,351.82 C469.223416,358.778669 470.926413,365.979528 471.85,373.3 C487.158176,384.018324 507.724369,383.258579 522.2,371.44 L522.2,371.44 Z" id="Path" fill="#000000" fill-rule="nonzero" opacity="0.1"></path>
            <circle id="Oval" fill="#F7C4A7" fill-rule="nonzero" cx="494.66" cy="336.63" r="41.74"></circle>
            <path d="M470.19,409.31 C470.19,409.31 420.1,418.8 414.03,431.31 C407.96,443.82 408.72,486.72 408.72,486.72 C408.72,486.72 411,556.93 393.54,565.65 L328.27,611.19 C328.27,611.19 281.97,570.58 270.59,594.49 C259.21,618.4 325.24,627.13 325.24,627.13 L398.86,605.13 L422.39,589.95 C422.39,589.95 433.39,584.64 434.53,571.73 L444.4,493.55 L483.87,482.17 L547.6,482.17 L556.14,457.79 C556.14,457.79 571.89,470.41 569.61,482.17 C567.33,493.93 573.4,570.17 573.4,570.17 C573.4,570.17 578.33,587.25 588.58,592.17 L647.79,613.49 C647.79,613.49 710.41,619.56 714.58,592.24 C718.75,564.92 653.1,596.03 653.1,596.03 L606.04,559.6 C606.04,559.6 602.25,544.42 600.73,533.79 C599.21,523.16 596.94,477.63 596.94,477.63 C596.94,477.63 611.36,429.81 569.62,421.47 L515.73,404.77 L470.19,409.31 Z" id="Path" fill="#F7C4A7" fill-rule="nonzero"></path>
            <path d="M436.6,418.98 L444.38,470.4 C444.38,470.4 436.38,494.31 444.38,517.84 C452.38,541.37 434.5,629.03 434.5,629.03 C434.5,629.03 528.23,659.03 585.5,624.48 C585.5,624.48 543.38,535.68 561.21,506.08 C579.04,476.48 561.5,464.9 561.5,464.9 L564.3,410.49 L551.4,406.7 L543.81,460.49 C543.81,460.49 491.44,496.92 452.73,465.04 L444.38,406.6 L436.6,418.98 Z" id="Path" fill="#000000" fill-rule="nonzero" opacity="0.1"></path>
            <path d="M490.74,480.1 C482.341154,466.674785 465.115334,461.830429 450.95,468.91 C463.66,478.42 477.67,480.96 490.74,480.1 Z" id="Path" fill="#FFFFFF" fill-rule="nonzero" opacity="0.07"></path>
            <path d="M512.25,474.4 C520.648846,460.974785 537.874666,456.130429 552.04,463.21 C539.34,472.72 525.32,475.27 512.25,474.4 Z" id="Path" fill="#FFFFFF" fill-rule="nonzero" opacity="0.07"></path>
            <path d="M436.6,418.98 L444.38,467.74 C444.38,467.74 436.38,491.65 444.38,515.18 C452.38,538.71 434.5,626.37 434.5,626.37 C434.5,626.37 528.23,656.37 585.5,621.82 C585.5,621.82 543.38,533.02 561.21,503.42 C579.04,473.82 561.5,462.24 561.5,462.24 L564.24,407.79 L551.34,404 L543.75,457.89 C543.75,457.89 491.38,494.32 452.67,462.44 L444.32,404 L436.6,418.98 Z" id="Path" fill="#000000" fill-rule="nonzero" opacity="0.1"></path>
            <path d="M436.22,418.6 L444.38,468.5 C444.38,468.5 436.38,492.41 444.38,515.94 C452.38,539.47 434.5,627.13 434.5,627.13 C434.5,627.13 528.23,657.13 585.5,622.58 C585.5,622.58 543.38,533.78 561.21,504.18 C579.04,474.58 561.5,463 561.5,463 L564.24,408.55 L551.34,404.76 L543.75,458.65 C543.75,458.65 491.38,495.08 452.67,463.2 L444.32,404.76 L436.22,418.6 Z" id="Path" fill="#FC6681" fill-rule="nonzero"></path>
            <path d="M474.74,645.73 L494.5,643.07 C494.5,643.07 517.27,613.85 533.59,636.24 C533.59,636.24 540.42,650.66 548.77,653.32 C554.480023,655.045365 560.318522,656.312714 566.23,657.11 L532.46,666.6 C532.46,666.6 517.66,675.33 502.1,673.05 C492.940634,671.654355 483.581325,672.435439 474.78,675.33 L474.74,645.73 Z" id="Path" fill="#F7C4A7" fill-rule="nonzero"></path>
            <path d="M452.92,521.82 C452.92,521.82 488.59,527.13 494.66,517.65" id="Path" fill="#000000" fill-rule="nonzero" opacity="0.1"></path>
            <path d="M520.5,515.75 C520.5,515.75 527.33,522.58 554.65,517.65" id="Path" fill="#000000" fill-rule="nonzero" opacity="0.1"></path>
            <path d="M451.02,409.87 C451.02,409.87 477.2,413.66 482.14,411.39" id="Path" fill="#000000" fill-rule="nonzero" opacity="0.1"></path>
            <path d="M508.71,409.87 C508.71,409.87 534.89,413.66 539.83,411.39" id="Path" fill="#000000" fill-rule="nonzero" opacity="0.1"></path>
            <path d="M477.59,642.88 C477.59,642.88 484.8,676.88 477.59,678.08 C470.38,679.28 460.13,672.48 460.13,671.72 C460.13,670.96 464.68,649.33 464.68,649.33 L477.59,642.88 Z" id="Path" fill="#000000" fill-rule="nonzero" opacity="0.1"></path>
            <path d="M476.83,642.88 C476.83,642.88 484.04,676.88 476.83,678.08 C469.62,679.28 459.37,672.48 459.37,671.72 C459.37,670.96 463.92,649.33 463.92,649.33 L476.83,642.88 Z" id="Path" fill="#575988" fill-rule="nonzero"></path>
            <path d="M441.6,404.9 C438.42,412.29 437.29,421.01 440.67,428.31 C443.25,433.88 448.29,438.39 449.26,444.45 C450.48,452.05 444.85,459.78 446.95,467.18 C447.75,470.02 449.62,472.42 451.52,474.67 C457.3,481.5 464.98,488.11 473.9,487.58 C475.31,473.8 463.4,460.43 467.3,447.14 C468.7,442.38 471.98,438.42 473.96,433.88 C477.25,426.35 476.78,417.75 475.59,409.62 C473.86,397.83 469.48,383.36 457.79,377.84 C452.41,375.3 444.79,375.12 442.87,382.01 C441.87,385.69 444.27,389.15 444.6,392.75 C445.02,397.32 443.37,400.79 441.6,404.9 Z" id="Path" fill="#000000" fill-rule="nonzero" opacity="0.1"></path>
            <path d="M441.6,403.76 C438.42,411.15 437.29,419.87 440.67,427.17 C443.25,432.74 448.29,437.25 449.26,443.31 C450.48,450.91 444.85,458.64 446.95,466.04 C447.75,468.88 449.62,471.28 451.52,473.53 C457.3,480.36 464.98,486.97 473.9,486.44 C475.31,472.66 463.4,459.29 467.3,446 C468.7,441.24 471.98,437.28 473.96,432.74 C477.25,425.21 476.78,416.61 475.59,408.48 C473.86,396.69 469.48,382.22 457.79,376.7 C452.41,374.16 444.79,373.98 442.87,380.87 C441.87,384.55 444.27,388.01 444.6,391.61 C445.02,396.19 443.37,399.66 441.6,403.76 Z" id="Path" fill="#965D7B" fill-rule="nonzero"></path>
            <path d="M444.57,316.14 C444.57,316.14 499.98,308.55 501.49,319.93 C503,331.31 551.96,349.93 551.96,349.93 L539.82,319.93 L517.43,282.74 C517.43,282.74 476.43,279.74 474.55,282.74 C472.67,285.74 451.02,295.64 451.02,295.64 L444.57,316.14 Z" id="Path" fill="#000000" fill-rule="nonzero" opacity="0.1"></path>
            <path d="M444.57,315.38 C444.57,315.38 499.98,307.79 501.49,319.17 C503,330.55 551.96,349.17 551.96,349.17 L539.82,319.17 L517.43,281.99 C517.43,281.99 476.43,278.99 474.55,281.99 C472.67,284.99 451.02,294.89 451.02,294.89 L444.57,315.38 Z" id="Path" fill="#965D7B" fill-rule="nonzero"></path>
            <path d="M540.99,396.49 C543.684494,399.716587 545.588368,403.52776 546.55,407.62 C547.47,411.53 547.5,415.62 548.38,419.54 C550.25,427.89 555.77,434.91 561.54,441.23 C563.407149,443.519507 565.686407,445.439239 568.26,446.89 C570.9,448.19 574.26,448.46 576.71,446.89 C574.39,444.99 573.13,442.08 572.3,439.19 C571.132297,435.161074 570.612477,430.972137 570.76,426.78 C571.01,419.78 573.06,412.39 570.15,406.01 C568.47,402.33 565.34,399.53 562.15,397.01 C559.93356,395.207962 557.541527,393.633374 555.01,392.31 C550.3,389.96 544.89,388.93 539.69,388.42 C532.91,387.72 538.84,393.91 540.99,396.49 Z" id="Path" fill="#000000" fill-rule="nonzero" opacity="0.1"></path>
            <path d="M540.99,395.34 C543.687259,398.572373 545.591283,402.390695 546.55,406.49 C547.47,410.4 547.5,414.49 548.38,418.41 C550.25,426.76 555.77,433.78 561.54,440.1 C563.407149,442.389507 565.686407,444.309239 568.26,445.76 C570.9,447.06 574.26,447.33 576.71,445.76 C574.39,443.86 573.13,440.95 572.3,438.06 C571.132297,434.031074 570.612477,429.842137 570.76,425.65 C571.01,418.65 573.06,411.26 570.15,404.88 C568.47,401.2 565.34,398.4 562.15,395.88 C559.93356,394.077962 557.541527,392.503374 555.01,391.18 C550.3,388.83 544.89,387.8 539.69,387.29 C532.91,386.58 538.84,392.77 540.99,395.34 Z" id="Path" fill="#965D7B" fill-rule="nonzero"></path>
            <path d="M516.18,165.41 L509.3,165.41 C511.072582,165.490802 512.746215,164.591149 513.656657,163.068102 C514.567098,161.545055 514.567098,159.644945 513.656657,158.121898 C512.746215,156.598851 511.072582,155.699198 509.3,155.78 L453.57,155.78 C450.996007,155.897333 448.969488,158.018334 448.969488,160.595 C448.969488,163.171666 450.996007,165.292667 453.57,165.41 L460.45,165.41 C458.677418,165.329198 457.003785,166.228851 456.093343,167.751898 C455.182902,169.274945 455.182902,171.175055 456.093343,172.698102 C457.003785,174.221149 458.677418,175.120802 460.45,175.04 L450.82,175.04 C449.047418,174.959198 447.373785,175.858851 446.463343,177.381898 C445.552902,178.904945 445.552902,180.805055 446.463343,182.328102 C447.373785,183.851149 449.047418,184.750802 450.82,184.67 L506.55,184.67 C508.322582,184.750802 509.996215,183.851149 510.906657,182.328102 C511.817098,180.805055 511.817098,178.904945 510.906657,177.381898 C509.996215,175.858851 508.322582,174.959198 506.55,175.04 L516.18,175.04 C517.952582,175.120802 519.626215,174.221149 520.536657,172.698102 C521.447098,171.175055 521.447098,169.274945 520.536657,167.751898 C519.626215,166.228851 517.952582,165.329198 516.18,165.41 L516.18,165.41 Z" id="Path" fill="#252223" fill-rule="nonzero" opacity="0.1"></path>
            <path d="M786.18,165.41 L779.3,165.41 C781.072582,165.490802 782.746215,164.591149 783.656657,163.068102 C784.567098,161.545055 784.567098,159.644945 783.656657,158.121898 C782.746215,156.598851 781.072582,155.699198 779.3,155.78 L723.57,155.78 C720.996007,155.897333 718.969488,158.018334 718.969488,160.595 C718.969488,163.171666 720.996007,165.292667 723.57,165.41 L730.45,165.41 C728.677418,165.329198 727.003785,166.228851 726.093343,167.751898 C725.182902,169.274945 725.182902,171.175055 726.093343,172.698102 C727.003785,174.221149 728.677418,175.120802 730.45,175.04 L720.82,175.04 C719.047418,174.959198 717.373785,175.858851 716.463343,177.381898 C715.552902,178.904945 715.552902,180.805055 716.463343,182.328102 C717.373785,183.851149 719.047418,184.750802 720.82,184.67 L776.55,184.67 C778.322582,184.750802 779.996215,183.851149 780.906657,182.328102 C781.817098,180.805055 781.817098,178.904945 780.906657,177.381898 C779.996215,175.858851 778.322582,174.959198 776.55,175.04 L786.18,175.04 C787.952582,175.120802 789.626215,174.221149 790.536657,172.698102 C791.447098,171.175055 791.447098,169.274945 790.536657,167.751898 C789.626215,166.228851 787.952582,165.329198 786.18,165.41 Z" id="Path" fill="#252223" fill-rule="nonzero" opacity="0.1"></path>
            <path d="M211.18,288.41 L204.3,288.41 C206.072582,288.490802 207.746215,287.591149 208.656657,286.068102 C209.567098,284.545055 209.567098,282.644945 208.656657,281.121898 C207.746215,279.598851 206.072582,278.699198 204.3,278.78 L148.57,278.78 C145.996007,278.897333 143.969488,281.018334 143.969488,283.595 C143.969488,286.171666 145.996007,288.292667 148.57,288.41 L155.45,288.41 C152.876007,288.527333 150.849488,290.648334 150.849488,293.225 C150.849488,295.801666 152.876007,297.922667 155.45,298.04 L145.82,298.04 C144.047418,297.959198 142.373785,298.858851 141.463343,300.381898 C140.552902,301.904945 140.552902,303.805055 141.463343,305.328102 C142.373785,306.851149 144.047418,307.750802 145.82,307.67 L201.55,307.67 C203.322582,307.750802 204.996215,306.851149 205.906657,305.328102 C206.817098,303.805055 206.817098,301.904945 205.906657,300.381898 C204.996215,298.858851 203.322582,297.959198 201.55,298.04 L211.18,298.04 C213.753993,297.922667 215.780512,295.801666 215.780512,293.225 C215.780512,290.648334 213.753993,288.527333 211.18,288.41 Z" id="Path" fill="#252223" fill-rule="nonzero" opacity="0.1"></path>
            <path d="M788.73,675.12 C788.73,675.12 764.06,591.36 793.36,529.71 C805.66,503.84 809.74,474.79 804.06,446.71 C801.343986,433.37809 797.410843,420.323404 792.31,407.71" id="Path" stroke="#535461" stroke-width="2"></path>
            <path d="M810.5,368.8 C810.5,379.07 791.91,408.8 791.91,408.8 C791.91,408.8 773.32,379.03 773.32,368.8 C773.163587,362.057445 776.671261,355.759038 782.485811,352.341798 C788.30036,348.924558 795.50964,348.924558 801.324189,352.341798 C807.138739,355.759038 810.646413,362.057445 810.49,368.8 L810.5,368.8 Z" id="Path" fill="#00B0FF" fill-rule="nonzero"></path>
            <path d="M841.26,425.66 C835.68,434.28 803.9,449.16 803.9,449.16 C803.9,449.16 804.48,414.07 810.06,405.45 C815.751905,397.124715 827.043732,394.856133 835.50938,400.337097 C843.975027,405.818061 846.526563,417.049334 841.26,425.65 L841.26,425.66 Z" id="Path" fill="#00B0FF" fill-rule="nonzero"></path>
            <path d="M839.91,522.83 C830.74,527.45 795.8,524.26 795.8,524.26 C795.8,524.26 814.01,494.26 823.18,489.64 C829.127265,486.490216 836.312481,486.800662 841.96591,490.451666 C847.619339,494.102671 850.858087,500.524059 850.433689,507.24053 C850.009291,513.957001 845.988026,519.919646 839.92,522.83 L839.91,522.83 Z" id="Path" fill="#00B0FF" fill-rule="nonzero"></path>
            <path d="M822.34,596.12 C814.09,602.22 779.1,604.98 779.1,604.98 C779.1,604.98 791.98,572.34 800.23,566.23 C805.56606,562.216511 812.644647,561.372954 818.774451,564.020054 C824.904255,566.667153 829.143631,572.398268 829.88075,579.034403 C830.617868,585.670538 827.739495,592.192267 822.34,596.12 L822.34,596.12 Z" id="Path" fill="#00B0FF" fill-rule="nonzero"></path>
            <path d="M764.87,451.15 C772.23,458.3 806.54,465.71 806.54,465.71 C806.54,465.71 798.14,431.64 790.78,424.48 C783.374139,417.621012 771.848035,417.925239 764.814314,425.165354 C757.780594,432.405469 757.809752,443.935551 764.88,451.14 L764.87,451.15 Z" id="Path" fill="#00B0FF" fill-rule="nonzero"></path>
            <path d="M745.41,537.12 C754.58,541.74 789.52,538.55 789.52,538.55 C789.52,538.55 771.31,508.55 762.14,503.93 C756.192735,500.780216 749.007519,501.090662 743.35409,504.741666 C737.700661,508.392671 734.461913,514.814059 734.886311,521.53053 C735.310709,528.247001 739.331974,534.209646 745.4,537.12 L745.41,537.12 Z" id="Path" fill="#00B0FF" fill-rule="nonzero"></path>
            <path d="M737.96,623.28 C746.21,629.38 781.2,632.14 781.2,632.14 C781.2,632.14 768.32,599.49 760.06,593.39 C754.72394,589.376511 747.645353,588.532954 741.515549,591.180054 C735.385745,593.827153 731.146369,599.558268 730.40925,606.194403 C729.672132,612.830538 732.550505,619.352267 737.95,623.28 L737.96,623.28 Z" id="Path" fill="#00B0FF" fill-rule="nonzero"></path>
            <path d="M810.5,368.8 C810.5,379.07 791.91,408.8 791.91,408.8 C791.91,408.8 773.32,379.03 773.32,368.8 C773.163587,362.057445 776.671261,355.759038 782.485811,352.341798 C788.30036,348.924558 795.50964,348.924558 801.324189,352.341798 C807.138739,355.759038 810.646413,362.057445 810.49,368.8 L810.5,368.8 Z" id="Path" fill="#FC6681" fill-rule="nonzero"></path>
            <path d="M841.26,425.66 C835.68,434.28 803.9,449.16 803.9,449.16 C803.9,449.16 804.48,414.07 810.06,405.45 C815.751905,397.124715 827.043732,394.856133 835.50938,400.337097 C843.975027,405.818061 846.526563,417.049334 841.26,425.65 L841.26,425.66 Z" id="Path" fill="#FC6681" fill-rule="nonzero"></path>
            <path d="M839.91,522.83 C830.74,527.45 795.8,524.26 795.8,524.26 C795.8,524.26 814.01,494.26 823.18,489.64 C829.127265,486.490216 836.312481,486.800662 841.96591,490.451666 C847.619339,494.102671 850.858087,500.524059 850.433689,507.24053 C850.009291,513.957001 845.988026,519.919646 839.92,522.83 L839.91,522.83 Z" id="Path" fill="#FC6681" fill-rule="nonzero"></path>
            <path d="M822.34,596.12 C814.09,602.22 779.1,604.98 779.1,604.98 C779.1,604.98 791.98,572.34 800.23,566.23 C805.56606,562.216511 812.644647,561.372954 818.774451,564.020054 C824.904255,566.667153 829.143631,572.398268 829.88075,579.034403 C830.617868,585.670538 827.739495,592.192267 822.34,596.12 L822.34,596.12 Z" id="Path" fill="#FC6681" fill-rule="nonzero"></path>
            <path d="M764.87,451.15 C772.23,458.3 806.54,465.71 806.54,465.71 C806.54,465.71 798.14,431.64 790.78,424.48 C783.374139,417.621012 771.848035,417.925239 764.814314,425.165354 C757.780594,432.405469 757.809752,443.935551 764.88,451.14 L764.87,451.15 Z" id="Path" fill="#FC6681" fill-rule="nonzero"></path>
            <path d="M745.41,537.12 C754.58,541.74 789.52,538.55 789.52,538.55 C789.52,538.55 771.31,508.55 762.14,503.93 C756.192735,500.780216 749.007519,501.090662 743.35409,504.741666 C737.700661,508.392671 734.461913,514.814059 734.886311,521.53053 C735.310709,528.247001 739.331974,534.209646 745.4,537.12 L745.41,537.12 Z" id="Path" fill="#FC6681" fill-rule="nonzero"></path>
            <path d="M737.96,623.28 C746.21,629.38 781.2,632.14 781.2,632.14 C781.2,632.14 768.32,599.49 760.06,593.39 C754.72394,589.376511 747.645353,588.532954 741.515549,591.180054 C735.385745,593.827153 731.146369,599.558268 730.40925,606.194403 C729.672132,612.830538 732.550505,619.352267 737.95,623.28 L737.96,623.28 Z" id="Path" fill="#FC6681" fill-rule="nonzero"></path>
            <path d="M206.73,673.12 C206.73,673.12 182.06,589.36 211.36,527.71 C223.66,501.84 227.74,472.79 222.06,444.71 C219.343986,431.37809 215.410843,418.323404 210.31,405.71" id="Path" stroke="#535461" stroke-width="2"></path>
            <path d="M228.5,366.8 C228.5,377.07 209.91,406.8 209.91,406.8 C209.91,406.8 191.32,377.03 191.32,366.8 C191.163587,360.057445 194.671261,353.759038 200.485811,350.341798 C206.30036,346.924558 213.50964,346.924558 219.324189,350.341798 C225.138739,353.759038 228.646413,360.057445 228.49,366.8 L228.5,366.8 Z" id="Path" fill="#00B0FF" fill-rule="nonzero"></path>
            <path d="M259.26,423.66 C253.68,432.28 221.9,447.16 221.9,447.16 C221.9,447.16 222.48,412.07 228.06,403.45 C233.751905,395.124715 245.043732,392.856133 253.50938,398.337097 C261.975027,403.818061 264.526563,415.049334 259.26,423.65 L259.26,423.66 Z" id="Path" fill="#00B0FF" fill-rule="nonzero"></path>
            <path d="M257.91,520.83 C248.74,525.45 213.8,522.26 213.8,522.26 C213.8,522.26 232.01,492.26 241.18,487.64 C250.307125,483.262437 261.259069,486.99203 265.817604,496.030128 C270.376139,505.068227 266.865484,516.092303 257.92,520.83 L257.91,520.83 Z" id="Path" fill="#00B0FF" fill-rule="nonzero"></path>
            <path d="M240.34,594.12 C232.09,600.22 197.1,602.98 197.1,602.98 C197.1,602.98 209.98,570.34 218.23,564.23 C223.56606,560.216511 230.644647,559.372954 236.774451,562.020054 C242.904255,564.667153 247.143631,570.398268 247.88075,577.034403 C248.617868,583.670538 245.739495,590.192267 240.34,594.12 L240.34,594.12 Z" id="Path" fill="#00B0FF" fill-rule="nonzero"></path>
            <path d="M182.87,449.15 C190.23,456.3 224.54,463.71 224.54,463.71 C224.54,463.71 216.14,429.64 208.78,422.48 C201.374139,415.621012 189.848035,415.925239 182.814314,423.165354 C175.780594,430.405469 175.809752,441.935551 182.88,449.14 L182.87,449.15 Z" id="Path" fill="#00B0FF" fill-rule="nonzero"></path>
            <path d="M163.41,535.12 C172.58,539.74 207.52,536.55 207.52,536.55 C207.52,536.55 189.31,506.55 180.14,501.93 C171.012875,497.552437 160.060931,501.28203 155.502396,510.320128 C150.943861,519.358227 154.454516,530.382303 163.4,535.12 L163.41,535.12 Z" id="Path" fill="#00B0FF" fill-rule="nonzero"></path>
            <path d="M155.96,621.28 C164.21,627.38 199.2,630.14 199.2,630.14 C199.2,630.14 186.32,597.49 178.06,591.39 C172.72394,587.376511 165.645353,586.532954 159.515549,589.180054 C153.385745,591.827153 149.146369,597.558268 148.40925,604.194403 C147.672132,610.830538 150.550505,617.352267 155.95,621.28 L155.96,621.28 Z" id="Path" fill="#00B0FF" fill-rule="nonzero"></path>
            <path d="M228.5,366.8 C228.5,377.07 209.91,406.8 209.91,406.8 C209.91,406.8 191.32,377.03 191.32,366.8 C191.163587,360.057445 194.671261,353.759038 200.485811,350.341798 C206.30036,346.924558 213.50964,346.924558 219.324189,350.341798 C225.138739,353.759038 228.646413,360.057445 228.49,366.8 L228.5,366.8 Z" id="Path" fill="#FC6681" fill-rule="nonzero"></path>
            <path d="M259.26,423.66 C253.68,432.28 221.9,447.16 221.9,447.16 C221.9,447.16 222.48,412.07 228.06,403.45 C233.751905,395.124715 245.043732,392.856133 253.50938,398.337097 C261.975027,403.818061 264.526563,415.049334 259.26,423.65 L259.26,423.66 Z" id="Path" fill="#FC6681" fill-rule="nonzero"></path>
            <path d="M257.91,520.83 C248.74,525.45 213.8,522.26 213.8,522.26 C213.8,522.26 232.01,492.26 241.18,487.64 C250.307125,483.262437 261.259069,486.99203 265.817604,496.030128 C270.376139,505.068227 266.865484,516.092303 257.92,520.83 L257.91,520.83 Z" id="Path" fill="#FC6681" fill-rule="nonzero"></path>
            <path d="M240.34,594.12 C232.09,600.22 197.1,602.98 197.1,602.98 C197.1,602.98 209.98,570.34 218.23,564.23 C223.56606,560.216511 230.644647,559.372954 236.774451,562.020054 C242.904255,564.667153 247.143631,570.398268 247.88075,577.034403 C248.617868,583.670538 245.739495,590.192267 240.34,594.12 L240.34,594.12 Z" id="Path" fill="#FC6681" fill-rule="nonzero"></path>
            <path d="M182.87,449.15 C190.23,456.3 224.54,463.71 224.54,463.71 C224.54,463.71 216.14,429.64 208.78,422.48 C201.374139,415.621012 189.848035,415.925239 182.814314,423.165354 C175.780594,430.405469 175.809752,441.935551 182.88,449.14 L182.87,449.15 Z" id="Path" fill="#FC6681" fill-rule="nonzero"></path>
            <path d="M163.41,535.12 C172.58,539.74 207.52,536.55 207.52,536.55 C207.52,536.55 189.31,506.55 180.14,501.93 C171.012875,497.552437 160.060931,501.28203 155.502396,510.320128 C150.943861,519.358227 154.454516,530.382303 163.4,535.12 L163.41,535.12 Z" id="Path" fill="#FC6681" fill-rule="nonzero"></path>
            <path d="M155.96,621.28 C164.21,627.38 199.2,630.14 199.2,630.14 C199.2,630.14 186.32,597.49 178.06,591.39 C172.72394,587.376511 165.645353,586.532954 159.515549,589.180054 C153.385745,591.827153 149.146369,597.558268 148.40925,604.194403 C147.672132,610.830538 150.550505,617.352267 155.95,621.28 L155.96,621.28 Z" id="Path" fill="#FC6681" fill-rule="nonzero"></path>
        </g>
    </g>
</svg>