<?xml version="1.0" encoding="UTF-8"?>
<svg width="1500px" height="926px" viewBox="0 0 1500 926" version="1.1" xmlns="http://www.w3.org/2000/svg" xmlns:xlink="http://www.w3.org/1999/xlink">
    <title>minimize-context-switch</title>
    <g id="minimize-context-switch" stroke="none" stroke-width="1" fill="none" fill-rule="evenodd">
        <g id="cover" transform="translate(327.000000, 228.000000)" fill-rule="nonzero">
            <path d="M436.70324,467.03998 C423.286405,469.016316 409.708154,469.672788 396.16324,468.99998 C363.50308,467.34998 331.38297,457.84998 303.93324,439.98998 C291.76283,432.06998 280.15297,422.33998 273.85316,409.26998 C265.30287,391.51998 268.2931,369.04998 280.50306,353.58998 C284.956804,348.013725 290.435095,343.339908 296.6432,339.81998 C297.56312,339.29998 298.50306,338.79998 299.45326,338.31998 C309.797721,333.117912 321.416719,330.990539 332.93326,332.18998 C352.51285,334.32998 370.58316,346.28998 381.0231,362.99998 C390.32291,377.89998 393.5631,395.47998 395.4733,413.09998 C395.83316,416.41998 396.14322,419.74998 396.44303,423.05998 C394.779028,432.649704 392.162727,442.049559 388.63297,451.11998 C388.453452,451.562014 388.306415,452.016553 388.19303,452.47998 C390.19303,456.81998 392.096363,461.19998 393.90303,465.61998 C395.600498,466.541452 397.501849,467.022783 399.4333,467.01998 L436.62324,467.01998 L436.70324,467.03998 Z" id="Path" fill="#F2F2F2"></path>
            <path d="M393.13293,467.89002 C392.634932,468.112338 392.068503,468.125292 391.560861,467.925975 C391.05322,467.726657 390.646922,467.331776 390.43322,466.83002 C390.27306,466.45002 390.12316,466.07002 389.96301,465.69002 C388.523063,462.19002 387.013133,458.723353 385.43322,455.29002 C365.205175,410.984403 335.033462,371.939644 297.26281,341.19002 C296.822031,340.8804 296.584619,340.355483 296.64318,339.82002 C296.754269,339.209462 297.13822,338.683115 297.685687,338.390879 C298.233154,338.098644 298.884137,338.072546 299.45324,338.32002 C299.603785,338.388319 299.744917,338.475703 299.87316,338.58002 C316.033082,351.741929 330.857848,366.462938 344.13293,382.53002 C357.410811,398.582103 369.10215,415.882934 379.04308,434.19002 C381.75304,439.19002 384.326283,444.26002 386.76281,449.40002 C387.24328,450.42002 387.72326,451.45002 388.19299,452.47997 C390.19299,456.81997 392.096323,461.19997 393.90299,465.61997 C393.93326,465.68997 393.96305,465.76997 393.99332,465.83997 C394.179471,466.22277 394.191752,466.667195 394.027025,467.05969 C393.862298,467.452186 393.536519,467.75473 393.13293,467.89002 L393.13293,467.89002 Z" id="Path" fill="#FFFFFF"></path>
            <path d="M847.48469,469.44266 L1.19069,469.44266 C0.534439981,469.440758 0.00345063401,468.908228 0.00345063401,468.251975 C0.00345063401,467.595722 0.534439981,467.063192 1.19069,467.06129 L847.48469,467.06129 C848.14094,467.063192 848.671929,467.595722 848.671929,468.251975 C848.671929,468.908228 848.14094,469.440758 847.48469,469.44266 L847.48469,469.44266 Z" id="Path" fill="#3F3D56"></path>
            <circle id="Oval" fill="#00B0FF" cx="591.50305" cy="192" r="13"></circle>
            <path d="M590.21445,196.959205 C589.921966,196.959748 589.637236,196.865169 589.40321,196.68973 L589.3887,196.67884 L586.33361,194.33975 C585.947311,194.045299 585.747802,193.566868 585.810457,193.085201 C585.873111,192.603534 586.188377,192.192064 586.63715,192.006239 C587.085923,191.820413 587.599787,191.888562 587.98461,192.18494 L589.96346,193.7023 L594.63981,187.60366 C594.858843,187.317983 595.182395,187.131023 595.53928,187.083911 C595.896166,187.0368 596.257149,187.133397 596.54281,187.35245 L596.51373,187.39193 L596.54356,187.35303 C597.137637,187.809616 597.250016,188.660925 596.79477,189.25603 L591.29426,196.42949 C591.036416,196.764536 590.637224,196.960363 590.21445,196.959205 L590.21445,196.959205 Z" id="Path" fill="#FFFFFF"></path>
            <circle id="Oval" fill="#00B0FF" cx="591.50305" cy="230" r="13"></circle>
            <path d="M590.21445,234.959205 C589.921966,234.959748 589.637236,234.865169 589.40321,234.68973 L589.3887,234.67884 L586.33361,232.33975 C585.947311,232.045299 585.747802,231.566868 585.810457,231.085201 C585.873111,230.603534 586.188377,230.192064 586.63715,230.006239 C587.085923,229.820413 587.599787,229.888562 587.98461,230.18494 L589.96346,231.7023 L594.63981,225.60366 C594.858843,225.317983 595.182395,225.131023 595.53928,225.083911 C595.896166,225.0368 596.257149,225.133397 596.54281,225.35245 L596.51373,225.39193 L596.54356,225.35303 C597.137637,225.809616 597.250016,226.660925 596.79477,227.25603 L591.29426,234.42949 C591.036416,234.764536 590.637224,234.960363 590.21445,234.959205 Z" id="Path" fill="#FFFFFF"></path>
            <circle id="Oval" fill="#00B0FF" cx="598.50305" cy="274" r="13"></circle>
            <path d="M597.21445,278.959205 C596.921966,278.959748 596.637236,278.865169 596.40321,278.68973 L596.3887,278.67884 L593.33361,276.33975 C592.947311,276.045299 592.747802,275.566868 592.810457,275.085201 C592.873111,274.603534 593.188377,274.192064 593.63715,274.006239 C594.085923,273.820413 594.599787,273.888562 594.98461,274.18494 L596.96346,275.7023 L601.63981,269.60366 C601.858843,269.317983 602.182395,269.131023 602.53928,269.083911 C602.896166,269.0368 603.257149,269.133397 603.54281,269.35245 L603.51373,269.39193 L603.54356,269.35303 C604.137637,269.809616 604.250016,270.660925 603.79477,271.25603 L598.29426,278.42949 C598.036416,278.764536 597.637224,278.960363 597.21445,278.959205 Z" id="Path" fill="#FFFFFF"></path>
            <path d="M723.85909,382.53946 C723.7243,382.53946 723.63948,382.53946 723.60985,382.53423 L707.47019,382.53946 L707.47019,380.15627 L723.66819,380.15627 C724.04319,380.16963 731.69473,380.38576 738.74465,371.83139 C749.25053,359.08234 757.8781,327.52171 739.3175,249.56739 C714.36029,144.74678 735.17568,52.14362 745.2833,17.19528 C746.292965,13.6897959 745.595385,9.91357411 743.399961,7.00016461 C741.204537,4.08675511 737.766869,2.37534982 734.11888,2.37968 L493.08469,2.37968 C489.367954,2.38466318 485.876427,4.16188241 483.68529,7.16406 C479.40346,13.05406 473.52742,24.36924 469.85039,44.82906 L467.50845,44.40843 C471.26508,23.50415 477.33226,11.85606 481.7605,5.76505 C484.399972,2.14754598 488.60662,0.00596564714 493.08469,-3.64933723e-05 L734.11893,-3.64933723e-05 C738.514975,-0.00426055475 742.657127,2.05893487 745.302078,5.57026812 C747.947029,9.08160136 748.786869,13.6323009 747.56951,17.85643 C737.51389,52.6235 716.80627,144.74619 741.63275,249.01661 C760.45422,328.06722 751.40602,360.31167 740.50158,373.44126 C733.30904,382.10082 725.38417,382.53946 723.85909,382.53946 Z" id="Path" fill="#E6E6E6"></path>
            <path d="M680.42959,425.96896 C680.2948,425.96896 680.20998,425.96896 680.18035,425.96373 L664.0407,425.96896 L664.0407,423.58577 L680.2387,423.58577 C680.61576,423.59739 688.26524,423.81526 695.31516,415.26089 C705.82104,402.51184 714.44861,370.95121 695.88801,292.99689 C670.9308,188.17628 691.74619,95.57312 701.85381,60.62478 C702.863475,57.1192959 702.165895,53.3430741 699.970471,50.4296646 C697.775047,47.5162551 694.337379,45.8048498 690.68939,45.80918 L449.65518,45.80918 C445.938444,45.8141632 442.446917,47.5913824 440.25578,50.59356 C435.97395,56.48356 430.09791,67.79874 426.42102,88.25856 L424.0788,87.83793 C427.83557,66.93364 433.90275,55.28555 438.33099,49.19455 C440.970462,45.577046 445.17711,43.4354656 449.65518,43.4294635 L690.68943,43.4294635 C695.085475,43.4252394 699.227627,45.4884349 701.872578,48.9997681 C704.517529,52.5111014 705.357369,57.0618009 704.14001,61.28593 C694.08439,96.053 673.37677,188.17569 698.20326,292.44611 C717.02472,371.49672 707.97652,403.74117 697.07209,416.87076 C689.87954,425.53033 681.95469,425.96896 680.42959,425.96896 Z" id="Path" fill="#CCCCCC"></path>
            <path d="M654.77306,335.88001 C629.94299,231.61001 650.65295,139.48001 660.71301,104.72001 C661.927311,100.495785 661.086399,95.9464817 658.442284,92.4354627 C655.798168,88.9244438 651.658103,86.86001 647.26281,86.86001 L406.22326,86.86001 C401.747067,86.864393 397.541589,89.0042241 394.90295,92.62001 C385.17295,106.00001 364.98302,150.37001 387.53332,273.14001 C399.59289,338.82001 399.4132,383.60001 395.47326,413.10001 C393.26281,429.71006 389.85314,441.47001 386.76281,449.40006 L386.43322,450.24006 C385.78235,451.844655 385.442973,453.558511 385.43322,455.29006 C385.38711,459.244857 387.035877,463.03028 389.96301,465.69006 C390.906574,466.574223 391.974548,467.315423 393.13293,467.89006 C394.094662,468.380676 395.112115,468.753374 396.1632,469.00006 C397.233511,469.261302 398.33147,469.392252 399.4332,469.39006 L636.75304,469.39006 C636.78332,469.39006 636.86291,469.40006 637.00304,469.40006 C638.52304,469.40006 646.45324,468.96006 653.64318,460.30006 C664.54308,447.16999 673.59289,414.93 654.77306,335.88001 Z M651.88293,458.69001 C644.83312,467.25001 637.18322,467.03001 636.8131,467.022154 L399.43322,467.022154 C395.574375,467.022154 391.967085,465.104814 389.80285,461.91001 C387.905244,459.156508 387.316375,455.707118 388.19299,452.48001 C388.306375,452.016583 388.453412,451.562044 388.63293,451.12001 C392.162687,442.049589 394.778988,432.649734 396.44299,423.06001 C402.08312,392.31001 403.13293,344.86001 389.87316,272.71001 C367.49328,150.85001 387.28332,107.15001 396.82287,94.02001 C399.017881,91.0224193 402.507945,89.2477583 406.22326,89.2400071 L647.26281,89.2400071 C650.908769,89.2400071 654.343929,90.9486536 656.538125,93.8604442 C658.732322,96.7722349 659.430384,100.545992 658.42297,104.05001 C648.3131,139.00001 627.50304,231.61001 652.46297,336.43001 C671.02306,414.38001 662.39318,445.94001 651.88293,458.69001 Z" id="Shape" fill="#3F3D56"></path>
            <path d="M540.26249,200.40033 L416.07649,200.40033 C410.819407,200.40033 406.5577,196.138623 406.5577,190.88154 C406.5577,185.624457 410.819407,181.36275 416.07649,181.36275 L540.26249,181.36275 C545.519573,181.36275 549.78128,185.624457 549.78128,190.88154 C549.78128,196.138623 545.519573,200.40033 540.26249,200.40033 Z" id="Path" fill="#CCCCCC"></path>
            <path d="M540.26249,241.40033 L416.07649,241.40033 C410.819407,241.40033 406.5577,237.138623 406.5577,231.88154 C406.5577,226.624457 410.819407,222.36275 416.07649,222.36275 L540.26249,222.36275 C545.519573,222.36275 549.78128,226.624457 549.78128,231.88154 C549.78128,237.138623 545.519573,241.40033 540.26249,241.40033 Z" id="Path" fill="#CCCCCC"></path>
            <path d="M550.26249,283.40033 L426.07649,283.40033 C420.819407,283.40033 416.5577,279.138623 416.5577,273.88154 C416.5577,268.624457 420.819407,264.36275 426.07649,264.36275 L550.26249,264.36275 C555.519573,264.36275 559.78128,268.624457 559.78128,273.88154 C559.78128,279.138623 555.519573,283.40033 550.26249,283.40033 Z" id="Path" fill="#CCCCCC"></path>
            <path d="M557.26249,327.40033 L433.07649,327.40033 C427.819407,327.40033 423.5577,323.138623 423.5577,317.88154 C423.5577,312.624457 427.819407,308.36275 433.07649,308.36275 L557.26249,308.36275 C562.519573,308.36275 566.78128,312.624457 566.78128,317.88154 C566.78128,323.138623 562.519573,327.40033 557.26249,327.40033 Z" id="Path" fill="#CCCCCC"></path>
            <path d="M557.31515,126.490565 L468.07645,126.490565 C464.673388,126.494048 461.527336,124.680539 459.824798,121.733981 C458.122259,118.787423 458.122259,115.156107 459.824798,112.209549 C461.527336,109.262991 464.673388,107.449482 468.07645,107.452965 L557.31515,107.452965 C562.572235,107.452965 566.833945,111.71468 566.833945,116.971765 C566.833945,122.22885 562.572235,126.490565 557.31515,126.490565 L557.31515,126.490565 Z" id="Path" fill="#00B0FF"></path>
            <circle id="Oval" fill="#CCCCCC" cx="606.50305" cy="317.88152" r="13"></circle>
            <path d="M563.26249,370.40033 L439.07649,370.40033 C433.819407,370.40033 429.5577,366.138623 429.5577,360.88154 C429.5577,355.624457 433.819407,351.36275 439.07649,351.36275 L563.26249,351.36275 C568.519573,351.36275 572.78128,355.624457 572.78128,360.88154 C572.78128,366.138623 568.519573,370.40033 563.26249,370.40033 Z" id="Path" fill="#CCCCCC"></path>
            <circle id="Oval" fill="#CCCCCC" cx="612.50305" cy="360.88152" r="13"></circle>
        </g>
    </g>
</svg>