<?xml version="1.0" encoding="UTF-8"?>
<svg width="1500px" height="926px" viewBox="0 0 1500 926" version="1.1" xmlns="http://www.w3.org/2000/svg" xmlns:xlink="http://www.w3.org/1999/xlink">
    <title>building-software-engineering-ladder</title>
    <g id="building-software-engineering-ladder" stroke="none" stroke-width="1" fill="none" fill-rule="evenodd">
        <g id="cover" transform="translate(290.000000, 205.000000)" fill-rule="nonzero">
            <path d="M144.5552,235.08637 C106.447552,235.08637 75.5552,204.194018 75.5552,166.08637 C75.5552,127.978722 106.447552,97.08637 144.5552,97.08637 L772.5552,97.08637 C810.662848,97.08637 841.5552,127.978722 841.5552,166.08637 C841.5552,204.194018 810.662848,235.08637 772.5552,235.08637 L144.5552,235.08637 Z" id="Path" fill="#E6E6E6"></path>
            <path d="M144.5552,106.08637 C111.418115,106.08637 84.5552,132.949285 84.5552,166.08637 C84.5552,199.223455 111.418115,226.08637 144.5552,226.08637 L772.5552,226.08637 C805.692285,226.08637 832.5552,199.223455 832.5552,166.08637 C832.5552,132.949285 805.692285,106.08637 772.5552,106.08637 L144.5552,106.08637 Z" id="Path" fill="#FFFFFF"></path>
            <rect id="Rectangle" fill="#E6E6E6" x="208.22204" y="106.08655" width="2" height="120"></rect>
            <rect id="Rectangle" fill="#E6E6E6" x="333.05507" y="106.08655" width="2" height="120"></rect>
            <rect id="Rectangle" fill="#E6E6E6" x="458.05507" y="106.08655" width="2" height="120"></rect>
            <rect id="Rectangle" fill="#E6E6E6" x="582.05504" y="106.08655" width="2" height="120"></rect>
            <rect id="Rectangle" fill="#E6E6E6" x="707.05504" y="106.08655" width="2" height="120"></rect>
            <path d="M242.73266,148.086365 C241.696875,148.084445 240.738945,148.635925 240.220496,149.532622 C239.702047,150.429319 239.702047,151.534651 240.220496,152.431348 C240.738945,153.328045 241.696875,153.879525 242.73266,153.877606 L301.47223,153.877606 C303.071434,153.880718 304.370372,152.586834 304.373496,150.98763 C304.376608,149.388426 303.082724,148.089488 301.48352,148.086365 L242.73266,148.086365 Z" id="Path" fill="#E6E6E6"></path>
            <path d="M242.73266,163.086365 C241.696875,163.084445 240.738945,163.635925 240.220496,164.532622 C239.702047,165.429319 239.702047,166.534651 240.220496,167.431348 C240.738945,168.328045 241.696875,168.879525 242.73266,168.877606 L301.47223,168.877606 C303.071434,168.880718 304.370372,167.586834 304.373496,165.98763 C304.376608,164.388426 303.082724,163.089488 301.48352,163.086365 L242.73266,163.086365 L242.73266,163.086365 Z" id="Path" fill="#E6E6E6"></path>
            <path d="M242.73266,178.086365 C241.696875,178.084445 240.738945,178.635925 240.220496,179.532622 C239.702047,180.429319 239.702047,181.534651 240.220496,182.431348 C240.738945,183.328045 241.696875,183.879525 242.73266,183.877606 L301.47223,183.877606 C303.071434,183.880718 304.370372,182.586834 304.373496,180.98763 C304.376608,179.388426 303.082724,178.089488 301.48352,178.086365 L242.73266,178.086365 Z" id="Path" fill="#E6E6E6"></path>
            <path d="M366.73266,148.086365 C365.696875,148.084445 364.738945,148.635925 364.220496,149.532622 C363.702047,150.429319 363.702047,151.534651 364.220496,152.431348 C364.738945,153.328045 365.696875,153.879525 366.73266,153.877605 L425.47223,153.877605 C426.508015,153.879525 427.465945,153.328045 427.984394,152.431348 C428.502843,151.534651 428.502843,150.429319 427.984394,149.532622 C427.465945,148.635925 426.508015,148.084445 425.47223,148.086365 L366.73266,148.086365 Z" id="Path" fill="#00B0FF"></path>
            <path d="M366.73266,163.086365 C365.696875,163.084445 364.738945,163.635925 364.220496,164.532622 C363.702047,165.429319 363.702047,166.534651 364.220496,167.431348 C364.738945,168.328045 365.696875,168.879525 366.73266,168.877605 L425.47223,168.877605 C426.508015,168.879525 427.465945,168.328045 427.984394,167.431348 C428.502843,166.534651 428.502843,165.429319 427.984394,164.532622 C427.465945,163.635925 426.508015,163.084445 425.47223,163.086365 L366.73266,163.086365 Z" id="Path" fill="#00B0FF"></path>
            <path d="M366.73266,178.086365 C365.696875,178.084445 364.738945,178.635925 364.220496,179.532622 C363.702047,180.429319 363.702047,181.534651 364.220496,182.431348 C364.738945,183.328045 365.696875,183.879525 366.73266,183.877605 L425.47223,183.877605 C426.508015,183.879525 427.465945,183.328045 427.984394,182.431348 C428.502843,181.534651 428.502843,180.429319 427.984394,179.532622 C427.465945,178.635925 426.508015,178.084445 425.47223,178.086365 L366.73266,178.086365 Z" id="Path" fill="#00B0FF"></path>
            <path d="M491.73266,148.086365 C490.135557,148.089338 488.842421,149.384879 488.842421,150.981985 C488.842421,152.579091 490.135557,153.874632 491.73266,153.877605 L550.47223,153.877605 C551.508015,153.879525 552.465945,153.328045 552.984394,152.431348 C553.502843,151.534651 553.502843,150.429319 552.984394,149.532622 C552.465945,148.635925 551.508015,148.084445 550.47223,148.086365 L491.73266,148.086365 L491.73266,148.086365 Z" id="Path" fill="#E6E6E6"></path>
            <path d="M491.73266,163.086365 C490.135557,163.089338 488.842421,164.384879 488.842421,165.981985 C488.842421,167.579091 490.135557,168.874632 491.73266,168.877605 L550.47223,168.877605 C551.508015,168.879525 552.465945,168.328045 552.984394,167.431348 C553.502843,166.534651 553.502843,165.429319 552.984394,164.532622 C552.465945,163.635925 551.508015,163.084445 550.47223,163.086365 L491.73266,163.086365 L491.73266,163.086365 Z" id="Path" fill="#E6E6E6"></path>
            <path d="M491.73266,178.086365 C490.135557,178.089338 488.842421,179.384879 488.842421,180.981985 C488.842421,182.579091 490.135557,183.874632 491.73266,183.877605 L550.47223,183.877605 C551.508015,183.879525 552.465945,183.328045 552.984394,182.431348 C553.502843,181.534651 553.502843,180.429319 552.984394,179.532622 C552.465945,178.635925 551.508015,178.084445 550.47223,178.086365 L491.73266,178.086365 L491.73266,178.086365 Z" id="Path" fill="#E6E6E6"></path>
            <path d="M616.23266,148.086365 C614.635557,148.089338 613.342421,149.384879 613.342421,150.981985 C613.342421,152.579091 614.635557,153.874632 616.23266,153.877605 L674.97223,153.877605 C676.008015,153.879525 676.965945,153.328045 677.484394,152.431348 C678.002843,151.534651 678.002843,150.429319 677.484394,149.532622 C676.965945,148.635925 676.008015,148.084445 674.97223,148.086365 L616.23266,148.086365 L616.23266,148.086365 Z" id="Path" fill="#E6E6E6"></path>
            <path d="M616.23266,163.086365 C614.635557,163.089338 613.342421,164.384879 613.342421,165.981985 C613.342421,167.579091 614.635557,168.874632 616.23266,168.877605 L674.97223,168.877605 C676.008015,168.879525 676.965945,168.328045 677.484394,167.431348 C678.002843,166.534651 678.002843,165.429319 677.484394,164.532622 C676.965945,163.635925 676.008015,163.084445 674.97223,163.086365 L616.23266,163.086365 L616.23266,163.086365 Z" id="Path" fill="#E6E6E6"></path>
            <path d="M616.23266,178.086365 C614.635557,178.089338 613.342421,179.384879 613.342421,180.981985 C613.342421,182.579091 614.635557,183.874632 616.23266,183.877605 L674.97223,183.877605 C676.008015,183.879525 676.965945,183.328045 677.484394,182.431348 C678.002843,181.534651 678.002843,180.429319 677.484394,179.532622 C676.965945,178.635925 676.008015,178.084445 674.97223,178.086365 L616.23266,178.086365 L616.23266,178.086365 Z" id="Path" fill="#E6E6E6"></path>
            <path d="M737.73266,148.086365 C736.135557,148.089338 734.842421,149.384879 734.842421,150.981985 C734.842421,152.579091 736.135557,153.874632 737.73266,153.877605 L796.47223,153.877605 C797.508015,153.879525 798.465945,153.328045 798.984394,152.431348 C799.502843,151.534651 799.502843,150.429319 798.984394,149.532622 C798.465945,148.635925 797.508015,148.084445 796.47223,148.086365 L737.73266,148.086365 L737.73266,148.086365 Z" id="Path" fill="#E6E6E6"></path>
            <path d="M737.73266,163.086365 C736.135557,163.089338 734.842421,164.384879 734.842421,165.981985 C734.842421,167.579091 736.135557,168.874632 737.73266,168.877605 L796.47223,168.877605 C797.508015,168.879525 798.465945,168.328045 798.984394,167.431348 C799.502843,166.534651 799.502843,165.429319 798.984394,164.532622 C798.465945,163.635925 797.508015,163.084445 796.47223,163.086365 L737.73266,163.086365 L737.73266,163.086365 Z" id="Path" fill="#E6E6E6"></path>
            <path d="M737.73266,178.086365 C736.135557,178.089338 734.842421,179.384879 734.842421,180.981985 C734.842421,182.579091 736.135557,183.874632 737.73266,183.877605 L796.47223,183.877605 C797.508015,183.879525 798.465945,183.328045 798.984394,182.431348 C799.502843,181.534651 799.502843,180.429319 798.984394,179.532622 C798.465945,178.635925 797.508015,178.084445 796.47223,178.086365 L737.73266,178.086365 L737.73266,178.086365 Z" id="Path" fill="#E6E6E6"></path>
            <path d="M117.73266,148.08637 C116.135557,148.089338 114.842421,149.384879 114.842421,150.981985 C114.842421,152.579091 116.135557,153.874632 117.73266,153.877606 L176.47223,153.877606 C177.506734,153.879617 178.46373,153.329579 178.982729,152.434681 C179.501727,151.539783 179.503879,150.435981 178.988374,149.539066 C178.472868,148.642151 177.518024,148.088387 176.48352,148.08637 L117.73266,148.08637 Z" id="Path" fill="#E6E6E6"></path>
            <path d="M117.73266,163.08637 C116.135557,163.089338 114.842421,164.384879 114.842421,165.981985 C114.842421,167.579091 116.135557,168.874632 117.73266,168.877606 L176.47223,168.877606 C177.506734,168.879617 178.46373,168.329579 178.982729,167.434681 C179.501727,166.539783 179.503879,165.435981 178.988374,164.539066 C178.472868,163.642151 177.518024,163.088387 176.48352,163.08637 L117.73266,163.08637 L117.73266,163.08637 Z" id="Path" fill="#E6E6E6"></path>
            <path d="M117.73266,178.08637 C116.135557,178.089338 114.842421,179.384879 114.842421,180.981985 C114.842421,182.579091 116.135557,183.874632 117.73266,183.877606 L176.47223,183.877606 C177.506734,183.879617 178.46373,183.329579 178.982729,182.434681 C179.501727,181.539783 179.503879,180.435981 178.988374,179.539066 C178.472868,178.642151 177.518024,178.088387 176.48352,178.08637 L117.73266,178.08637 Z" id="Path" fill="#E6E6E6"></path>
            <circle id="Oval" fill="#00B0FF" cx="396.17308" cy="47.38212" r="47.38211"></circle>
            <polygon id="Path" fill="#00B0FF" points="396.173 124.408 381.357 98.747 366.542 73.086 396.173 73.086 425.803 73.086 410.988 98.747"></polygon>
            <circle id="Oval" fill="#FFFFFF" cx="396.55522" cy="47.08636" r="17"></circle>
            <path d="M887.16784,175.83005 C886.76489,175.83005 886.378449,175.669959 886.09363,175.38492 L877.88904,167.18036 C877.295756,166.587071 877.295761,165.625164 877.88905,165.03188 C878.482339,164.438596 879.444246,164.438601 880.03753,165.03189 L886.98987,171.98419 L899.31299,155.17975 C899.809823,154.504761 900.759387,154.35954 901.43525,154.855184 C902.111113,155.350829 902.258004,156.300136 901.76355,156.97687 L888.39319,175.20926 C888.130928,175.566713 887.72573,175.791915 887.28369,175.8259 C887.24499,175.82886 887.20617,175.83005 887.16784,175.83005 Z" id="Path" fill="#00B0FF"></path>
            <path d="M20.4031,175.598011 C19.788651,175.598011 19.2347501,175.227726 18.9996246,174.660043 C18.764499,174.092361 18.8944402,173.438942 19.32887,173.00441 L35.52258,156.8113 C36.1161617,156.219772 37.0766265,156.220602 37.6691849,156.813155 C38.2617433,157.405708 38.2625823,158.366173 37.67106,158.95976 L21.47731,175.15288 C21.1927354,175.438284 20.8061357,175.598483 20.4031,175.598011 L20.4031,175.598011 Z" id="Path" fill="#00B0FF"></path>
            <path d="M36.5966,175.59803 C36.193558,175.598475 35.8069486,175.438279 35.52237,175.15287 L19.32925,158.95975 C18.9454628,158.575959 18.7955787,158.016574 18.9360577,157.492309 C19.0765367,156.968044 19.4860365,156.558548 20.0103027,156.418074 C20.5345689,156.2776 21.0939528,156.427489 21.47774,156.81128 L37.67082,173.00443 C38.1052395,173.438966 38.2351743,174.092379 38.0000505,174.660057 C37.7649268,175.227735 37.2110343,175.59803 36.59659,175.59803 L36.5966,175.59803 Z" id="Path" fill="#00B0FF"></path>
            <path d="M587.95342,337.05577 C585.167132,335.524707 583.202117,332.838128 582.587122,329.71894 C581.972128,326.599751 582.770327,323.368364 584.76694,320.89428 L570.87746,224.04037 L594.23071,224.68345 L600.54029,319.68545 C604.562587,323.396596 605.173461,329.529672 601.962212,333.961303 C598.750963,338.392934 592.732619,339.722345 587.95342,337.05575 L587.95342,337.05577 Z" id="Path" fill="#A0616A"></path>
            <path d="M567.83382,239.84142 C566.757974,238.94448 566.126369,237.623265 566.10392,236.22275 L565.71204,212.05021 C564.510187,204.775 569.422127,197.899151 576.694017,196.677377 C583.965908,195.455603 590.855185,200.348693 592.09687,207.61721 L599.50973,230.71075 C599.937722,232.044412 599.764013,233.498317 599.033869,234.693608 C598.303724,235.888898 597.089464,236.707182 595.7075,236.93523 L571.70424,240.89577 C570.322128,241.124539 568.908945,240.73957 567.83382,239.84142 L567.83382,239.84142 Z" id="Path" fill="#00B0FF"></path>
            <polygon id="Path" fill="#A0616A" points="523.354 504.84 511.095 504.84 505.262 457.552 523.357 457.552"></polygon>
            <path d="M526.48087,516.72423 L486.95035,516.72277 L486.95035,516.22277 C486.95035,512.142032 488.571364,508.22842 491.456905,505.342925 C494.342445,502.45743 498.256082,500.83654 502.33682,500.83654 L502.33782,500.83654 L526.48162,500.83754 L526.48087,516.72423 Z" id="Path" fill="#2F2E41"></path>
            <polygon id="Path" fill="#A0616A" points="592.354 504.84 580.095 504.84 574.262 457.552 592.357 457.552"></polygon>
            <path d="M595.48087,516.72423 L555.95035,516.72277 L555.95035,516.22277 C555.95035,512.142032 557.571364,508.22842 560.456905,505.342925 C563.342445,502.45743 567.256082,500.83654 571.33682,500.83654 L571.33782,500.83654 L595.48162,500.83754 L595.48087,516.72423 Z" id="Path" fill="#2F2E41"></path>
            <path d="M575.08655,482.17635 L553.64392,369.17635 C553.523255,368.464828 552.899113,367.949386 552.17761,367.96541 L552.17151,367.96541 C551.452636,367.946801 550.828175,368.45658 550.70251,369.16463 L528.41223,481.941 C527.954898,484.166962 525.910443,485.703169 523.64514,485.523 L506.21887,484.12944 C505.017693,484.033249 503.905271,483.459343 503.130706,482.536235 C502.35614,481.613126 501.984145,480.41794 502.09802,479.21831 L516.75842,320.79546 L591.67761,322.74861 L592.14197,322.76131 L599.51135,481.09331 C599.569713,482.322467 599.122223,483.521913 598.273031,484.412479 C597.42384,485.303045 596.247022,485.80718 595.01648,485.80718 L579.50183,485.80718 C577.352978,485.803461 575.505256,484.284018 575.08655,482.17635 L575.08655,482.17635 Z" id="Path" fill="#2F2E41"></path>
            <circle id="Oval" fill="#A0616A" cx="551.08211" cy="156.98831" r="24.56103"></circle>
            <path d="M515.05945,329.6158 C513.345552,328.745895 512.374878,326.882078 512.64465,324.97908 C515.81995,302.2906 513.79773,262.17146 511.54187,232.51131 C509.99597,212.18416 523.65832,193.98592 543.32187,190.18025 C543.62802,190.12166 543.93369,190.06404 544.23959,190.00935 L544.23984,190.00935 C556.476792,187.770646 569.054467,191.412607 578.202,199.84335 C587.512569,208.293325 592.31065,220.62769 591.15756,233.14804 C588.24301,266.21054 593.4183,315.70565 594.4852,325.29159 C594.637466,326.73573 594.091557,328.165854 593.01572,329.1412 C583.04794,338.23886 571.02402,341.31601 559.31772,341.31601 C540.38562,341.31601 522.28431,333.26619 515.05945,329.6158 Z" id="Path" fill="#00B0FF"></path>
            <path d="M496.79864,337.32544 C499.733579,336.103279 501.976436,333.643896 502.923703,330.60906 C503.87097,327.574224 503.425343,324.27568 501.70673,321.601 L525.94389,226.80561 L502.65717,224.93047 L486.15523,318.70082 C481.756746,321.957312 480.489074,327.988951 483.204489,332.740574 C485.919905,337.492197 491.760108,339.461891 496.79864,337.3254 L496.79864,337.32544 Z" id="Path" fill="#A0616A"></path>
            <path d="M523.30706,243.47408 L499.86979,236.95208 C498.520413,236.57656 497.401316,235.632292 496.804114,234.365334 C496.206912,233.098375 496.190758,231.634217 496.75986,230.35439 L506.61615,208.19326 C508.633313,201.100802 516.009313,196.978046 523.107301,198.975663 C530.205288,200.973281 534.348348,208.337897 532.37029,215.44136 L529.37798,239.43118 C529.204184,240.821008 528.434044,242.066357 527.268242,242.842716 C526.10244,243.619074 524.656447,243.849544 523.30706,243.47407 L523.30706,243.47408 Z" id="Path" fill="#00B0FF"></path>
            <path d="M559.65622,181.20254 C561.980952,181.245671 564.291185,180.827687 566.45343,179.97274 C567.40482,179.6061 568.39243,179.30474 569.34205,178.93785 C577.72867,175.69768 583.25326,166.76597 583.45112,157.77737 C583.64898,148.78877 578.99412,140.0645 572.082,134.31499 C565.16988,128.56548 556.217,125.61365 547.25214,124.93105 C537.59553,124.19578 526.72188,126.64465 521.32587,134.68665 C519.88955,136.8273 518.88503,139.42448 519.73612,142.00911 C519.991042,142.789056 520.44632,143.48838 521.0564,144.03711 C523.46618,146.18105 525.86862,144.56902 528.32519,144.42659 C531.70172,144.23083 534.73444,146.96393 535.82444,150.16567 C536.91444,153.36741 536.43463,156.89227 535.55453,160.15795 C534.884052,162.123035 534.461371,164.164095 534.29628,166.23384 C534.151853,168.343954 535.109291,170.378621 536.82722,171.61238 C538.93713,172.88774 541.708,172.14962 543.81915,170.8763 C545.9303,169.60298 547.7545,167.83258 550.03493,166.89559 C552.31536,165.9586 555.37912,166.16643 556.70642,168.24407 C557.128243,169.000049 557.413746,169.824358 557.54987,170.67929 C558.73978,176.10054 558.4663,175.78129 559.65622,181.20251 L559.65622,181.20254 Z" id="Path" fill="#2F2E41"></path>
            <path d="M656.02822,517.75922 L402.02822,517.75922 C401.475935,517.75922 401.02822,517.311505 401.02822,516.75922 C401.02822,516.206935 401.475935,515.75922 402.02822,515.75922 L656.02822,515.75922 C656.580505,515.75922 657.02822,516.206935 657.02822,516.75922 C657.02822,517.311505 656.580505,517.75922 656.02822,517.75922 Z" id="Path" fill="#3F3D56"></path>
            <path d="M28.5,194.48217 C12.7598846,194.48217 -2.84217094e-14,181.722285 -2.84217094e-14,165.98217 C-2.84217094e-14,150.242055 12.7598846,137.48217 28.5,137.48217 C44.2401154,137.48217 57,150.242055 57,165.98217 C56.9821338,181.714879 44.232709,194.464304 28.5,194.48217 L28.5,194.48217 Z M28.5,140.48217 C14.4167389,140.48217 3,151.898909 3,165.98217 C3,180.065431 14.4167389,191.48217 28.5,191.48217 C42.5832611,191.48217 54,180.065431 54,165.98217 C53.983947,151.905564 42.5766064,140.498223 28.5,140.48217 Z" id="Shape" fill="#E6E6E6"></path>
            <path d="M888.61484,194.31661 C872.874725,194.31661 860.11484,181.556725 860.11484,165.81661 C860.11484,150.076495 872.874725,137.31661 888.61484,137.31661 C904.354955,137.31661 917.11484,150.076495 917.11484,165.81661 C917.096974,181.549319 904.347549,194.298744 888.61484,194.31661 L888.61484,194.31661 Z M888.61484,140.31661 C874.531579,140.31661 863.11484,151.733349 863.11484,165.81661 C863.11484,179.899871 874.531579,191.31661 888.61484,191.31661 C902.698101,191.31661 914.11484,179.899871 914.11484,165.81661 C914.098787,151.740004 902.691446,140.332663 888.61484,140.31661 Z" id="Shape" fill="#E6E6E6"></path>
        </g>
    </g>
</svg>