<?xml version="1.0" encoding="UTF-8"?>
<svg width="1500px" height="926px" viewBox="0 0 1500 926" version="1.1" xmlns="http://www.w3.org/2000/svg" xmlns:xlink="http://www.w3.org/1999/xlink">
    <title>internet-as-medium</title>
    <g id="internet-as-medium" stroke="none" stroke-width="1" fill="none" fill-rule="evenodd">
        <g id="cover" transform="translate(400.000000, 101.000000)" fill-rule="nonzero">
            <ellipse id="Oval" fill="#E6E6E6" cx="349.81956" cy="715.95455" rx="122" ry="7"></ellipse>
            <path d="M447.55675,710.14203 C462.85675,692.73395 534.90606,607.05048 483.69675,592.92481 C445.23527,582.31555 440.95029,640.68463 442.24119,679.8551 C436.0825,653.4646 424.12992,622.63629 403.13035,636.23828 C372.86588,655.84128 429.57435,699.2226 444.38755,709.87213 C444.63078,712.03766 444.79124,713.24121 444.79124,713.24121 C444.79124,713.24121 445.39884,712.57868 446.48197,711.35938 C447.32816,711.95191 447.79881,712.27014 447.79881,712.27014 C447.79881,712.27014 447.72002,711.5025 447.55675,710.14203 Z" id="Path" fill="#E6E6E6"></path>
            <rect id="Rectangle" fill="#E6E6E6" x="0.29861" y="8.10882" width="699.3405" height="447.88877"></rect>
            <rect id="Rectangle" fill="#FFFFFF" x="20.29609" y="64.28525" width="659.34554" height="365.21521"></rect>
            <rect id="Rectangle" fill="#E6E6E6" x="494.83962" y="101.71096" width="142.09725" height="79.9297"></rect>
            <rect id="Rectangle" fill="#E6E6E6" x="494.83962" y="206.928" width="142.09725" height="79.9297"></rect>
            <rect id="Rectangle" fill="#E6E6E6" x="494.83962" y="312.14504" width="142.09725" height="79.9297"></rect>
            <rect id="Rectangle" fill="#E6E6E6" x="63.00086" y="101.71096" width="142.09725" height="79.9297"></rect>
            <rect id="Rectangle" fill="#E6E6E6" x="63.00086" y="206.928" width="142.09725" height="79.9297"></rect>
            <rect id="Rectangle" fill="#E6E6E6" x="63.00086" y="312.14504" width="142.09725" height="79.9297"></rect>
            <circle id="Oval" fill="#2F2E41" cx="357.9141" cy="120.16244" r="28.89501"></circle>
            <path d="M460.89098,28.25173 L470.54483,20.15496 C472.974097,18.1175051 474.446012,15.1610875 474.607621,11.9946314 C474.769231,8.82817543 473.605959,5.73726329 471.39675,3.46307 L471.39675,3.46307 C468.693375,0.680184973 464.761088,-0.538218568 460.957846,0.228616893 C457.154604,0.995452354 454.00168,3.64242415 452.58789,7.25544 L447.98048,19.02994 L411.09324,82.35304 L392.34224,133.68778 L407.40453,151.82401 L427.69253,89.1157 L460.89098,28.25173 Z" id="Path" fill="#A0616A"></path>
            <path d="M255.55201,28.25173 L245.89816,20.15496 C243.468888,18.1175084 241.996969,15.1610899 241.835359,11.9946319 C241.67375,8.82817399 242.837025,5.73726051 245.04624,3.46307 L245.04624,3.46307 C247.749617,0.68018544 251.681905,-0.538217656 255.485148,0.22861763 C259.288392,0.995452917 262.441317,3.64242408 263.85511,7.25544 L268.46252,19.02994 L305.34976,82.35304 L325.94514,134.30257 L309.03849,151.82401 L288.75056,89.11568 L255.55201,28.25173 Z" id="Path" fill="#A0616A"></path>
            <circle id="Oval" fill="#2F2E41" cx="359.14367" cy="91.26743" r="14.7549"></circle>
            <polygon id="Path" fill="#A0616A" points="360.373 552.973 347.155 552.051 347.77 371.918 380.354 379.91"></polygon>
            <path d="M345.54628,597.75628 L345.54628,597.75628 C340.189981,597.637416 335.469568,594.207639 333.70161,589.15013 C330.82645,580.70366 332.3124,572.66699 337.31874,564.96113 L335.68313,553.51182 C335.160148,549.850899 336.254097,546.14342 338.6807,543.35282 L347.15534,533.60698 L347.15534,545.90268 C353.35845,540.47729 357.18286,540.28111 362.52502,544.67311 L357.60673,569.87939 L358.80757,583.68904 C359.127433,587.367496 357.861921,591.007574 355.329144,593.69428 C352.796367,596.380986 349.237193,597.858811 345.54628,597.75628 L345.54628,597.75628 Z" id="Path" fill="#2F2E41"></path>
            <path d="M381.58341,187.48166 L329.94128,186.25208 C337.25884,179.13889 347.73859,151.86384 345.92575,143.83176 L371.13203,143.83176 C368.10627,152.09793 373.96256,180.17699 381.58341,187.48166 Z" id="Path" fill="#A0616A"></path>
            <path d="M395.10873,282.15891 L323.7934,261.25614 L326.25255,230.51677 L320.10468,199.16262 C320.73179,195.76107 304.49993,153.74511 305.34978,150.59442 C308.74509,138.00688 317.63764,139.74642 324.10078,130.61383 C325.15008,129.13112 333.34103,139.55983 338.63788,146.61139 C339.26656,147.69761 339.69854,148.43388 339.99621,148.93289 C341.989085,152.297471 342.855479,156.210527 342.46915,160.10189 L342.46272,160.16989 L342.46272,160.16989 C339.56044,170.21623 346.2288,166.09722 356.6845,166.27148 L356.6845,166.27148 C365.55488,166.41932 373.59116,173.44773 373.59116,164.57613 L373.59116,164.57613 C373.57657,164.07328 373.55433,163.54799 373.53063,163.00813 C373.354684,158.467743 374.432441,153.966584 376.64571,149.99827 C376.78264,149.74964 376.12903,150.78788 379.47471,145.08402 C385.47443,136.60017 393.73637,125.32719 394.18654,126.92508 C396.08167,133.6518 405.83388,139.30319 409.24883,151.20918 C409.77446,153.04175 406.60704,164.16553 406.78968,165.96408 C408.15892,179.44766 405.56011,186.86685 404.33053,197.31823 C396.690566,224.914014 393.576211,253.566119 395.10873,282.15891 L395.10873,282.15891 Z" id="Path" fill="#00B0FF"></path>
            <path d="M385.27214,387.28754 L344.69614,374.9918 L344.08135,338.10456 L312.11241,276.62582 L324.40816,256.33782 L394.49392,274.78144 C399.27566,305.4254 394.00524,344.84504 385.27214,387.28754 Z" id="Path" fill="#2F2E41"></path>
            <polygon id="Path" fill="#2F2E41" points="366.214 338.105 344.081 338.105 302.891 280.315 317.646 268.019"></polygon>
            <path d="M376.66511,337.489826 L339.88921,337.489826 C331.165363,337.503805 322.638292,334.897956 315.41255,330.00977 C299.29214,319.113 294.13118,297.68927 302.89063,280.3146 L302.89063,280.3146 L376.66511,284.00332 L376.66511,337.489826 Z" id="Path" fill="#2F2E41"></path>
            <path d="M344.48756,296.05051 L312.11245,295.06944 C311.991117,294.762107 311.87598,294.453257 311.76704,294.14289 C307.46114,281.88021 313.93593,268.54932 325.91574,263.50965 C327.12196,263.00222 328.3466,262.53338 329.59843,262.10126 C335.456734,260.057579 341.939893,260.948991 347.029231,264.497935 C352.118569,268.046878 355.195956,273.822313 355.30318,280.02593 C355.336585,282.489194 355.183229,284.951447 354.84443,287.39153 C354.101545,292.49449 349.64141,296.223436 344.48756,296.05051 L344.48756,296.05051 Z" id="Path" fill="#A0616A"></path>
            <polygon id="Path" fill="#A0616A" points="326.867 394.665 313.957 394.665 312.112 290.151 348.385 289.536"></polygon>
            <path d="M312.34777,440.5899 L312.34777,440.5899 C306.991472,440.471041 302.271059,437.041261 300.50311,431.98375 C297.62795,423.53728 299.1139,415.50061 304.12024,407.79475 L302.48456,396.3454 C301.961578,392.684479 303.055527,388.977 305.48213,386.1864 L313.95677,376.44056 L313.95677,388.73628 C320.15988,383.31089 323.98429,383.11471 329.32646,387.50671 L324.40816,412.71299 L325.609,426.52264 C325.928871,430.201089 324.663371,433.841165 322.130606,436.527874 C319.597841,439.214583 316.038677,440.692418 312.34777,440.5899 Z" id="Path" fill="#2F2E41"></path>
            <circle id="Oval" fill="#A0616A" cx="358.83628" cy="127.84728" r="25.20628"></circle>
            <path d="M380.96863,116.78111 C380.96863,129.68354 369.27956,111.24803 356.37713,111.24803 C343.4747,111.24803 334.24479,129.68354 334.24479,116.78111 C334.24479,103.878678 344.704278,93.4191914 357.60671,93.4191914 C370.509142,93.4191914 380.96863,103.878678 380.96863,116.78111 L380.96863,116.78111 Z" id="Path" fill="#2F2E41"></path>
            <rect id="Rectangle" fill="#00B0FF" x="0" y="7.71237" width="699.3405" height="29.71054"></rect>
            <circle id="Oval" fill="#FFFFFF" cx="22.07849" cy="22.90197" r="5.50662"></circle>
            <circle id="Oval" fill="#FFFFFF" cx="42.98024" cy="22.90197" r="5.50662"></circle>
            <circle id="Oval" fill="#FFFFFF" cx="63.882" cy="22.90197" r="5.50662"></circle>
        </g>
    </g>
</svg>