<?xml version="1.0" encoding="UTF-8"?>
<svg width="1500px" height="926px" viewBox="0 0 1500 926" version="1.1" xmlns="http://www.w3.org/2000/svg" xmlns:xlink="http://www.w3.org/1999/xlink">
    <title>zooming-in-and-out</title>
    <defs>
        <linearGradient x1="50.0000004%" y1="100%" x2="50.0000004%" y2="-5.20541196e-07%" id="linearGradient-1">
            <stop stop-color="#808080" stop-opacity="0.25" offset="0%"></stop>
            <stop stop-color="#808080" stop-opacity="0.12" offset="53.514%"></stop>
            <stop stop-color="#808080" stop-opacity="0.1" offset="100%"></stop>
        </linearGradient>
        <linearGradient x1="50.0026266%" y1="100%" x2="50.0026266%" y2="0.00438665597%" id="linearGradient-2">
            <stop stop-color="#808080" stop-opacity="0.25" offset="0%"></stop>
            <stop stop-color="#808080" stop-opacity="0.12" offset="53.514%"></stop>
            <stop stop-color="#808080" stop-opacity="0.1" offset="100%"></stop>
        </linearGradient>
    </defs>
    <g id="zooming-in-and-out" stroke="none" stroke-width="1" fill="none" fill-rule="evenodd">
        <g id="cover" transform="translate(307.000000, 66.000000)" fill-rule="nonzero">
            <path d="M0,0 L886,0 L886,0 C886,405.377333 557.377333,734 152.00073,734 L0,734 L0,0 Z" id="Path" fill="#3F3D56"></path>
            <circle id="Oval" fill="#F2F2F2" cx="652.85898" cy="178.42493" r="71.88313"></circle>
            <circle id="Oval" fill="#FF6584" cx="432.07507" cy="32.60485" r="6.16141"></circle>
            <circle id="Oval" fill="#FF6584" cx="632.32095" cy="445.41942" r="6.16141"></circle>
            <circle id="Oval" fill="#F2F2F2" cx="652.85898" cy="32.60485" r="6.16141"></circle>
            <circle id="Oval" fill="#F2F2F2" cx="739.11874" cy="329.37951" r="6.16141"></circle>
            <circle id="Oval" fill="#F2F2F2" cx="493.68919" cy="198.96296" r="6.16141"></circle>
            <circle id="Oval" fill="#F2F2F2" cx="168.16128" cy="157.88689" r="6.16141"></circle>
            <circle id="Oval" fill="#00B0FF" cx="284.2012" cy="413.58546" r="209.48799"></circle>
            <circle id="Oval" fill="#000000" opacity="0.2" cx="274.95908" cy="328.3526" r="30.80706"></circle>
            <circle id="Oval" fill="#000000" opacity="0.2" cx="274.95908" cy="534.75989" r="53.3989"></circle>
            <circle id="Oval" fill="#000000" opacity="0.2" cx="119.89689" cy="453.63464" r="13.34972"></circle>
            <circle id="Oval" fill="#000000" opacity="0.2" cx="646.60588" cy="141.34643" r="7.09663"></circle>
            <circle id="Oval" fill="#000000" opacity="0.2" cx="345.72362" cy="282.03199" r="7.09663"></circle>
            <circle id="Oval" fill="#000000" opacity="0.2" cx="265.71696" cy="422.82758" r="9.24212"></circle>
            <circle id="Oval" fill="#000000" opacity="0.2" cx="629.33193" cy="198.04609" r="7.09663"></circle>
            <circle id="Oval" fill="#000000" opacity="0.2" cx="438.32817" cy="372.61941" r="7.09663"></circle>
            <circle id="Oval" fill="#000000" opacity="0.2" cx="692.9265" cy="191.35289" r="10.25068"></circle>
            <circle id="Oval" fill="#000000" opacity="0.2" cx="379.72141" cy="444.99766" r="10.25068"></circle>
            <circle id="Oval" fill="#000000" opacity="0.2" cx="154.81156" cy="328.3526" r="13.34972"></circle>
            <path d="M329.58946,534.3377 C307.558883,534.30804 285.547505,533.036097 263.66015,530.52793 C197.82915,523.0518 137.11455,505.38593 92.70104,480.78536 C47.74404,455.88299 24.73949,426.72459 27.92404,398.68136 C30.13027,379.25245 48.90934,361.86231 85.33377,345.51913 C86.3684298,345.057191 87.5817436,345.520247 88.045553,346.55407 C88.5093624,347.587892 88.048502,348.802042 87.01552,349.26772 C52.02815,364.96508 34.0343,381.28018 32.00557,399.14467 C29.02013,425.42994 51.28257,453.14727 94.69171,477.19222 C138.64392,501.53802 198.81596,519.02945 264.12351,526.44641 C329.43151,533.86341 391.99285,530.30932 440.28532,516.44013 C487.98111,502.74142 515.89198,480.72219 518.87641,454.43692 C520.89612,436.65466 511.10141,417.80038 490.55141,399.91083 C489.695711,399.165903 489.605913,397.868339 490.35084,397.01264 C491.095767,396.156941 492.393331,396.067143 493.24903,396.81207 C514.86411,415.62925 525.13715,435.71601 522.95803,454.90022 C519.77303,482.94347 490.8162,506.20122 441.41961,520.38728 C409.25809,529.62438 370.87062,534.3377 329.58946,534.3377 Z" id="Path" fill="#FFFFFF"></path>
            <path d="M651.0581,379.776 C651.0581,379.776 693.81141,368.14518 713.91775,342.6664 C713.91775,342.6664 693.26887,376.86491 651.0581,379.776 Z" id="Path" fill="#000000" opacity="0.1"></path>
            <circle id="Oval" fill="#00B0FF" cx="745.66845" cy="279.34348" r="7.27772"></circle>
        </g>
        <g id="undraw_Appreciation_sjc1" transform="translate(776.000000, 410.000000)" fill-rule="nonzero">
            <path d="M347.828295,270.652192 C327.701737,229.757018 343.802981,194.225146 371.98016,169.419899 C410.891506,151.31876 449.131987,159.363712 477.309148,195.565995 C495.695851,184.828247 519.105909,182.503546 538.359705,186.850632 C553.215803,130.934751 539.304603,63.8952326 489.717235,27.7540867 C425.215593,-19.2571889 334.789799,-5.11521788 287.745438,59.3409288 C223.243814,12.3296658 132.818027,26.4716368 85.773646,90.9277458 C38.7292653,155.383855 52.8811353,245.746056 117.382765,292.757338 L350.963682,463 L412.90416,377.247814 L347.828295,270.652192 Z" id="Path" fill="url(#linearGradient-1)"></path>
            <path d="M477.450064,200.896415 C464.449391,178.551547 440.556373,164.867474 414.774969,165 C388.993565,165.134461 365.242499,179.06523 352.472237,201.543537 C339.701975,224.021844 339.853572,251.631029 352.869899,273.966715 L425.675357,399 L550.255547,325.929726 C572.509659,312.876978 586.134983,288.900135 586,263.031041 C585.863,237.161947 571.986353,213.330733 549.59625,200.514386 C527.206147,187.698039 499.704176,187.843668 477.450064,200.896415 Z" id="Path" fill="url(#linearGradient-2)"></path>
            <path d="M477.35721,203.200713 C458.163453,170.295346 415.979203,159.209364 383.13605,178.439479 C350.292897,197.669594 339.227875,239.933754 358.421631,272.839122 L427.928361,392 L546.863946,322.361598 C579.707101,303.131484 590.772125,260.867324 571.57837,227.961954 C552.384615,195.056584 510.200365,183.970599 477.35721,203.200713 Z" id="Path" fill="#E53935"></path>
            <path d="M544.979026,323.571534 C577.654421,304.379534 588.710513,262.227408 569.69523,229.339273 C550.679946,196.451138 508.768045,185.236192 476,204.267947 L544.249589,324 L544.979026,323.571534 Z" id="Path" fill="#000000" opacity="0.2"></path>
            <path d="M533.367635,183.727564 C514.300237,179.393255 494.298328,182.485908 477.429071,192.376666 C455.916737,155.570768 408.651964,143.173857 371.852842,164.68545 C335.05372,186.197042 322.651324,233.473476 344.149372,270.287725 L405.385141,375.107798 L348.598313,453 L231.989573,367.923261 L241.811174,362.184431 C281.757847,338.832219 296.710974,288.464057 275.980736,247.087568 C255.250499,205.711078 205.962196,187.547991 163.35147,205.582889 C159.887998,207.054349 156.521472,208.744411 153.272232,210.642865 C135.996563,181.058839 103.089507,164.235926 69,167.560784 C69.5441091,160.590138 70.6154238,153.670747 72.2047452,146.862025 C72.380692,146.107743 72.5692065,145.347175 72.7577209,144.586607 C73.5117786,141.600907 74.3663668,138.631969 75.3214857,135.679793 C75.3969291,135.453508 75.4660448,135.220938 75.5477344,134.994653 C75.9813176,133.687231 76.440036,132.379808 76.9113221,131.078672 C77.4517301,129.59525 78.0235572,128.111828 78.6205195,126.640978 C78.9158588,125.905553 79.2174819,125.170128 79.5316726,124.440989 C79.8333208,123.730706 80.1412277,123.020424 80.4553933,122.310142 C80.4645784,122.28857 80.4750709,122.267578 80.4868123,122.247285 C80.8072869,121.518146 81.140329,120.795292 81.479655,120.072438 C81.5173579,119.984439 81.5550608,119.896439 81.5990475,119.814725 C81.9006705,119.173585 82.2022936,118.538731 82.5164843,117.903877 C82.8683779,117.181023 83.2265553,116.464455 83.5910166,115.747887 C84.3639257,114.220466 85.1745377,112.711902 86.0165688,111.203337 C86.3181919,110.650197 86.6323826,110.103343 86.9528572,109.556488 C87.329886,108.896491 87.7131987,108.236494 88.109079,107.582783 C88.2913096,107.28107 88.4735402,106.973072 88.6620546,106.671359 C89.6863163,104.98051 90.7545647,103.306422 91.8667999,101.649097 C92.1244614,101.259385 92.3883816,100.869672 92.6585604,100.47996 C93.0230217,99.9456765 93.3937667,99.4113934 93.7645117,98.8833959 C94.2106625,98.2548274 94.6568134,97.626259 95.1155318,96.9976905 C140.082506,35.3288405 226.516402,21.7957619 288.166871,66.7761198 C333.133846,5.10726974 419.56771,-8.42580885 481.224495,36.554549 C527.284248,70.1613619 547.99171,128.607778 533.367635,183.727564 Z" id="Path" fill="#00B0FF"></path>
            <path d="M144.962642,223.621596 C123.272863,186.454904 75.641541,173.941923 38.5570903,195.668337 C1.47263946,217.394752 -11.0315577,265.138921 10.6234543,302.325982 L89.1321689,437 L223.471356,358.295614 C260.547833,336.552769 273.031282,288.801136 251.358182,251.623054 C229.685082,214.444972 182.057456,201.910209 144.962642,223.621596 Z" id="Path" fill="#E53935"></path>
            <path d="M288,67.526525 L163.179722,205.952533 C159.722554,207.420355 156.362157,209.106239 153.118831,211 C135.874609,181.489108 103.027454,164.707782 69,168.024421 C69.5431187,161.071007 70.6124832,154.168721 72.1989116,147.376831 C72.3745382,146.624414 72.5627094,145.865726 72.7508807,145.107038 C73.4972934,142.128719 74.3503261,139.16712 75.3099787,136.222242 C75.3852848,135.996517 75.4542747,135.764521 75.5358156,135.538796 C75.9686095,134.234631 76.4223113,132.93253 76.8969211,131.632495 C77.4363454,130.152741 78.0008592,128.672986 78.6030073,127.205772 C78.897809,126.472165 79.198883,125.738558 79.5125018,125.011221 C79.8136009,124.302695 80.1209473,123.594168 80.434541,122.885642 C80.4437094,122.864123 80.4541828,122.843184 80.4659029,122.82294 C80.7857941,122.095603 81.11823,121.374537 81.4569383,120.65347 C81.4945725,120.565688 81.5322068,120.477906 81.5761134,120.396394 C81.8771875,119.756839 82.1782615,119.123554 82.4918803,118.49027 C82.8431333,117.769203 83.2006587,117.054406 83.5644565,116.33961 C84.3359588,114.815964 85.1450952,113.311129 85.9855936,111.806294 C86.2866676,111.254521 86.6002864,110.709019 86.9201776,110.163516 C87.2965201,109.505151 87.679135,108.846785 88.0742947,108.19469 C88.2561936,107.893723 88.4380925,107.586486 88.6262638,107.285519 C89.648661,105.59885 90.7149649,103.928901 91.8251754,102.275673 C92.0823679,101.886924 92.3458077,101.498175 92.6154948,101.109426 C92.9792926,100.576463 93.3493627,100.043501 93.7194329,99.5168086 C94.1647716,98.889794 94.6101103,98.2627795 95.0679937,97.6357649 C139.953115,36.1193649 226.229675,22.6197412 287.767922,67.4889041 C287.830646,67.4136624 287.887097,67.3321505 287.949821,67.2569087 L288,67.526525 Z" id="Path" fill="#000000" opacity="0.2"></path>
        </g>
    </g>
</svg>