<?xml version="1.0" encoding="UTF-8"?>
<svg width="1500px" height="926px" viewBox="0 0 1500 926" version="1.1" xmlns="http://www.w3.org/2000/svg" xmlns:xlink="http://www.w3.org/1999/xlink">
    <title>cultivate-habits</title>
    <g id="cultivate-habits" stroke="none" stroke-width="1" fill="none" fill-rule="evenodd">
        <g id="cover" transform="translate(241.000000, 128.000000)">
            <path d="M19.75,213.04 C12.07,236.29 34.65,257.2 52.41,274.04 C76.7195608,297.142097 95.9010108,325.09659 108.71,356.09 C116.43,374.82 121.8,394.97 120.36,415.18 C116.28,472.5 62.3,510.69 19.17,548.66 C13.06,554.09 6.95,559.77 3.39,567.09 C-8.04,590.58 11.39,617.65 32.79,632.63 C109,685.95 219,670.09 292.92,613.64 C331.2,584.4 364.1,544.64 410.49,531.64 C440.15,523.37 471.63,527.29 502.32,529.84 C548.336756,533.652614 594.565793,534.200652 640.66,531.48 C656.84,530.48 673.76,528.92 687.31,520.03 C721.62,497.55 715.83,444.25 740.59,411.55 C758.39,388.05 788.8,378.99 815.27,366 C856.012812,345.895536 890.010058,314.34826 913.1,275.22 C934.35,239.05 945.36,197.93 956.1,157.39 C964.2,126.93 972.33,95.03 965.47,64.26 C958.61,33.49 931.53,4.76 900.13,7.46 C876.02,9.53 856.84,28.58 833.62,35.4 C778,51.78 724,-5.11 666.3,0.38 C629.97,3.83 600.67,31.38 578.52,60.38 C556.37,89.38 537.62,122.03 508.37,143.87 C462.87,177.87 400.53,179.07 344.83,168.06 C289.13,157.05 235.69,135.38 179.37,128.16 C146.19,123.91 120.76,143.68 90.88,154.55 C63.46,164.53 29.91,182.29 19.75,213.04 Z" id="Path" fill="#00B0FF" fill-rule="nonzero" opacity="0.1"></path>
            <ellipse id="Oval" fill="#00B0FF" fill-rule="nonzero" opacity="0.1" cx="137.95" cy="646.08" rx="72.74" ry="22.1"></ellipse>
            <ellipse id="Oval" fill="#00B0FF" fill-rule="nonzero" opacity="0.1" cx="825.73" cy="363.42" rx="194.27" ry="12.89"></ellipse>
            <g id="Group" opacity="0.5" transform="translate(638.000000, 68.000000)" fill="#00B0FF" fill-rule="nonzero">
                <path d="M70.28,0.4 L70.28,0.4 C75.8912131,0.4 80.44,4.94878694 80.44,10.56 L80.44,293.06 L60.12,293.06 L60.12,10.55 C60.125519,4.94269258 64.6726899,0.4 70.28,0.4 Z" id="Path"></path>
                <path d="M293.21,0.39987677 L293.21,0.39987677 C298.821213,0.39987677 303.37,4.94878694 303.37,10.56 L303.37,293.06 L283,293.06 L283,10.55 C283.002626,7.84844843 284.081085,5.25918035 285.996993,3.35453181 C287.9129,1.44988327 290.50848,0.38670368 293.21,0.39987677 L293.21,0.39987677 Z" id="Path"></path>
                <rect id="Rectangle" transform="translate(181.750000, 53.390000) rotate(90.000000) translate(-181.750000, -53.390000) " x="171.59" y="-127.53" width="20.32" height="361.84" rx="10.16"></rect>
                <rect id="Rectangle" x="38.16" y="15.22" width="15.92" height="76.32" rx="7.96"></rect>
                <rect id="Rectangle" x="22.24" y="22.36" width="15.92" height="62.05" rx="7.96"></rect>
                <rect id="Rectangle" transform="translate(317.370000, 53.380000) rotate(-180.000000) translate(-317.370000, -53.380000) " x="309.41" y="15.22" width="15.92" height="76.32" rx="7.96"></rect>
                <rect id="Rectangle" transform="translate(333.290000, 53.375000) rotate(180.000000) translate(-333.290000, -53.375000) " x="325.33" y="22.35" width="15.92" height="62.05" rx="7.96"></rect>
            </g>
            <g id="Group" opacity="0.5" transform="translate(782.000000, 186.000000)" fill="#00B0FF" fill-rule="nonzero">
                <path d="M17.46,0.64 L59,0.64 C68.3888407,0.64 76,8.25115925 76,17.64 L76,89 L0.5,89 L0.5,17.64 C0.5,8.26675807 8.08678401,0.662054687 17.46,0.64 Z" id="Path"></path>
                <rect id="Rectangle" x="32.68" y="82.59" width="11.05" height="36.83"></rect>
                <rect id="Rectangle" x="10.58" y="124.02" width="11.05" height="36.83"></rect>
                <rect id="Rectangle" x="56.62" y="124.02" width="11.05" height="36.83"></rect>
                <rect id="Rectangle" x="0.46" y="116.65" width="75.5" height="10.13"></rect>
            </g>
            <ellipse id="Oval" fill="#00B0FF" fill-rule="nonzero" opacity="0.1" cx="473.09" cy="577.95" rx="414.32" ry="30.38"></ellipse>
            <path d="M580.36,469.76 C580.36,469.76 608.9,482.65 622.71,482.65 C622.71,482.65 637.44,486.33 645.71,490.02 C653.98,493.71 686.22,495.54 686.22,495.54 C686.22,495.54 723.97,509.35 728.57,515.8 C733.17,522.25 746.98,492.8 746.98,492.8 L739.61,474.39 L600.61,447.69 L580.36,469.76 Z" id="Path" fill="#FFB9B9" fill-rule="nonzero"></path>
            <path d="M580.36,469.76 C580.36,469.76 608.9,482.65 622.71,482.65 C622.71,482.65 637.44,486.33 645.71,490.02 C653.98,493.71 686.22,495.54 686.22,495.54 C686.22,495.54 723.97,509.35 728.57,515.8 C733.17,522.25 746.98,492.8 746.98,492.8 L739.61,474.39 L600.61,447.69 L580.36,469.76 Z" id="Path" fill="#000000" fill-rule="nonzero" opacity="0.05"></path>
            <path d="M721.23,510.28 C721.23,510.28 738.72,533.28 731.36,547.11 C724,560.94 726.76,560.92 731.36,561.84 C735.96,562.76 761.74,568.29 764.51,548.03 C767.28,527.77 772.8,482.66 772.8,482.66 L735,478.97 C735,478.97 745.17,513.04 721.23,510.28 Z" id="Path" fill="#737A9D" fill-rule="nonzero"></path>
            <path d="M503.94,439.38 L583.12,476.21 C583.12,476.21 607.98,456.87 606.12,446.75 L514.05,424.65 L503.94,439.38 Z" id="Path" fill="#4C4C78" fill-rule="nonzero"></path>
            <path d="M503.94,439.38 L583.12,476.21 C583.12,476.21 607.98,456.87 606.12,446.75 L514.05,424.65 L503.94,439.38 Z" id="Path" fill="#000000" fill-rule="nonzero" opacity="0.1"></path>
            <path d="M836.32,487.26 L828,507.51 L808.7,512.09 C803.292313,507.576837 797.507818,503.535385 791.41,500.01 C781.02,494.01 767.35,488.14 754.41,489.07 C754.41,489.07 702.85,480.78 700.09,477.07 C700.09,477.07 666.94,469.7 659.58,470.62 C656.03,471.06 648.4,468.51 641.46,465.74 C634.01,462.74 627.35,459.57 627.35,459.57 L651.29,421.82 C654.082196,423.021908 656.956062,424.024419 659.89,424.82 C669.04,427.5 685.51,430.98 709.3,430.98 C747.97,430.98 801.37,470.57 801.37,470.57 C801.37,470.57 801.9,470.75 802.81,471.02 C806.81,472.23 818.21,475.08 823.47,470.57 C829.87,465.16 836.32,487.26 836.32,487.26 Z" id="Path" fill="#FFB9B9" fill-rule="nonzero"></path>
            <path d="M836.32,487.26 L828,507.51 L808.7,512.09 C803.292313,507.576837 797.507818,503.535385 791.41,500.01 C819.49,502.12 802.72,471.12 802.72,471.12 L802.78,471.12 C806.78,472.33 818.18,475.18 823.44,470.67 C829.87,465.16 836.32,487.26 836.32,487.26 Z" id="Path" fill="#000000" fill-rule="nonzero" opacity="0.1"></path>
            <path d="M791.52,500.79 C791.52,500.79 813.79,532.02 804.42,549.61 C795.05,567.2 798.56,567.19 804.42,568.37 C810.28,569.55 843.11,576.58 846.62,550.79 C849.32,530.96 846.95,492.9 845.71,476.38 C845.549953,474.273524 844.551849,472.319213 842.93916,470.95463 C841.32647,469.590046 839.233911,468.929181 837.13,469.12 L804.56,472.12 C804.56,472.12 822,504.31 791.52,500.79 Z" id="Path" fill="#737A9D" fill-rule="nonzero"></path>
            <polygon id="Path" fill="#00B0FF" fill-rule="nonzero" points="262.71 531.45 263.63 576.57 273.76 583.93 308.75 583.93 315.19 574.73 315.19 531.45 305.06 522.24 271.92 522.24"></polygon>
            <path d="M268.23,532.37 C268.23,532.37 274.68,573.8 268.23,577.49 L263.63,576.57 L262.71,532.38 L268.23,532.37 Z" id="Path" fill="#FFFFFF" fill-rule="nonzero" opacity="0.2"></path>
            <path d="M343.73,528.69 L351.1,521.32 L386.1,521.32 L393.47,528.69 C393.47,528.69 402.68,555.39 395.31,572.88 L387,581.17 L352,581.17 L343.71,573.8 L343.73,528.69 Z" id="Path" fill="#00B0FF" fill-rule="nonzero"></path>
            <polygon id="Path" fill="#000000" fill-rule="nonzero" opacity="0.1" points="262.71 531.45 263.63 576.57 273.76 583.93 308.75 583.93 315.19 574.73 315.19 531.45 305.06 522.24 271.92 522.24"></polygon>
            <path d="M343.73,528.69 L351.1,521.32 L386.1,521.32 L393.47,528.69 C393.47,528.69 402.68,555.39 395.31,572.88 L387,581.17 L352,581.17 L343.71,573.8 L343.73,528.69 Z" id="Path" fill="#000000" fill-rule="nonzero" opacity="0.1"></path>
            <path d="M352,530.53 C352,530.53 359.37,562.76 352,573.8 L343.71,573.8 L343.71,528.69 L352,530.53 Z" id="Path" fill="#FFFFFF" fill-rule="nonzero" opacity="0.2"></path>
            <path d="M315.19,375.85 C315.19,375.85 318.87,411.76 318.87,416.36 C318.87,420.96 317.03,451.36 322.55,480.81 C328.07,510.26 318.87,547.09 318.87,547.09 L349.25,547.09 L362.14,447.65 L352.93,395.17 L349.25,378.6 L315.19,375.85 Z" id="Path" fill="#FFB9B9" fill-rule="nonzero"></path>
            <path d="M315.19,375.85 C315.19,375.85 318.87,411.76 318.87,416.36 C318.87,420.96 317.03,451.36 322.55,480.81 C328.07,510.26 318.87,547.09 318.87,547.09 L349.25,547.09 L362.14,447.65 L352.93,395.17 L349.25,378.6 L315.19,375.85 Z" id="Path" fill="#000000" fill-rule="nonzero" opacity="0.05"></path>
            <path d="M309.67,284.7 C309.67,284.7 269.16,285.62 301.38,352.83 C301.38,352.83 309.67,380.45 309.67,385.06 C309.67,389.67 351.1,389.66 355.67,385.06 C360.24,380.46 348.3,342.71 348.3,325.21 C348.3,307.71 336.37,279.18 309.67,284.7 Z" id="Path" fill="#CBCDDA" fill-rule="nonzero"></path>
            <path d="M309.67,284.7 C309.67,284.7 269.16,285.62 301.38,352.83 C301.38,352.83 309.67,380.45 309.67,385.06 C309.67,389.67 351.1,389.66 355.67,385.06 C360.24,380.46 348.3,342.71 348.3,325.21 C348.3,307.71 336.37,279.18 309.67,284.7 Z" id="Path" fill="#000000" fill-rule="nonzero" opacity="0.05"></path>
            <path d="M260.87,245.09 C260.87,245.09 295.87,282.84 325.32,255.22 L321.64,352.82 C321.64,352.82 273.76,294.82 240.64,299.42 L260.87,245.09 Z" id="Path" fill="#FFB9B9" fill-rule="nonzero"></path>
            <path d="M659.85,424.93 C658.45,435.72 654.05,458.44 641.42,465.8 C633.97,462.8 627.31,459.63 627.31,459.63 L651.25,421.88 C654.04087,423.09892 656.914762,424.118149 659.85,424.93 L659.85,424.93 Z" id="Path" fill="#000000" fill-rule="nonzero" opacity="0.1"></path>
            <path d="M657.7,419.09 C657.7,419.09 654.94,464.21 632.84,467.89 L499.36,443.81 C492.881814,442.632942 486.790815,439.886155 481.62,435.81 C476.23,431.57 469.62,425.81 465.71,420.53 C463.59,417.65 462.31,414.9 462.52,412.63 C463.44,402.5 503.95,378.56 490.14,336.21 C492.103481,334.655381 494.287405,333.401647 496.62,332.49 C508.15,327.7 534.69,324.18 573,363.83 C573,363.88 643.89,420.97 657.7,419.09 Z" id="Path" fill="#4C4C78" fill-rule="nonzero"></path>
            <polygon id="Path" fill="#00B0FF" fill-rule="nonzero" points="296.78 535.13 297.7 580.25 307.82 587.62 342.81 587.62 349.26 578.41 349.26 535.13 339.13 525.93 305.98 525.93"></polygon>
            <path d="M302.3,536.09 C302.3,536.09 308.75,577.52 302.3,581.21 L297.7,580.29 L296.78,536.09 L302.3,536.09 Z" id="Path" fill="#FFFFFF" fill-rule="nonzero" opacity="0.2"></path>
            <path d="M398.06,531.45 L405.43,524.08 L440.43,524.08 L447.8,531.45 C447.8,531.45 457.01,558.15 449.64,575.64 L441.35,583.93 L406.35,583.93 L398.06,576.56 L398.06,531.45 Z" id="Path" fill="#00B0FF" fill-rule="nonzero"></path>
            <path d="M406.34,533.29 C406.34,533.29 413.71,565.52 406.34,576.56 L398.05,576.56 L398.05,531.45 L406.34,533.29 Z" id="Path" fill="#FFFFFF" fill-rule="nonzero" opacity="0.2"></path>
            <path d="M349,548.95 L398.81,548.95 C402.71,548.95 405.87,552.45 405.87,556.78 L405.87,556.78 C405.87,561.1 402.71,564.61 398.81,564.61 L349,564.61 C344.77,564.61 341.49,560.52 342,555.87 L342,555.87 C342.41,551.92 345.43,548.95 349,548.95 Z" id="Path" fill="#00B0FF" fill-rule="nonzero"></path>
            <path d="M492.89,405.31 C483.04,412.21 472.66,416.73 465.7,420.58 C463.58,417.7 462.3,414.95 462.51,412.68 C463.43,402.55 503.94,378.61 490.13,336.26 C492.093481,334.705381 494.277405,333.451647 496.61,332.54 C498.773409,332.494275 500.924309,332.198988 503.02,331.66 C503.02,331.66 511.3,392.42 492.89,405.31 Z" id="Path" fill="#000000" fill-rule="nonzero" opacity="0.1"></path>
            <path d="M286.19,316.46 C286.19,316.46 300,330.27 313.35,339.02 C325.67,347.09 303.68,265.82 303.68,265.82 C303.68,265.82 317.32,254.82 325.33,248.29 C330.679434,243.889097 337.49541,241.674262 344.41,242.09 C362.84,243.28 396.6,251.03 423.84,288.39 C463.43,342.71 499.34,331.66 499.34,331.66 C499.34,331.66 507.63,392.43 489.21,405.32 C470.79,418.21 450.54,422.81 454.21,430.18 C457.88,437.55 437.64,394.27 391.6,386.91 C345.56,379.55 294.92,347.32 295.85,331.67 C295.86,331.66 282.51,321.09 286.19,316.46 Z" id="Path" fill="#CBCDDA" fill-rule="nonzero"></path>
            <path d="M276.52,269.09 C276.515492,266.428125 276.28129,263.771604 275.82,261.15 C263.76,255.15 265.47,246.99 265.47,246.99 L245.21,301.31 C252.62,300.31 260.77,302.39 268.95,306.31 C279.72,297.8 276.52,283.78 276.52,269.09 Z" id="Path" fill="#000000" fill-rule="nonzero" opacity="0.1"></path>
            <circle id="Oval" fill="#FFB9B9" fill-rule="nonzero" cx="236.01" cy="268.13" r="46.04"></circle>
            <path d="M194.18,278.51 C193.33,281.24 192.02,284.05 189.55,285.51 C186.55,287.29 182.41,286.41 179.74,284.11 C177.07,281.81 175.63,278.37 174.88,274.93 C173.799708,269.94916 173.971502,264.778156 175.38,259.88 C176.58,255.73 178.65,251.88 179.52,247.63 C180.45,243.11 179.98,238.38 181.02,233.88 C182.43,227.78 186.45,222.67 190.37,217.78 C192.852181,214.008605 196.761891,211.409352 201.2,210.58 L220.47,204.77 C224.123341,203.546463 227.878074,202.649611 231.69,202.09 C236.590505,201.588293 241.541714,202.022669 246.28,203.37 C250.053284,204.319084 253.63312,205.916137 256.86,208.09 C260.057165,210.465289 262.87294,213.314786 265.21,216.54 C275.4,229.86 281.21,251.65 291.72,264.76 C287.57,266.04 283.42,261.76 279.27,263.06 C278.680134,263.314325 278.022864,263.367048 277.4,263.21 C276.782945,262.874915 276.299402,262.33843 276.03,261.69 C272.372865,255.301468 266.61696,250.375911 259.74,247.75 C254.64,245.82 247.74,245.83 244.95,250.51 C243.06,253.67 243.82,257.66 244.32,261.31 C244.82,264.96 244.73,269.31 241.84,271.56 C240.242913,272.639331 238.384348,273.268065 236.46,273.38 C227.490595,274.55555 218.37112,273.662759 209.8,270.77 C206.8,269.77 203.75,266.64 200.58,267.64 C196.3,268.99 195.31,274.88 194.18,278.51 Z" id="Path" fill="#000000" fill-rule="nonzero" opacity="0.1"></path>
            <path d="M193.17,277.5 C192.32,280.23 191.01,283.04 188.54,284.5 C185.54,286.28 181.4,285.4 178.73,283.1 C176.06,280.8 174.62,277.36 173.87,273.92 C172.789708,268.93916 172.961502,263.768156 174.37,258.87 C175.57,254.72 177.64,250.87 178.51,246.62 C179.44,242.1 178.97,237.37 180.01,232.87 C181.42,226.77 185.44,221.66 189.36,216.77 C191.842181,212.998605 195.751891,210.399352 200.19,209.57 L219.46,203.76 C223.113656,202.539856 226.868383,201.646352 230.68,201.09 C235.580505,200.588293 240.531714,201.022669 245.27,202.37 C249.043284,203.319084 252.62312,204.916137 255.85,207.09 C259.047165,209.465289 261.86294,212.314786 264.2,215.54 C274.39,228.86 280.2,250.65 290.71,263.76 C286.56,265.04 282.41,260.76 278.26,262.06 C277.670134,262.314325 277.012864,262.367048 276.39,262.21 C275.765453,261.878519 275.27447,261.341617 275,260.69 C271.342865,254.301468 265.58696,249.375911 258.71,246.75 C253.61,244.82 246.71,244.83 243.92,249.51 C242.03,252.67 242.79,256.66 243.29,260.31 C243.79,263.96 243.7,268.31 240.81,270.56 C239.212913,271.639331 237.354348,272.268065 235.43,272.38 C226.460595,273.55555 217.34112,272.662759 208.77,269.77 C205.77,268.77 202.72,265.64 199.55,266.64 C195.29,267.98 194.3,273.87 193.17,277.5 Z" id="Path" fill="#B96B6B" fill-rule="nonzero"></path>
            <g id="Group" opacity="0.1" transform="translate(285.000000, 263.000000)" fill="#000000" fill-rule="nonzero">
                <path d="M21.8,0.31 L18.68,2.83 C18.68,2.83 31.57,50.46 32.08,69.17 C38.66,67.39 26,16.43 21.8,0.31 Z" id="Path"></path>
                <path d="M206,134.95 C187.59,147.84 167.33,152.44 171,159.81 C174.67,167.18 154.43,123.9 108.39,116.54 C65.2,109.63 17.96,80.84 13.04,64.38 C6.14,58.48 1.12,53.47 1.12,53.47 C-2.56,58.07 10.79,68.66 10.79,68.66 C9.87,84.31 60.51,116.54 106.54,123.9 C152.57,131.26 172.83,174.54 169.15,167.17 C165.47,159.8 185.72,155.17 204.15,142.31 C209.42,138.62 212.5,131.01 214.22,122.02 C212.44,127.71 209.8,132.32 206,134.95 Z" id="Path"></path>
            </g>
            <path d="M398.06,486.34 C395.3,490.02 393.46,527.77 393.46,527.77 C393.46,527.77 404.46,582.09 370.46,576.57 C336.46,571.05 365.86,532.38 365.86,532.38 L361.26,478.98 C343.77,432.98 347.45,399.8 347.45,399.8 L344.18,369.73 L342.84,357.45 L382.43,348.24 C381.35,349.68 381.81,358.66 382.78,369.09 C384.29,385.43 387.03,405.32 387.03,405.32 C395.29,414.52 400.82,482.65 398.06,486.34 Z" id="Path" fill="#FFB9B9" fill-rule="nonzero"></path>
            <path d="M341.89,265.37 C341.89,265.37 301.38,266.29 333.6,333.5 C333.6,333.5 341.89,361.12 341.89,365.73 C341.89,370.34 383.32,370.33 387.89,365.73 C392.46,361.13 380.52,323.38 380.52,305.88 C380.52,288.38 368.59,259.84 341.89,265.37 Z" id="Path" fill="#000000" fill-rule="nonzero" opacity="0.1"></path>
            <path d="M382.75,369.09 C374.15,371.44 353.07,371.65 344.14,369.73 L342.8,357.45 L382.39,348.24 C381.33,349.67 381.79,358.65 382.75,369.09 Z" id="Path" fill="#000000" fill-rule="nonzero" opacity="0.1"></path>
            <path d="M340.05,265.37 C340.05,265.37 299.54,266.29 331.76,333.5 C331.76,333.5 340.05,361.12 340.05,365.73 C340.05,370.34 381.48,370.33 386.05,365.73 C390.62,361.13 378.68,323.38 378.68,305.88 C378.68,288.38 366.75,259.84 340.05,265.37 Z" id="Path" fill="#CBCDDA" fill-rule="nonzero"></path>
            <g id="Group" opacity="0.5" transform="translate(40.000000, 409.000000)" fill-rule="nonzero">
                <polygon id="Path" fill="#00B0FF" points="35.04 0.5 5.72 1.1 0.94 7.68 0.94 30.42 6.92 34.61 35.04 34.61 41.03 28.03 41.03 6.49"></polygon>
                <path d="M34.45,4.09 C34.45,4.09 7.52,8.28 5.13,4.09 L5.73,1.09 L34.45,0.49 L34.45,4.09 Z" id="Path" fill="#FFFFFF" opacity="0.2"></path>
                <path d="M37.44,66.32 L42.23,71.11 L42.23,93.85 L37.44,98.64 C37.44,98.64 20.09,104.64 8.72,99.84 L3.33,94.45 L3.33,71.71 L8.12,66.32 L37.44,66.32 Z" id="Path" fill="#00B0FF"></path>
                <path d="M36.24,71.71 C36.24,71.71 15.3,76.5 8.12,71.71 L8.12,66.32 L37.44,66.32 L36.24,71.71 Z" id="Path" fill="#FFFFFF" opacity="0.2"></path>
                <path d="M26.07,34.45 L26.07,66.82 C25.9246557,69.4895896 23.6503574,71.5404794 20.98,71.41 L20.98,71.41 C18.3096426,71.5404794 16.0353443,69.4895896 15.89,66.82 L15.89,34.45 C15.89,31.7 18.55,29.57 21.57,29.89 L21.57,29.89 C24.0153497,30.0356898 25.9567103,32.0029352 26.07,34.45 L26.07,34.45 Z" id="Path" fill="#00B0FF"></path>
                <polygon id="Path" fill="#00B0FF" points="82 1.42 52.68 2.02 47.89 8.6 47.89 31.34 53.88 35.53 82 35.53 87.98 28.95 87.98 7.41"></polygon>
                <path d="M81.4,5.02 C81.4,5.02 54.47,9.21 52.08,5.02 L52.68,2.02 L81.4,1.42 L81.4,5.02 Z" id="Path" fill="#FFFFFF" opacity="0.2"></path>
                <path d="M84.39,67.25 L89.18,72.04 L89.18,94.78 L84.39,99.57 C84.39,99.57 67.04,105.57 55.67,100.77 L50.28,95.38 L50.28,72.63 L55.07,67.24 L84.39,67.25 Z" id="Path" fill="#00B0FF"></path>
                <path d="M83.2,72.63 C83.2,72.63 62.26,77.42 55.08,72.63 L55.08,67.24 L84.4,67.24 L83.2,72.63 Z" id="Path" fill="#FFFFFF" opacity="0.2"></path>
                <path d="M73,35.37 L73,67.74 C72.8546557,70.4095896 70.5803574,72.4604794 67.91,72.33 L67.91,72.33 C65.2396426,72.4604794 62.9653443,70.4095896 62.82,67.74 L62.82,35.37 C62.82,32.62 65.48,30.49 68.5,30.81 L68.5,30.81 C70.9453497,30.9556898 72.8867103,32.9229352 73,35.37 Z" id="Path" fill="#00B0FF"></path>
                <polygon id="Path" fill="#00B0FF" points="141.78 18.74 117.64 19.23 113.7 24.65 113.7 43.37 118.63 46.81 141.78 46.81 146.7 41.39 146.7 23.66"></polygon>
                <path d="M141.28,21.69 C141.28,21.69 119.11,25.14 117.14,21.69 L117.63,19.23 L141.27,18.74 L141.28,21.69 Z" id="Path" fill="#FFFFFF" opacity="0.2"></path>
                <path d="M143.75,72.92 L147.69,76.86 L147.69,95.58 L143.75,99.52 C143.75,99.52 129.47,104.45 120.11,100.52 L115.67,96.09 L115.67,77.35 L119.61,72.92 L143.75,72.92 Z" id="Path" fill="#00B0FF"></path>
                <path d="M142.76,77.35 C142.76,77.35 125.52,81.29 119.61,77.35 L119.61,72.92 L143.75,72.92 L142.76,77.35 Z" id="Path" fill="#FFFFFF" opacity="0.2"></path>
                <path d="M134.39,46.68 L134.39,73.33 C134.261008,75.5204065 132.391541,77.1980194 130.2,77.09 L130.2,77.09 C128.001087,77.1977623 126.128446,75.5083634 126.01,73.31 L126.01,46.68 C126.080347,45.5401799 126.628638,44.4830313 127.519824,43.76894 C128.41101,43.0548488 129.562256,42.7501885 130.69,42.93 L130.69,42.93 C132.700547,43.0505174 134.296479,44.6680164 134.39,46.68 Z" id="Path" fill="#00B0FF"></path>
                <polygon id="Path" fill="#00B0FF" points="180.43 19.49 156.29 19.99 152.35 25.4 152.35 44.12 157.28 47.57 180.43 47.57 185.36 42.15 185.36 24.42"></polygon>
                <path d="M179.94,22.45 C179.94,22.45 157.77,25.9 155.8,22.45 L156.29,19.99 L179.93,19.5 L179.94,22.45 Z" id="Path" fill="#FFFFFF" opacity="0.2"></path>
                <path d="M182.4,73.68 L186.34,77.62 L186.34,96.34 L182.4,100.28 C182.4,100.28 168.12,105.21 158.76,101.28 L154.33,96.85 L154.33,78.09 L158.27,73.66 L182.4,73.68 Z" id="Path" fill="#00B0FF"></path>
                <path d="M181.42,78.09 C181.42,78.09 164.18,82.03 158.27,78.09 L158.27,73.66 L182.4,73.66 L181.42,78.09 Z" id="Path" fill="#FFFFFF" opacity="0.2"></path>
                <path d="M173,47.44 L173,74.09 C172.881554,76.2883634 171.008913,77.9777623 168.81,77.87 L168.81,77.87 C166.611087,77.9777623 164.738446,76.2883634 164.62,74.09 L164.62,47.44 C164.690347,46.3001799 165.238638,45.2430313 166.129824,44.52894 C167.02101,43.8148488 168.172256,43.5101885 169.3,43.69 L169.3,43.69 C171.310547,43.8105174 172.906479,45.4280164 173,47.44 Z" id="Path" fill="#00B0FF"></path>
            </g>
            <g id="Group" opacity="0.8" transform="translate(93.000000, 563.000000)">
                <path d="M24.18,26.09 C24.18,26.09 10.01,21.29 3.18,33.78 C-0.477110881,40.6602373 -0.363948922,48.9323764 3.48,55.71 C7.96,63.81 17.19,74.32 34.68,73.39 C49.52,72.6 54.45,61.27 55.79,50.74 C56.8322663,42.7081801 53.6233906,34.7121889 47.3179634,29.6290759 C41.0125362,24.5459629 32.5177021,23.1070217 24.89,25.83 L24.18,26.09 Z" id="Path" fill="#00B0FF" fill-rule="nonzero"></path>
                <path d="M6.49,56.82 C2.64605108,50.0423764 2.53288912,41.7702373 6.19,34.89 C13.01,22.4 27.19,27.2 27.19,27.2 L27.92,26.94 C33.3223121,24.9849263 39.2598702,25.116872 44.57,27.31 C38.6302029,23.766749 31.4136621,23.0766627 24.91,25.43 L24.18,25.69 C24.18,25.69 10.01,20.89 3.18,33.38 C-0.477110881,40.2602373 -0.363948922,48.5323764 3.48,55.31 C6.48,60.64 11.48,67.01 19.48,70.48 C13.9864121,67.1951022 9.49469698,62.4717128 6.49,56.82 L6.49,56.82 Z" id="Path" fill="#FFFFFF" fill-rule="nonzero" opacity="0.1"></path>
                <path d="M16.86,32.09 C16.86,32.09 22.11,36.22 34.86,32.09" id="Path" fill="#000000" fill-rule="nonzero" opacity="0.2"></path>
                <path d="M15.74,2.09 C15.74,2.09 24.74,26.49 24,32.87 L31.13,32.12 C31.13,32.12 19.13,10.73 22.13,2.12 L15.74,2.09 Z" id="Path" fill="#00B0FF" fill-rule="nonzero"></path>
                <path d="M15.74,2.09 C15.74,2.09 24.74,26.49 24,32.87 L31.13,32.12 C31.13,32.12 19.13,10.73 22.13,2.12 L15.74,2.09 Z" id="Path" fill="#000000" fill-rule="nonzero" opacity="0.2"></path>
                <path d="M52.5,4.09 C52.5,4.09 38.32,-3.16 31.98,2.83 C25.64,8.82 24.66,24.13 24.66,24.13 C24.66,24.13 47.78,27.32 52.5,4.09 Z" id="Path" fill="#00B0FF" fill-rule="nonzero"></path>
                <path d="M52.5,4.09 C52.5,4.09 38.32,-3.16 31.98,2.83 C25.64,8.82 24.66,24.13 24.66,24.13 C24.66,24.13 47.78,27.32 52.5,4.09 Z" id="Path" fill="#FFFFFF" fill-rule="nonzero" opacity="0.1"></path>
                <path d="M24.66,24.09 C24.66,24.09 28.38,6.32 52.5,4.09" id="Path" stroke="#00B0FF"></path>
            </g>
            <path d="M177,611.18 C177,611.18 162.83,606.38 156,618.87 C152.342889,625.750237 152.456051,634.022376 156.3,640.8 C160.78,648.9 170.01,659.41 187.5,658.48 C202.34,657.69 207.27,646.36 208.61,635.83 C209.652266,627.79818 206.443391,619.802189 200.137963,614.719076 C193.832536,609.635963 185.337702,608.197022 177.71,610.92 L177,611.18 Z" id="Path" fill="#00B0FF" fill-rule="nonzero"></path>
            <path d="M159.34,641.92 C155.496051,635.142376 155.382889,626.870237 159.04,619.99 C165.86,607.5 180.04,612.3 180.04,612.3 L180.77,612.04 C186.172312,610.084926 192.10987,610.216872 197.42,612.41 C191.480203,608.866749 184.263662,608.176663 177.76,610.53 L177.03,610.79 C177.03,610.79 162.86,605.99 156.03,618.48 C152.372889,625.360237 152.486051,633.632376 156.33,640.41 C159.33,645.74 164.33,652.11 172.33,655.58 C166.836412,652.295102 162.344697,647.571713 159.34,641.92 Z" id="Path" fill="#FFFFFF" fill-rule="nonzero" opacity="0.1"></path>
            <path d="M169.71,617.18 C169.71,617.18 174.96,621.31 187.71,617.18" id="Path" fill="#000000" fill-rule="nonzero" opacity="0.2"></path>
            <path d="M168.58,587.16 C168.58,587.16 177.58,611.56 176.84,617.94 L183.97,617.19 C183.97,617.19 171.97,595.8 174.97,587.19 L168.58,587.16 Z" id="Path" fill="#00B0FF" fill-rule="nonzero"></path>
            <path d="M168.58,587.16 C168.58,587.16 177.58,611.56 176.84,617.94 L183.97,617.19 C183.97,617.19 171.97,595.8 174.97,587.19 L168.58,587.16 Z" id="Path" fill="#000000" fill-rule="nonzero" opacity="0.2"></path>
            <path d="M205.35,589.19 C205.35,589.19 191.17,581.94 184.83,587.93 C178.49,593.92 177.51,609.23 177.51,609.23 C177.51,609.23 200.63,612.41 205.35,589.19 Z" id="Path" fill="#00B0FF" fill-rule="nonzero"></path>
            <path d="M205.35,589.19 C205.35,589.19 191.17,581.94 184.83,587.93 C178.49,593.92 177.51,609.23 177.51,609.23 C177.51,609.23 200.63,612.41 205.35,589.19 Z" id="Path" fill="#FFFFFF" fill-rule="nonzero" opacity="0.1"></path>
            <path d="M177.51,609.23 C177.51,609.23 181.23,591.46 205.35,589.23" id="Path" stroke="#00B0FF"></path>
            <path d="M63,553.26 C63,553.26 64.39,551.71 61.78,551.09 L61.78,548.54 L63.35,548.54 C63.3473824,542.187411 58.9036188,536.701489 52.69,535.38 L52.69,532.29 L53.1,532.29 L53.1,528.29 L43,528.29 L43,532.29 L43.29,532.29 L43.29,535.42 C37.1625474,536.81112 32.812789,542.256619 32.81,548.54 L34.21,548.54 L34.21,550.99 C34.21,550.99 30.89,552.56 34.21,555.36 C37.53,558.16 37.01,560.25 37.01,560.25 C37.01,560.25 35.61,565.49 32.82,566.19 L32.82,614.94 C32.82,620.921244 37.6687562,625.77 43.65,625.77 L52.21,625.77 C58.1717168,625.747983 62.9945358,620.911755 63,614.95 L63,566.19 C63,566.19 58.11,562.52 59,560.25 C60.1607231,557.825381 61.4976396,555.489119 63,553.26 L63,553.26 Z" id="Path" fill="#00B0FF" fill-rule="nonzero"></path>
        </g>
    </g>
</svg>