<?xml version="1.0" encoding="UTF-8"?>
<svg width="1500px" height="926px" viewBox="0 0 1500 926" version="1.1" xmlns="http://www.w3.org/2000/svg" xmlns:xlink="http://www.w3.org/1999/xlink">
    <title>on-pursuit</title>
    <g id="on-pursuit" stroke="none" stroke-width="1" fill="none" fill-rule="evenodd">
        <g id="undraw_font_kwpk" transform="translate(258.000000, 266.000000)">
            <path d="M825.704888,61.97022 L887.34668,61.97022 L887.34668,31.3208 C887.34668,31.0459 887.34277,30.77686 887.33789,30.49219 C887.128221,13.6157235 873.406053,0.0349121058 856.52832,-2.8055522e-05 C848.325101,-0.011140791 840.466138,3.2961286 834.73926,9.16944 C833.640107,10.2839481 832.627106,11.4802522 831.70898,12.74805 C827.784738,18.1435863 825.681725,24.6491479 825.704888,31.3208 L825.704888,61.97022 Z" id="Path" fill="#2F2E41" fill-rule="nonzero"></path>
            <circle id="Oval" fill="#3F3D56" fill-rule="nonzero" cx="538" cy="366.34371" r="25"></circle>
            <circle id="Oval" fill="#3F3D56" fill-rule="nonzero" cx="626" cy="366.34371" r="25"></circle>
            <circle id="Oval" fill="#3F3D56" fill-rule="nonzero" cx="714" cy="366.34371" r="25"></circle>
            <rect id="Rectangle" fill="#3F3D56" fill-rule="nonzero" x="0" y="389.34371" width="984" height="2"></rect>
            <path d="M899.61475,183.67578 C902.00055,186.18878 905.63703,217.08959 916.39984,212.394 C925.0942,202.57641 910.48053,183.07342 908.99179,178.933 L899.61475,183.67578 Z" id="Path" fill="#FFB8B8" fill-rule="nonzero"></path>
            <polygon id="Path" fill="#00B0FF" fill-rule="nonzero" points="886.038 143.797 912.495 179.274 899.868 188.895 881.227 162.437"></polygon>
            <path d="M844.54818,149.20879 C844.54818,149.20879 826.50918,183.48288 840.94039,203.32579 C855.3716,223.1687 885.43658,266.46227 885.43658,266.46227 C889.79981,303.61434 898.11419,339.01347 921,369.00001 L936.14836,364.84685 L914.299,258.04407 C914.299,258.04407 902.273,195.50888 888.4431,179.87507 L886,150 L844.54818,149.20879 Z" id="Path" fill="#2F2E41" fill-rule="nonzero"></path>
            <path d="M843.94688,199.71798 L831.92088,259.24667 C821.66276,265.68831 800.338,329.78494 792,352 L808.26759,358.04944 C826.20334,329.72313 867.53045,255.35254 877.01838,223.76997 L843.94688,199.71798 Z" id="Path" fill="#2F2E41" fill-rule="nonzero"></path>
            <path d="M884.83528,28.94882 C884.36282,56.6131 843.21273,56.60876 842.74428,28.94793 C843.21674,1.28454 884.36683,1.28887 884.83528,28.94882 Z" id="Path" fill="#FFB8B8" fill-rule="nonzero"></path>
            <path d="M869.80278,43.38001 C859.17425,59.31747 859.45862,64.83796 872.20798,79.45801 L852.96638,65.62811 C852.96638,65.62811 839.13649,65.62811 842.14299,59.01381 C845.14949,52.39951 851.16248,38.56961 851.16248,38.56961 L869.80278,43.38001 Z" id="Path" fill="#FFB8B8" fill-rule="nonzero"></path>
            <path d="M858.97938,66.83071 C858.97938,66.83071 845.14948,56.60861 838.53519,63.22291 C831.96098,75.81268 838.57474,130.97217 840.93795,135.37891 C843.94688,140.18925 844.54818,135.98015 843.94688,141.39185 C843.34558,146.80355 840.94039,151.01265 841.54169,151.61395 C842.14299,152.21525 888.44307,157.02565 888.44307,157.02565 C888.44307,157.02565 884.83528,140.18925 886.03788,133.57495 C887.24048,126.96065 884.83528,120.34636 884.83528,117.94116 C884.83528,115.53596 888.44307,105.31386 884.83528,97.49696 C881.22749,89.68006 867.71128,73.60228 867.71128,73.60228 L866.79628,74.64757 L858.97938,66.83071 Z" id="Path" fill="#00B0FF" fill-rule="nonzero"></path>
            <path d="M824.104,196.11018 C825.43236,199.85193 814.85668,233.89986 828.31171,233.99299 C841.98509,227.76024 835.76156,200.53699 836.13,195.50888 L824.104,196.11018 Z" id="Path" fill="#FFB8B8" fill-rule="nonzero"></path>
            <path d="M840.94039,63.82421 C840.94039,63.82421 825.30659,64.42551 825.30659,83.0658 C825.30659,101.70609 819.89489,134.77759 819.89489,134.77759 L819.89489,199.11664 L840.33909,199.11664 L837.33259,138.38535 L849.95988,98.69964 C849.95988,98.69964 866.195,73.44501 840.94039,63.82421 Z" id="Path" fill="#00B0FF" fill-rule="nonzero"></path>
            <path d="M962.66361,383.35769 L962.66361,383.35769 C963.095518,380.318897 961.720954,377.306331 959.14267,375.64102 L936.5595,364.55842 L919.53312,366.70778 L915.51195,381.12329 C915.168272,383.198997 915.692171,385.324759 916.961032,387.003051 C918.229893,388.681344 920.132346,389.764861 922.22313,390.00001 L953.99424,390.06946 C958.223683,390.545146 962.064706,387.571451 962.66361,383.35769 L962.66361,383.35769 Z" id="Path" fill="#2F2E41" fill-rule="nonzero"></path>
            <path d="M814.99421,388.24479 L814.99421,388.24479 C817.448371,386.401447 818.606614,383.299276 817.96104,380.2986 L809.82892,356.49331 L796.26962,345.97364 L783.23293,353.32355 C781.522163,354.548277 780.389473,356.421871 780.099961,358.505824 C779.810449,360.589777 780.389525,362.701177 781.70166,364.34586 L804.11812,386.86054 C806.77242,390.187563 811.591141,390.800864 814.99421,388.24479 L814.99421,388.24479 Z" id="Path" fill="#2F2E41" fill-rule="nonzero"></path>
            <path d="M839.78711,12.21976 L845.40324,30.08793 L893.95924,29.22493 C893.618964,16.408708 885.176026,5.22349507 872.943813,1.38366743 C860.711599,-2.45616021 847.390926,1.89721434 839.78711,12.21971 L839.78711,12.21976 Z" id="Path" fill="#2F2E41" fill-rule="nonzero"></path>
            <text id="改善" fill="#00B0FF" font-family="PingFangSC-Regular, PingFang SC" font-size="200" font-weight="normal">
                <tspan x="43" y="358">改善</tspan>
            </text>
        </g>
    </g>
</svg>