<?xml version="1.0" encoding="UTF-8"?>
<svg width="1500px" height="926px" viewBox="0 0 1500 926" version="1.1" xmlns="http://www.w3.org/2000/svg" xmlns:xlink="http://www.w3.org/1999/xlink">
    <title>mentorship pattern</title>
    <g id="mentorship-pattern" stroke="none" stroke-width="1" fill="none" fill-rule="evenodd">
        <g id="cover" transform="translate(423.000000, 121.000000)" fill-rule="nonzero">
            <path d="M620,635.61354 C620,661.29354 481.21,682.11354 310,682.11354 C138.79,682.11354 0,661.29354 0,635.61354 C0,617.43354 69.57,601.68354 170.96,594.04354 C212.77,590.88354 260.01,589.11354 310,589.11354 C330.55,589.11354 350.63,589.41354 370.05,589.98354 C512.52002,594.18355 620,613.0135 620,635.61354 Z" id="Path" fill="#3F3D56"></path>
            <ellipse id="Oval" fill="#000000" opacity="0.1" cx="270" cy="630.61354" rx="119" ry="14.5"></ellipse>
            <ellipse id="Oval" fill="#3F3D56" cx="269.5" cy="521.11354" rx="112.5" ry="120"></ellipse>
            <rect id="Rectangle" fill="#00B0FF" x="235" y="592.11354" width="70" height="64"></rect>
            <polygon id="Path" fill="#575A89" points="396.5 607.614 392.5 629.614 418.5 633.614 435.5 623.614 434.5 607.614"></polygon>
            <path d="M265.5,194.61354 C265.5,194.61354 263.5,217.61354 258.5,218.61354 C253.5,219.61354 269.5,259.61354 269.5,259.61354 L293.5,259.61354 L312.5,254.61354 L303.5,232.61354 C303.5,232.61354 291.5,216.61354 300.5,203.61354 C309.5,190.61354 265.5,194.61354 265.5,194.61354 Z" id="Path" fill="#A0616A"></path>
            <path d="M265.5,194.61354 C265.5,194.61354 263.5,217.61354 258.5,218.61354 C253.5,219.61354 269.5,259.61354 269.5,259.61354 L293.5,259.61354 L312.5,254.61354 L303.5,232.61354 C303.5,232.61354 291.5,216.61354 300.5,203.61354 C309.5,190.61354 265.5,194.61354 265.5,194.61354 Z" id="Path" fill="#000000" opacity="0.1"></path>
            <path d="M215.5,370.61354 C215.5,370.61354 189.5,420.61354 210.5,430.61354 C231.5,440.61354 236.5,439.61354 236.5,442.61354 C236.5,445.61354 232.5,444.61354 234.5,449.61354 C236.5,454.61354 230.5,474.61354 236.5,486.61354 C242.5,498.61354 240.5,507.61354 240.5,507.61354 C240.5,507.61354 240.5,508.61354 242.5,512.61354 C244.5,516.61354 245.5,519.61354 244.5,521.61354 C243.5,523.61354 237.5,536.61354 243.5,539.61354 C249.5,542.61354 280.5,544.61354 283.5,539.61354 C286.5,534.61354 280.5,531.61354 283.5,528.61354 C286.5,525.61354 288.5,524.61354 286.5,522.61354 C284.5,520.61354 282.5,495.61354 282.5,495.61354 C282.5,495.61354 287.5,466.61354 285.5,462.61354 C283.5,458.61354 280.5,454.61354 282.5,451.61354 C284.5,448.61354 286.5,449.61354 287.5,445.61354 C288.5,441.61354 290.5,432.61354 290.5,432.61354 L301.5,431.61354 L327.5,436.61354 C327.5,436.61354 356.5,468.61354 388.5,478.61354 C388.5,478.61354 397.5,487.61354 400.5,487.61354 C403.5,487.61354 403.5,487.61354 402.5,489.61354 C401.5,491.61354 398.5,491.61354 400.5,493.61354 C402.5,495.61354 405.5,492.61354 403.5,495.61354 C401.5,498.61354 399.5,498.61354 401.5,500.61354 C403.5,502.61354 400.5,513.61354 400.5,514.61354 C400.5,515.61354 391.5,609.61354 394.5,611.61354 C397.5,613.61354 439.5,619.61354 442.5,611.61354 C445.5,603.61354 440.5,593.61354 440.5,593.61354 C440.5,593.61354 455.5,473.61354 451.5,465.61354 C447.5,457.61354 433.5,421.61354 358.5,398.61354 C358.5,398.61354 337.5,394.61354 337.5,391.61354 C337.5,388.61354 335.5,369.61354 331.5,368.61354 C327.5,367.61354 304.5,366.61354 304.5,366.61354 L275.5,375.61354 L235.5,368.61354 L215.5,370.61354 Z" id="Path" fill="#2F2E41"></path>
            <path d="M250.5,538.61354 L245.5,556.61354 C245.5,556.61354 241.5,585.61354 246.5,592.61354 C250.42739,598.11188 257.43965,604.84417 270.44449,606.02574 C277.95287,606.714557 284.930638,602.090975 287.22304,594.908 C287.372262,594.490676 287.465409,594.055385 287.50004,593.61354 C287.50004,591.61354 284.50004,567.61354 284.50004,567.61354 L279.50004,542.61354 L278.50004,535.61354 L250.5,538.61354 Z" id="Path" fill="#2F2E41"></path>
            <path d="M396.5,624.61354 C396.5,624.61354 391.5,619.61354 390.5,624.61354 C389.5,629.61354 385.5,650.61354 392.5,651.61354 C399.5,652.61354 466.5,662.61354 473.5,658.61354 C480.5,654.61354 493.5,648.61354 485.5,645.61354 C477.5,642.61354 454.5,633.61354 454.5,633.61354 C454.5,633.61354 441.5,616.61354 439.5,615.61354 C437.5,614.61354 426.5,616.61354 421.5,620.61354 C416.5,624.61354 396.5,624.61354 396.5,624.61354 Z" id="Path" fill="#2F2E41"></path>
            <circle id="Oval" fill="#A0616A" cx="289.5" cy="184.61354" r="31"></circle>
            <path d="M286.5,254.61354 L274.5,241.61354 L261.19853,215.61354 C261.19853,215.61354 251.5,212.61354 249.5,217.61354 C247.5,222.61354 211.5,238.61354 211.5,238.61354 C211.5,238.61354 220.5,322.61354 216.5,330.61354 C212.5,338.61354 205.5,370.61354 211.5,373.61354 C217.5,376.61354 245.5,373.61354 254.5,377.61354 C263.5,381.61354 289.5,381.61354 296.5,376.61354 C303.5,371.61354 305.5,367.61354 312.5,370.61354 C318.45926,373.16754 332.39075,285.85254 336.40164,259.83254 C337.091051,255.374345 335.188019,250.911622 331.49357,248.32283 C322.52081,242.02899 306.3608,231.18318 303.5,232.61358 C299.5,234.61354 286.5,254.61354 286.5,254.61354 Z" id="Path" fill="#575A89"></path>
            <path d="M329.5,250.61354 L329.5,250.61354 C334.309178,251.815834 337.863205,255.882442 338.41063,260.80931 L346.49999,333.61354 C346.49999,333.61354 326.49999,376.61354 316.49999,347.61354 C306.49999,318.61354 329.5,250.61354 329.5,250.61354 Z" id="Path" fill="#575A89"></path>
            <path d="M327.5,340.61354 L349.5,334.61354 C349.5,334.61354 353.5,362.61354 357.5,362.61354 C361.5,362.61354 343.5,378.61354 334.5,376.61354 C325.5,374.61354 312.5,367.61354 311.5,362.61354 C310.5,357.61354 320.5,336.61354 320.5,336.61354 L327.5,340.61354 Z" id="Path" fill="#575A89"></path>
            <path d="M266.09829,197.98651 C268.20621,193.33851 267.84022,187.91685 269.58292,183.11998 C271.474509,177.913303 275.691315,173.890231 280.981138,172.245434 C286.270961,170.600636 292.025557,171.523239 296.53607,174.73927 C298.77785,176.33768 301.02535,178.58344 303.76166,178.27827 C306.70837,177.94968 309.33666,174.66234 312.04586,175.86711 C315.04863,177.20244 314.2376,182.58387 317.27977,183.82683 C318.88107,184.48109 320.77332,183.47372 321.69692,182.01113 C322.504635,180.474165 322.944782,178.770774 322.98275,177.03491 C323.40251,172.76983 323.78184,168.25591 321.93213,164.38998 C321.154109,163.079639 320.476087,161.71245 319.90384,160.30006 C319.580218,158.981099 319.45032,157.622054 319.51823,156.26567 C319.50134,151.25258 319.13542,146.02352 316.61255,141.6915 C313.813,136.88439 308.63808,133.8105 303.23929,132.46923 C297.8405,131.12796 292.18429,131.33362 286.64122,131.80288 C277.47798,132.57862 267.92195,134.24146 260.70266,139.93788 C259.721391,140.654713 258.876861,141.541978 258.2093,142.55741 C257.575616,143.763691 257.127858,145.058806 256.88119,146.39889 C255.320335,152.755013 252.980057,158.893913 249.91355,164.67605 C248.438481,167.127265 247.232987,169.7309 246.31812,172.44149 C245.55253,175.19591 245.60425,178.33492 247.20682,180.70234 C248.51157,182.62979 250.59747,183.65697 252.23627,185.23278 C253.86014,186.79424 254.61995,189.79716 256.41879,190.97951 C257.98912,192.01166 259.87009,191.28307 261.47169,192.37703 C263.52795,193.78156 263.67647,196.8612 266.09829,197.98651 Z" id="Path" fill="#2F2E41"></path>
            <path d="M291.5,269.61354 L294.5,263.61354 C294.5,263.61354 338.5,276.61354 347.5,288.61354 C347.5,288.61354 369.5,274.61354 381.5,276.61354 L393.5,278.61354 L356.5,311.61354 L309.5,307.61354 L291.5,269.61354 Z" id="Path" fill="#F2F2F2"></path>
            <path d="M289.5,263.61354 L248.5,320.61354 L307.5,349.61354 C307.5,349.61354 313.01572,352.61354 317.25786,349.61354 L356.5,331.61354 L393.5,278.61354 L356.5,297.61354 C356.5,297.61354 352.5,289.61354 344.5,293.61354 L289.5,263.61354 Z" id="Path" fill="#00B0FF"></path>
            <path d="M352.5,364.61354 L360.5,343.61354 C360.5,343.61354 378.5,320.61354 368.5,309.61354 C358.5,298.61354 347.5,341.61354 347.5,341.61354 L352.5,364.61354 Z" id="Path" fill="#A0616A"></path>
            <path d="M260.19768,361.26233 L277.65392,347.11033 C277.65392,347.11033 304.76392,336.24533 301.63243,321.71287 C298.50094,307.18041 267.4119,338.858 267.4119,338.858 L260.19768,361.26233 Z" id="Path" fill="#A0616A"></path>
            <path d="M217,260.11354 L216,260.11354 C216,260.11354 200.5,241.61354 197.5,266.61354 C194.5,291.61354 184.5,374.61354 210.5,377.61354 C236.5,380.61354 255,365.11354 255,365.11354 C255,365.11354 274,336.11354 267,336.11354 C263.61309,336.11354 254.40165,334.59238 246,335.11354 C237.03728,335.66954 228.98385,338.19432 229.5,335.61354 C230.5,330.61354 245,267.11354 217,260.11354 Z" id="Path" fill="#000000" opacity="0.1"></path>
            <path d="M215.5,240.61354 L211.5,238.61354 C211.5,238.61354 195.5,241.61354 192.5,266.61354 C189.5,291.61354 179.5,374.61354 205.5,377.61354 C231.5,380.61354 266.5,373.61354 266.5,373.61354 C266.5,373.61354 273.5,335.61354 266.5,335.61354 C259.5,335.61354 223.5,340.61354 224.5,335.61354 C225.5,330.61354 243.5,247.61354 215.5,240.61354 Z" id="Path" fill="#575A89"></path>
            <polygon id="Path" fill="#575A89" points="338 353.114 349.027 336.213 356 364.114 338 372.114"></polygon>
            <circle id="Oval" fill="#F2F2F2" cx="111.47314" cy="85.11354" r="27"></circle>
            <rect id="Rectangle" fill="#F2F2F2" x="79.47314" y="286.11354" width="64" height="64"></rect>
            <polygon id="Path" fill="#F2F2F2" points="372 0 388.199 28.057 404.397 56.114 372 56.114 339.603 56.114 355.801 28.057"></polygon>
        </g>
    </g>
</svg>