<?xml version="1.0" encoding="UTF-8"?>
<svg width="1500px" height="926px" viewBox="0 0 1500 926" version="1.1" xmlns="http://www.w3.org/2000/svg" xmlns:xlink="http://www.w3.org/1999/xlink">
    <title>commit-a-lot-while-young</title>
    <g id="commit-a-lot-while-young" stroke="none" stroke-width="1" fill="none" fill-rule="evenodd">
        <g id="cover" transform="translate(417.000000, 106.000000)" fill-rule="nonzero">
            <path d="M112.22713,541.9426 C112.22713,541.9426 114.57245,491.49967 162.65159,497.36298" id="Path" fill="#E6E6E6"></path>
            <path d="M111.66256,712.87027 C111.6024,712.34238 105.92756,659.77947 128.90536,631.96238 C137.38556,621.69569 148.74879,615.94615 162.67868,614.87484 L162.832,616.85637 C149.462,617.88498 138.56361,623.39192 130.44051,633.22388 C108.00033,660.38596 113.57811,712.12598 113.63633,712.64514 L111.66256,712.87027 Z" id="Path" fill="#E6E6E6"></path>
            <rect id="Rectangle" fill="#E6E6E6" x="109.71986" y="490.36734" width="2" height="221"></rect>
            <circle id="Oval" fill="#00B0FF" cx="112.22715" cy="475.0824" r="16.41727"></circle>
            <circle id="Oval" fill="#E6E6E6" cx="162.75544" cy="615.86528" r="16.31344"></circle>
            <path d="M666.85626,180.38693 L666.85626,181.4668 C666.831687,184.178687 666.753967,186.878353 666.6231,189.5658 C661.766238,285.049877 583.254584,360.159745 487.649108,360.78513 C392.043632,361.410515 312.556104,287.334169 306.45053,191.9218 C306.20509,188.105473 306.08213,184.260507 306.08213,180.3869 C306.017653,143.025683 317.612941,106.575416 339.25155,76.11831 C340.981757,73.6640567 342.78152,71.2548233 344.65084,68.89061 C345.9393,67.24624 347.26461,65.63871 348.60221,64.04347 C411.943316,-10.9952421 523.665497,-21.59702 599.99039,40.18821 C602.16239,41.94299 604.2976,43.75911 606.38365,45.61207 C608.05259,47.0969233 609.692847,48.6144733 611.30442,50.16472 C643.044643,80.525277 662.581117,121.448865 666.23042,165.21972 C666.647673,170.22632 666.85626,175.282057 666.85626,180.38693 Z" id="Path" fill="#00B0FF"></path>
            <path d="M344.65085,68.89063 C344.739274,68.9277321 344.821921,68.9773199 344.89627,69.03788 C345.8657,69.83551 344.65085,71.36941 344.7981,72.63335 C344.9699,74.25315 347.12963,74.60902 348.76171,74.76854 C350.39378,74.94034 352.45534,76.25336 351.68226,77.70136 C347.58367,79.11255 343.436,77.7259 339.25151,76.11836 C317.61294,106.575468 306.017667,143.025714 306.08213,180.38691 C306.08213,184.26461 306.205113,188.10959 306.45054,191.92185 C306.793641,192.172208 307.169343,192.374509 307.56722,192.52314 C308.79434,192.98945 310.2178,192.90355 311.34676,193.5662 C312.24256,194.09386 312.84385,195.02647 313.73964,195.51732 C316.30433,196.91624 319.86298,194.22884 322.25587,195.89773 C322.874384,196.461084 323.460265,197.059256 324.01066,197.68933 C326.21948,199.60364 329.85176,198.31516 332.40417,199.75089 C334.04851,200.67123 334.89523,202.51189 335.77876,204.1808 C337.9753,208.35302 341.53396,212.4516 346.23383,212.78293 C347.716127,212.714877 349.201484,212.764114 350.67602,212.93018 C352.12402,213.2615 353.54748,214.52544 353.31433,215.98571 C352.90938,218.50131 354.14877,221.25007 353.81745,223.76571 C353.21616,228.36741 346.70014,230.37989 346.14794,234.9816 C346.146102,235.994314 346.088749,237.006165 345.97614,238.0126 C345.68163,239.21518 344.77356,240.19688 344.45451,241.39946 C343.84095,243.66964 345.47302,245.93981 347.25235,247.46146 C349.04394,248.99536 351.17914,250.32066 352.16083,252.45585 C353.19162,254.72602 352.6885,257.36434 353.01983,259.83085 C353.7561,265.21792 358.40689,269.20606 363.19267,271.78302 C364.726301,272.423965 366.088102,273.415894 367.16854,274.67902 C368.39567,276.45834 368.27295,278.80215 368.69018,280.92502 C369.69642,286.11574 374.06497,290.3984 374.18768,295.68729 C374.27358,299.45456 372.18747,302.86596 370.93581,306.41234 C369.648217,310.130045 369.26541,314.101135 369.81913,317.99634 C376.815952,323.930534 384.253234,329.324924 392.06685,334.133 C392.491857,333.504935 392.803361,332.807164 392.98719,332.07143 C393.291069,330.405914 392.534097,328.725889 391.08519,327.85013 C392.404016,327.351864 393.603758,326.582693 394.60703,325.59223 C395.61667,324.553828 395.871426,322.995892 395.24513,321.68998 C397.40487,321.95998 399.96955,322.09493 401.39302,320.43831 C402.53424,319.11302 402.46061,317.12509 402.00658,315.44393 C401.55258,313.7505 400.79173,312.11843 400.77945,310.36364 C405.783267,310.607256 410.798645,310.438982 415.77488,309.86052 C415.054781,307.433291 413.417355,305.382108 411.20999,304.14214 C413.4679,303.76173 415.51719,301.06206 416.22892,298.89005 C416.844416,296.674094 416.878227,294.336883 416.32709,292.10405 C416.156407,291.530247 416.131104,290.923003 416.25346,290.33699 C416.616485,289.558777 417.254673,288.942446 418.04506,288.60675 C421.775513,286.45929 425.505963,284.315917 429.23641,282.17663 C429.902045,281.840944 430.507446,281.397267 431.02801,280.86363 C432.19378,279.47698 432.02201,277.40315 431.42069,275.69745 C430.81937,273.99175 429.86224,272.38422 429.62909,270.59262 C428.9419,265.2301 434.68483,261.37694 436.62369,256.32119 C437.282878,254.302933 437.638534,252.197933 437.67901,250.07514 C437.83854,247.7927 437.85081,245.15438 436.1083,243.69414 C434.42714,242.28295 431.81337,242.602 430.05858,241.28898 C428.45105,240.0864 427.89885,237.76714 426.14407,236.79771 C424.54881,235.91418 422.56087,236.47866 420.78154,236.06144 C417.66465,235.33744 415.70126,231.74197 412.51074,231.41065 C410.71914,231.21431 408.68212,232.09784 407.20957,231.05478 C405.90882,230.12217 405.85974,228.26922 405.61431,226.6985 C404.721951,221.687883 400.805686,217.761836 395.79731,216.85698 C393.94436,216.56247 391.93188,216.67291 390.34889,215.6544 C388.75363,214.62362 388.02963,212.69704 386.76569,211.2613 C384.75321,208.96659 381.56269,208.14442 378.58079,207.44496 C374.53129,206.500073 370.485877,205.551097 366.44455,204.59803 C364.29709,204.08264 361.52379,203.81267 360.35803,205.70244 C360.013025,206.421072 359.77332,207.185647 359.6463,207.97262 C358.747247,210.877498 356.084737,212.876853 353.04438,212.93019 C352.029605,211.197498 350.385754,209.922856 348.45494,209.37154 C347.193305,209.159758 345.947091,208.864601 344.72449,208.48801 C343.434043,207.855801 342.46082,206.720169 342.033656,205.348136 C341.606493,203.976103 341.763077,202.488721 342.46659,201.23572 C343.896882,198.67592 343.439733,195.475877 341.34991,193.41895 C339.28834,191.56595 336.30644,191.11195 333.53314,191.29603 C332.80914,189.71303 334.02399,187.93372 335.32474,186.78022 C336.63774,185.639 338.22074,184.51005 338.50299,182.79208 C338.95699,180.09241 335.50881,178.04308 332.89504,178.84074 C330.28127,179.65064 328.61238,182.19079 327.50797,184.69411 C326.972333,186.171244 326.24188,187.570253 325.33597,188.85406 C324.389496,190.149104 322.796331,190.803441 321.21284,190.54749 C319.0531,189.99528 318.23093,187.4306 317.75235,185.27086 C316.985466,182.384243 316.59771,179.410058 316.59886,176.42331 C316.61762,173.407105 317.815577,170.517913 319.93663,168.37339 C323.50756,165.08471 329.00506,165.40376 333.82763,165.93139 C332.758885,164.506019 332.916598,162.508337 334.19577,161.26833 C335.506031,160.104891 337.306504,159.663973 339.00609,160.09033 C340.46004,160.391372 341.770004,161.173891 342.72427,162.31142 C344.09864,163.98031 344.49127,166.25048 345.5221,168.14025 C346.56516,170.04225 348.89669,171.66209 350.79873,170.64358 C352.45534,169.76005 352.71304,167.47758 352.30809,165.64919 C351.89087,163.83305 351.01961,162.05372 351.16686,160.1885 C351.4491,156.64212 355.14274,154.49465 358.39461,153.03438 C361.64648,151.57411 365.36467,149.59844 365.88006,146.06438 C365.903875,145.377028 366.03641,144.697786 366.27274,144.0519 C366.632607,143.475328 367.135707,143.001819 367.73301,142.67752 C377.21866,136.40693 386.87611,130.05043 397.72387,126.62676 C398.28835,126.4427 398.3497,126.63904 398.92645,126.50405 C399.73635,126.03775 399.19645,124.74927 398.42333,124.23388 C397.65021,123.71849 396.61946,123.31354 396.42312,122.40546 C396.28812,121.74282 396.68082,121.08017 396.77899,120.40526 C396.83108,119.577482 396.468792,118.777854 395.81211,118.2712 C395.155429,117.764546 394.290048,117.616982 393.50257,117.87738 C392.63131,116.72389 394.34929,115.38633 395.7482,114.99365 C399.936765,113.846239 404.235352,113.146947 408.57163,112.90754 C409.072136,112.824875 409.585918,112.911227 410.0319,113.15297 C410.693928,113.791779 410.742382,114.836221 410.14234,115.53358 C409.551949,116.189297 408.898423,116.785283 408.19122,117.31291 C406.756089,118.706801 406.216698,120.783929 406.7923,122.69997 C409.06248,123.85347 411.51672,125.04378 414.0323,124.63883 C416.53563,124.23388 418.75672,121.4115 417.57868,119.16583 C416.48655,117.06745 413.18559,116.58888 412.62111,114.29416 C411.95847,111.60676 415.76254,109.21387 414.90356,106.58783 C414.53542,105.43434 413.38193,104.74715 412.4984,103.92498 C410.370533,101.82995 409.742445,98.645715 410.9154,95.8996 C408.000506,96.408895 405.019356,95.4761413 402.91457,93.39627 C401.00026,91.46969 399.47863,88.41416 396.75441,88.51233 C394.26336,88.58595 392.11589,91.49423 389.78436,90.61071 C389.20761,90.38982 388.60636,89.94806 388.05412,90.20576 C387.685047,90.4430218 387.445303,90.8365645 387.40375,91.27335 C386.81475,94.108 387.83324,97.33535 386.28706,99.78958 C384.60591,102.45243 380.71593,102.82058 378.67891,105.22573 C377.5745,106.52648 377.14501,108.28126 376.12649,109.65564 C375.10797,111.03002 372.96049,111.91354 371.7334,110.71096 C372.971054,108.173757 372.288554,105.117798 370.08905,103.34823 C368.958812,102.606365 367.738094,102.01252 366.45677,101.58123 C365.025439,100.977156 363.663605,100.220122 362.395,99.32332 C361.762779,98.938227 361.249004,98.3862383 360.91018,97.72806 C360.6421,96.9004561 360.676895,96.0045109 361.00835,95.20019 C362.274474,91.5884983 365.433393,88.972596 369.2178,88.40194 C370.8376,88.18105 372.72737,88.25468 373.80723,87.01529 C374.37171,86.36491 374.66623,85.37094 375.50066,85.11329 C376.026337,85.0035164 376.573472,85.0681391 377.05911,85.29736 C379.08386,86.00909 381.09634,86.72082 383.12111,87.43255 C383.796238,87.742189 384.54206,87.8650785 385.28084,87.78841 C386.040725,87.6904111 386.593877,87.0191139 386.54478,86.25451 C386.34844,85.24827 384.80227,84.76969 384.94952,83.75118 C385.021055,83.4184126 385.197391,83.1173452 385.45264,82.89218 C389.884017,78.1787383 396.188589,75.6902072 402.64464,76.10618 C403.40546,77.37012 402.20288,78.85494 401.18436,79.92253 C400.17812,81.0024 399.36822,82.91671 400.59536,83.73888 C401.090367,83.998501 401.644231,84.1253413 402.20289,84.10702 C403.695081,84.3072026 405.145291,84.74641 406.49781,85.40777 C408.59619,86.31584 410.65776,87.32208 412.67024,88.40195 C412.37398,87.0862867 412.424722,85.7162146 412.81749,84.42607 C413.276929,83.1139218 414.657652,82.3651464 416.00801,82.69583 C417.21059,83.16214 417.82415,84.75739 419.11263,84.90465 C420.81833,85.10099 421.49324,82.57312 420.78151,81.0024 C420.06978,79.43168 418.64632,78.13094 418.53588,76.40069 C418.44998,75.2472 418.89174,73.81147 417.9714,73.11201 C417.644214,72.8952231 417.269581,72.7605232 416.87926,72.71933 C409.17294,71.3081367 401.462527,69.8928567 393.74802,68.47349 C392.37364,68.21579 390.39797,68.41213 390.33662,69.79878 C390.2998,70.58414 390.99926,71.35722 390.69248,72.06895 C390.36116,72.82977 389.28129,72.76841 388.49593,73.03838 C387.28358,73.5883564 386.582546,74.8752311 386.77793,76.19208 C386.987713,77.4680705 387.482667,78.6802914 388.22593,79.73846 C386.71657,79.11263 384.44639,79.00219 382.93703,78.36409 C382.717461,76.61638 382.271976,74.9045607 381.61174,73.27153 C381.535322,72.7454253 381.229935,72.2801354 380.777659,72.0007197 C380.325384,71.7213041 379.772621,71.6564285 379.26794,71.82353 C377.28,72.13031 375.29206,72.42482 373.30412,72.7316 C372.804916,72.7552946 372.326908,72.9404688 371.94202,73.25926 C371.16893,74.08143 371.92975,75.39445 371.90521,76.52341 C371.75785,77.8173268 370.80743,78.8760829 369.53686,79.16172 C368.287951,79.4153148 366.999221,79.3985763 365.75732,79.11263 C362.97176,78.68314 360.19846,78.25363 357.41289,77.82415 C359.871678,77.0406532 362.058451,75.577136 363.7203,73.60286 C364.82471,72.30211 365.41373,69.8724 363.81847,69.25886 C363.34736,69.1294811 362.855752,69.0919858 362.37047,69.14842 C358.59093,69.17296 355.60903,66.01926 352.07491,64.6817 C350.963662,64.2671458 349.788191,64.0511592 348.60216,64.0436 L344.65085,68.89063 Z" id="Path" fill="#3F3D56"></path>
            <path d="M666.62313,189.5658 C665.744403,190.745425 664.33755,191.412071 662.86813,191.34513 C659.02724,191.0138 657.40744,185.47948 653.60336,184.85365 C653.266805,184.767467 652.910671,184.802211 652.59712,184.95182 C652.03264,185.2586 651.93447,186.01942 651.89766,186.65752 C651.73813,189.82352 651.60315,193.11218 652.84254,196.03273 C654.64641,200.30312 659.32175,203.88631 658.34005,208.41439 C653.06343,205.97239 650.31467,200.04539 649.07528,194.36385 C647.82361,188.68227 647.62728,182.71846 645.39391,177.34366 C643.68821,179.51566 640.12956,177.72407 638.58339,175.44166 C637.11084,173.28192 636.20277,170.77859 634.77931,168.58204 C633.35585,166.39777 631.17157,164.43437 628.57007,164.31166 C625.83359,164.18895 623.45297,166.06644 621.36687,167.84577 C619.55211,169.186269 618.028344,170.881198 616.88787,172.82789 C615.4276,175.77298 615.808,179.23346 615.73438,182.50989 C615.66075,186.044 614.9122,189.78672 612.49477,192.38822 C610.07734,194.97745 605.62289,195.88552 602.96004,193.54171 C601.672534,192.199493 600.755058,190.546365 600.29718,188.74371 C597.402224,180.306916 594.993115,171.711159 593.0817,162.99871 C592.63994,164.98665 590.88516,167.55133 589.21627,166.38557 C588.843147,166.068214 588.541946,165.674979 588.33274,165.23207 C585.21585,159.96772 579.46065,156.80174 573.63182,154.8997 C567.81526,153.00994 561.69193,152.12641 555.93672,150.0403 C552.70924,148.868308 549.625673,147.332701 546.74558,145.46314 C545.255344,147.658426 545.085826,150.493171 546.30382,152.85041 C547.633787,155.178424 550.362777,156.321378 552.95482,155.63598 C554.23102,155.21876 555.31089,154.33523 556.57482,153.89346 C557.83875,153.46397 559.54445,153.67258 560.09666,154.8997 C560.63659,156.06547 559.82666,157.4767 560.23166,158.70378 C560.83295,160.55678 563.64306,160.70399 564.62476,162.39742 C565.216996,163.773902 564.843924,165.375624 563.70442,166.34875 C562.575065,167.269508 561.328972,168.03697 559.99851,168.6312 C555.87538,170.92592 552.94256,174.84044 549.33482,177.8837 C545.72708,180.93923 540.63452,183.16032 536.3396,181.2092 C537.35811,176.01847 531.18568,172.21439 530.04446,167.0482 C529.66405,165.3425 529.86039,163.53863 529.33273,161.88202 C528.55964,159.47686 526.42445,157.83252 524.68194,156.01637 C520.405177,151.512133 518.126628,145.472877 518.36226,139.26616 C518.46043,137.13097 518.85311,134.95896 518.36226,132.87286 C517.88368,130.79902 516.15344,128.78654 514.01826,128.87244 C509.14658,129.09332 502.9987,129.46144 500.44626,125.30151 C499.52592,123.8167 499.13326,121.64469 500.45853,120.50351 C501.39114,119.70588 502.76553,119.77951 503.98037,119.90222 C507.64946,120.25808 511.30629,120.62622 514.97537,120.98208 C517.54006,121.22751 520.31337,121.43608 522.52217,120.09856 C524.73097,118.76104 525.68817,115.19007 523.63885,113.60708 C522.15404,112.45359 519.47891,112.51494 519.03715,110.68653 C518.68128,109.15263 520.37471,107.42239 519.45437,106.13391 C518.80399,105.22584 517.33145,105.47126 516.43565,106.15845 C515.653945,106.970022 514.804122,107.713105 513.89551,108.37954 C512.14072,109.28761 510.05461,108.41635 508.16485,107.82734 C506.27509,107.23833 503.74721,107.18923 502.83914,108.94402 C501.80835,110.89514 503.73494,113.4721 502.7287,115.43549 C501.37886,118.02472 496.83851,116.55217 494.9487,118.78554 C492.78897,121.33795 496.42125,125.16654 495.69725,128.43071 C493.800983,129.371199 491.549883,129.245362 489.77025,128.09939 C488.020745,126.909397 487.068089,124.853173 487.29146,122.74914 C487.46326,121.27659 488.23635,119.76723 487.72095,118.38058 C487.165193,117.309714 486.247777,116.470561 485.13173,116.01224 C481.573063,114.036573 478.014397,112.069087 474.45573,110.10978 C473.46173,111.95047 474.71342,114.22064 476.28414,115.60729 C477.84258,116.98167 479.80598,118.02472 480.83676,119.84086 C482.19157,122.453686 481.277329,125.669658 478.75065,127.17905 C478.438809,127.393529 478.04872,127.460787 477.68306,127.36312 C477.339391,127.161414 477.091629,126.829592 476.99587,126.44278 C475.11837,121.62019 472.28372,116.87122 467.76787,114.35562 C463.23979,111.82775 456.74832,112.35542 453.77868,116.58899 C453.07922,117.59523 452.60068,118.74872 451.98708,119.81632 C448.73521,125.47332 441.74062,128.14848 435.21233,127.97668 C434.573784,128.017606 433.937454,127.868134 433.38391,127.54719 C432.32859,126.82319 432.37767,125.27701 432.5372,124.0008 C432.77035,122.19693 432.9912,120.40534 433.22439,118.60147 C433.230048,117.500064 433.655776,116.442325 434.4147,115.6441 C435.62955,114.68695 437.37206,115.28824 438.91823,115.2637 C441.30914,115.157141 443.376001,113.561584 444.08442,111.27555 C444.718321,108.980884 444.028474,106.523913 442.29282,104.89455 C441.59336,104.23191 440.64848,103.39747 441.01661,102.50167 C441.319434,102.002241 441.82651,101.661197 442.40326,101.56905 C445.16426,100.77142 448.09711,100.56281 450.80905,99.60566 C453.53326,98.66078 456.17157,96.72192 456.82194,93.91181 C457.01828,93.05281 457.10418,92.00981 457.87727,91.58028 C458.267718,91.4236433 458.683731,91.3404421 459.10439,91.33486 C462.162441,90.8965589 464.381553,88.1985016 464.22149,85.11335 C465.52224,84.20528 467.35065,84.8802 468.61459,85.84962 C469.86625,86.81905 470.98293,88.09526 472.51683,88.51248 C475.37603,89.29783 478.13705,86.75769 481.10669,86.74542 C482.35835,86.74542 483.64683,87.18719 484.8126,86.75769 C486.0029,86.3282 486.7146,85.15016 487.6227,84.27891 C488.54305,83.39538 490.1383,82.86772 490.98502,83.8126 C490.73959,82.03327 490.50644,80.26622 490.26102,78.49916 C493.185969,79.2357709 496.28655,78.6720332 498.76502,76.95299 C495.67267,75.90993 492.5926,74.86688 489.50025,73.82383 C489.175385,73.743749 488.875814,73.5834145 488.62899,73.35752 C487.95408,72.63352 488.62899,71.50457 489.16893,70.68239 C490.48193,68.70673 490.70283,65.45486 488.5431,64.47316 C487.07055,63.79824 485.38939,64.60816 483.9782,65.3935 C481.7203,66.64516 479.46239,67.9091 477.20449,69.16076 C476.99588,70.44924 478.56659,71.18551 479.53602,72.0445 C480.745232,73.1171477 481.169792,74.823272 480.604321,76.3375404 C480.03885,77.8518087 478.59992,78.8620528 476.98361,78.87957 C477.884321,80.0554161 478.20461,81.5756756 477.85486,83.01497 C476.3455,83.12541 474.82386,83.23585 473.30224,83.34629 C472.791759,83.4480702 472.261766,83.3420708 471.8297,83.05178 C471.33885,82.62229 471.41247,81.86148 471.28976,81.22337 C470.876072,79.6629184 469.554379,78.5112951 467.95199,78.31509 C466.388662,78.1392706 464.805889,78.2854395 463.3012,78.74459 C462.646974,78.9750806 461.93093,78.9576143 461.28872,78.6955 C460.924435,78.4544584 460.648706,78.1011812 460.50336,77.68926 C459.96013,75.9778385 460.351061,74.1069589 461.53414,72.75626 C462.712535,71.4476441 464.010761,70.2521294 465.41185,69.18534 C468.587075,66.4054942 470.920755,62.7923276 472.14875,58.7548 C474.65208,57.69947 477.2413,56.27601 479.7569,55.22069 C481.779241,54.2834535 483.898547,53.5715316 486.07658,53.09777 C488.12642,52.7847242 490.203291,52.6860218 492.27358,52.80326 C495.09596,52.85234 497.93058,52.90143 500.75299,52.96278 C503.272392,52.8569037 505.789598,53.2188832 508.17708,54.03038 C510.49634,54.98754 512.54563,57.06138 512.70516,59.5647 C512.803273,60.1447458 512.594383,60.7342742 512.15295,61.12314 C511.827085,61.3032929 511.457183,61.3883302 511.08536,61.36857 C508.74155,61.4422 507.74758,62.03122 505.40378,62.11711 C506.8886,63.70011 508.55749,65.36899 510.71722,65.65122 C514.5213,66.14207 517.25778,62.20301 519.01256,58.77934 C519.142977,60.5916499 520.694869,61.9692935 522.50986,61.88396 C523.449955,61.7223226 524.347491,61.371658 525.14817,60.85318 C532.695977,56.7282403 541.150674,54.5439356 549.75197,54.49669 C549.577052,53.1477415 550.452127,51.885512 551.77672,51.57614 C553.5315,51.23254 555.10222,52.7419 555.94893,54.31262 C556.78338,55.88333 557.31104,57.69947 558.66087,58.87751 C559.99844,60.05551 562.58766,59.99419 563.11533,58.30076 C563.63072,56.66869 561.92502,55.26976 560.51383,54.30035 C559.09037,53.34319 557.60555,51.56386 558.5627,50.14035 C565.77818,48.53282 573.05501,46.93757 580.45456,46.61851 C581.712183,46.6565964 582.964489,46.4395315 584.13593,45.98041 C585.328553,45.4753081 586.033206,44.2321175 585.85393,42.94941 C582.551635,43.7200917 579.110737,42.4212732 577.14136,39.66072 C584.73725,39.03489 592.689,38.48272 599.99036,40.18838 L606.38367,45.61226 C605.16882,46.8762 603.54901,48.06651 604.43254,49.33044 C605.023123,49.9185562 605.850726,50.203469 606.67818,50.10353 C608.22435,50.12807 609.77052,50.16489 611.30443,50.16489 C643.044624,80.5254679 662.581092,121.449044 666.23043,165.21989 C663.65343,165.12172 661.28513,168.38589 661.61643,171.23279 C662.0091,174.53379 664.38972,177.18433 666.09543,180.03125 C666.377828,180.494006 666.631901,180.973463 666.85625,181.46698 L666.62313,189.5658 Z" id="Path" fill="#3F3D56"></path>
            <circle id="Oval" fill="#2F2E41" cx="428.12594" cy="326.94005" r="30.9995"></circle>
            <path d="M413.32795,342.60125 C413.32795,342.60125 403.23087,364.95908 400.34595,365.68025 C397.46103,366.40142 424.14622,379.38344 424.14622,379.38344 C424.14622,379.38344 429.19476,351.97707 431.35842,350.53463 C433.52208,349.09219 413.32795,342.60125 413.32795,342.60125 Z" id="Path" fill="#FFB9B9"></path>
            <polygon id="Path" fill="#FFB9B9" points="353.467 525.791 334.715 578.44 354.909 586.374 389.528 517.858"></polygon>
            <path d="M419.09772,527.23367 C419.09772,527.23367 456.60118,579.88275 458.76484,580.60397 C460.9285,581.32519 476.07413,568.34323 476.07413,568.34323 C476.07413,568.34323 457.3224,522.90634 451.55263,520.74268 C445.78286,518.57902 419.09772,527.23367 419.09772,527.23367 Z" id="Path" fill="#FFB9B9"></path>
            <path d="M331.83005,569.06441 L302.26005,646.23499 C302.26005,646.23499 304.42371,650.56231 302.26005,651.28353 C300.09639,652.00475 295.04784,663.54428 295.04784,664.26553 C295.04784,664.98678 289.9993,665.70797 289.9993,667.87163 C289.9993,670.03529 285.67198,687.34463 285.67198,687.34463 C285.67198,687.34463 293.6054,704.65392 298.65398,699.60538 C303.70256,694.55684 305.86613,684.45971 305.86613,684.45971 L313.07833,665.70798 C313.07833,665.70798 312.35711,655.61089 317.40565,654.16845 C322.45419,652.72601 325.33908,634.6955 325.33908,634.6955 C325.33908,634.6955 333.2725,626.76208 334.71494,624.59842 C336.15738,622.43476 361.4001,584.21008 359.23644,583.48886 C357.07278,582.76764 331.83005,569.06441 331.83005,569.06441 Z" id="Path" fill="#2F2E41"></path>
            <path d="M454.43752,579.16153 L476.07413,564.73713 C476.07413,564.73713 513.57759,633.25306 513.57759,634.6955 C513.57759,636.13794 512.13515,640.46527 513.57759,641.90771 C515.02003,643.35015 527.28077,666.4292 535.2142,668.59286 C543.14763,670.75652 544.59006,679.41117 538.09908,680.85361 C531.6081,682.29605 522.95345,685.90215 520.78979,680.85361 C519.524705,677.883405 518.079581,674.993152 516.46247,672.19896 C516.46247,672.19896 509.25026,674.36262 508.52904,672.92018 C507.696701,670.795152 506.974521,668.628607 506.36538,666.42918 C506.36538,666.42918 500.59562,656.33209 500.59562,652.72599 C500.59562,649.11989 496.98952,648.39867 496.98952,648.39867 C496.98952,648.39867 489.05609,629.64694 484.00752,626.76206 C478.95895,623.87718 474.63166,609.45277 474.63166,609.45277 L454.43752,579.16153 Z" id="Path" fill="#2F2E41"></path>
            <circle id="Oval" fill="#FFB9B9" cx="428.47358" cy="338.27393" r="20.91539"></circle>
            <path d="M366.44863,465.20871 C366.44863,465.20871 335.49334,547.44256 339.82063,547.44256 C344.14792,547.44256 463.86391,550.04746 467.47001,544.2777 C471.07611,538.50794 436.40701,481.07556 434.96454,480.35434 C433.52207,479.63312 366.44863,465.20871 366.44863,465.20871 Z" id="Path" fill="#2F2E41"></path>
            <path d="M335.43613,293.55827 L313.79952,260.38213 C313.79952,260.38213 319.15009,225.58003 311.93789,232.07101 C304.72569,238.56199 302.44331,264.77457 302.44331,264.77457 L327.50271,302.93413 L335.43613,293.55827 Z" id="Path" fill="#FFB9B9"></path>
            <path d="M531.60813,354.14078 L551.08108,352.69834 C551.08108,352.69834 574.16013,328.17684 575.60257,336.11027 C577.04501,344.0437 556.85084,361.35298 556.85084,361.35298 L530.16569,364.23786 L531.60813,354.14078 Z" id="Path" fill="#FFB9B9"></path>
            <path d="M389.52768,361.35298 L389.52768,354.14078 C389.52768,354.14078 370.77595,341.88003 371.49713,339.71641 C372.21831,337.55279 370.05469,336.11031 370.05469,336.11031 C370.05469,336.11031 367.89103,333.22543 367.89103,332.50421 C367.89103,331.78299 365.00615,331.06177 365.00615,331.06177 L346.97564,310.14637 C346.97564,310.14637 336.87855,289.9522 334.71489,290.67337 C332.55123,291.39454 321.01171,295.72192 322.45415,298.6068 C323.89659,301.49168 364.28493,363.51663 364.28493,363.51663 C364.28493,363.51663 366.44859,377.21982 370.05469,377.21982 C373.66079,377.21982 389.52768,361.35298 389.52768,361.35298 Z" id="Path" fill="#3F3D56"></path>
            <path d="M437.84945,370.00763 C437.84945,370.00763 453.7163,369.2864 454.43752,370.00763 C455.15874,370.72886 465.25582,370.00763 465.25582,370.00763 C465.25582,370.00763 492.6622,363.51663 494.82582,361.35298 C496.98944,359.18933 533.0505,349.81345 534.49294,354.14078 C535.93538,358.46811 539.54148,367.12278 535.93538,368.56518 C532.32928,370.00758 434.96453,394.52912 434.96453,394.52912 L437.84945,370.00763 Z" id="Path" fill="#3F3D56"></path>
            <circle id="Oval" fill="#2F2E41" cx="417.28187" cy="294.31332" r="12.82738"></circle>
            <path d="M400.1787,287.36516 C400.179107,280.798162 405.138691,275.291829 411.6699,274.60716 C411.225993,274.561072 410.780003,274.53781 410.33371,274.53781 C403.249344,274.53781 397.50633,280.280824 397.50633,287.36519 C397.50633,294.449556 403.249344,300.19257 410.33371,300.19257 C410.780003,300.19257 411.225994,300.169307 411.6699,300.12321 C405.138669,299.438543 400.179077,293.932179 400.1787,287.36516 L400.1787,287.36516 Z" id="Path" fill="#2F2E41"></path>
            <ellipse id="Oval" fill="#2F2E41" cx="431.73205" cy="320.36734" rx="21.37897" ry="12.82738"></ellipse>
            <path d="M407.19758,353.78017 C407.19758,353.78017 400.70658,358.82871 399.26416,359.54993 C397.82174,360.27115 389.16707,353.05893 387.72463,353.05893 C386.28219,353.05893 367.53046,374.69554 367.53046,374.69554 C367.53046,374.69554 371.01531,378.70954 367.53046,399.21703 C366.22354,406.90797 363.63063,439.78933 363.63063,444.11665 C363.63063,448.44397 349.49995,459.07832 362.48192,468.45419 C375.46389,477.83006 437.48884,487.92714 438.21006,482.15737 C438.93128,476.3876 430.99785,461.24198 434.60396,454.02978 C438.21007,446.81758 438.21006,420.13242 438.21006,420.13242 L442.53738,392.00483 L446.14348,369.647 C446.14348,369.647 429.1948,364.95906 427.75236,364.95906 C426.30992,364.95906 419.81894,375.05617 407.19758,353.78017 Z" id="Path" fill="#3F3D56"></path>
            <rect id="Rectangle" fill="#3F3D56" x="0" y="711.2681" width="664" height="2.24072"></rect>
        </g>
    </g>
</svg>