<?xml version="1.0" encoding="UTF-8"?>
<svg width="1500px" height="926px" viewBox="0 0 1500 926" version="1.1" xmlns="http://www.w3.org/2000/svg" xmlns:xlink="http://www.w3.org/1999/xlink">
    <title>operator-manager-and-leader</title>
    <g id="operator-manager-and-leader" stroke="none" stroke-width="1" fill="none" fill-rule="evenodd">
        <g id="cover" transform="translate(305.000000, 173.000000)" fill-rule="nonzero">
            <path d="M683.65582,548.52762 L730.11359,479.44025 L683.75084,555.96009 L683.84779,563.73415 C680.456183,563.76001 677.097517,563.703533 673.77179,563.56472 L676.07599,463.63426 L676.01286,462.86333 L676.09786,462.71433 L676.3184,453.2715 L625.44166,379.4044 L676.25837,446.20409 L676.43871,448.20001 L678.17912,372.69864 L634.23532,296.11538 L678.30427,359.43522 L677.84427,203.01585 L677.84527,202.49523 L677.86027,203.00723 L680.7774,326.28683 L720.82692,276.21062 L680.90851,336.90708 L681.78262,404.4413 L718.63641,338.53046 L681.91806,414.36999 L682.40464,451.92242 L736,360.10942 L682.56757,465.02283 L683.65582,548.52762 Z" id="Path" fill="#E6E6E6"></path>
            <path d="M840.0055,550.70375 L886.46327,481.61639 L840.10051,558.13622 L840.19746,565.91028 C836.80586,565.93614 833.447193,565.879663 830.12146,565.74085 L832.42566,465.81039 L832.36253,465.03946 L832.44753,464.89046 L832.66807,455.44764 L781.79133,381.58053 L832.60804,448.38022 L832.78837,450.37614 L834.52882,374.87483 L790.58503,298.29157 L834.65397,361.61141 L834.19397,205.19204 L834.19497,204.67142 L834.20992,205.18342 L837.12701,328.46294 L877.17653,278.38673 L837.25813,339.08319 L838.13223,406.61741 L874.98602,340.70657 L838.26768,416.5461 L838.75426,454.09853 L892.34962,362.28553 L838.91721,467.19897 L840.0055,550.70375 Z" id="Path" fill="#E6E6E6"></path>
            <rect id="Rectangle" fill="#E6E6E6" x="92" y="0" width="278.00787" height="376.03942"></rect>
            <rect id="Rectangle" fill="#FFFFFF" x="101.79647" y="13.25091" width="258.41494" height="349.5376"></rect>
            <path d="M326.24487,74.558835 L136.59119,74.558835 C133.392416,74.5546288 130.801524,71.9603313 130.801524,68.761555 C130.801524,65.5627787 133.392416,62.9684812 136.59119,62.964275 L326.24487,62.964275 C328.31785,62.9615574 330.234529,64.065916 331.271806,65.8607173 C332.309083,67.6555187 332.309083,69.8675913 331.271806,71.6623927 C330.234529,73.457194 328.31785,74.5615526 326.24487,74.558835 L326.24487,74.558835 Z" id="Path" fill="#E6E6E6"></path>
            <path d="M326.24487,134.187885 L136.59119,134.187885 C133.392416,134.183679 130.801524,131.589381 130.801524,128.390605 C130.801524,125.191829 133.392416,122.597531 136.59119,122.593325 L326.24487,122.593325 C328.31785,122.590607 330.234529,123.694966 331.271806,125.489767 C332.309083,127.284569 332.309083,129.496641 331.271806,131.291443 C330.234529,133.086244 328.31785,134.190603 326.24487,134.187885 Z" id="Path" fill="#E6E6E6"></path>
            <path d="M326.24487,193.816995 L136.59119,193.816995 C133.392416,193.812789 130.801524,191.218491 130.801524,188.019715 C130.801524,184.820939 133.392416,182.226641 136.59119,182.222435 L326.24487,182.222435 C328.31785,182.219717 330.234529,183.324076 331.271806,185.118877 C332.309083,186.913679 332.309083,189.125751 331.271806,190.920553 C330.234529,192.715354 328.31785,193.819713 326.24487,193.816995 Z" id="Path" fill="#E6E6E6"></path>
            <path d="M326.24487,253.446095 L136.59119,253.446095 C133.392416,253.441889 130.801524,250.847591 130.801524,247.648815 C130.801524,244.450039 133.392416,241.855741 136.59119,241.851535 L326.24487,241.851535 C328.31785,241.848817 330.234529,242.953176 331.271806,244.747977 C332.309083,246.542779 332.309083,248.754851 331.271806,250.549653 C330.234529,252.344454 328.31785,253.448813 326.24487,253.446095 Z" id="Path" fill="#E6E6E6"></path>
            <path d="M326.24487,313.075205 L136.59119,313.075205 C133.392416,313.070999 130.801524,310.476701 130.801524,307.277925 C130.801524,304.079149 133.392416,301.484851 136.59119,301.480645 L326.24487,301.480645 C328.31785,301.477927 330.234529,302.582286 331.271806,304.377087 C332.309083,306.171889 332.309083,308.383961 331.271806,310.178763 C330.234529,311.973564 328.31785,313.077923 326.24487,313.075205 L326.24487,313.075205 Z" id="Path" fill="#E6E6E6"></path>
            <path d="M293.11759,74.558835 L135.76301,74.558835 C133.69003,74.5615526 131.773351,73.457194 130.736074,71.6623927 C129.698797,69.8675913 129.698797,67.6555187 130.736074,65.8607173 C131.773351,64.065916 133.69003,62.9615574 135.76301,62.964275 L293.11759,62.964275 C296.316364,62.9684812 298.907256,65.5627787 298.907256,68.761555 C298.907256,71.9603313 296.316364,74.5546288 293.11759,74.558835 L293.11759,74.558835 Z" id="Path" fill="#00B0FF"></path>
            <path d="M244.25482,134.187885 L135.76301,134.187885 C132.561263,134.187885 129.965735,131.592352 129.965735,128.390605 C129.965735,125.188858 132.561263,122.593325 135.76301,122.593325 L244.25482,122.593325 C246.3278,122.590607 248.244479,123.694966 249.281756,125.489767 C250.319033,127.284569 250.319033,129.496641 249.281756,131.291443 C248.244479,133.086244 246.3278,134.190603 244.25482,134.187885 L244.25482,134.187885 Z" id="Path" fill="#00B0FF"></path>
            <path d="M184.62575,193.816995 L135.76301,193.816995 C133.69003,193.819713 131.773351,192.715354 130.736074,190.920553 C129.698797,189.125751 129.698797,186.913679 130.736074,185.118877 C131.773351,183.324076 133.69003,182.219717 135.76301,182.222435 L184.62575,182.222435 C187.824524,182.226641 190.415416,184.820939 190.415416,188.019715 C190.415416,191.218491 187.824524,193.812789 184.62575,193.816995 L184.62575,193.816995 Z" id="Path" fill="#00B0FF"></path>
            <path d="M308.02487,253.44609 L135.76301,253.44609 C132.561263,253.44609 129.965735,250.850562 129.965735,247.648815 C129.965735,244.447068 132.561263,241.85154 135.76301,241.85154 L308.02487,241.85154 C311.226617,241.85154 313.822145,244.447068 313.822145,247.648815 C313.822145,250.850562 311.226617,253.44609 308.02487,253.44609 Z" id="Path" fill="#00B0FF"></path>
            <path d="M269.92849,313.075205 L135.76301,313.075205 C133.69003,313.077923 131.773351,311.973564 130.736074,310.178763 C129.698797,308.383961 129.698797,306.171889 130.736074,304.377087 C131.773351,302.582286 133.69003,301.477927 135.76301,301.480645 L269.92849,301.480645 C272.00147,301.477927 273.918149,302.582286 274.955426,304.377087 C275.992703,306.171889 275.992703,308.383961 274.955426,310.178763 C273.918149,311.973564 272.00147,313.077923 269.92849,313.075205 L269.92849,313.075205 Z" id="Path" fill="#00B0FF"></path>
            <rect id="Rectangle" fill="#3F3D56" x="0" y="563.74025" width="888" height="2"></rect>
            <path d="M505.98787,270.90741 C505.98787,270.90741 499.70239,224.81391 489.2266,237.38487 C478.75081,249.95583 489.2266,268.81225 489.2266,268.81225 L497.60723,279.28804 L505.98787,273.00257 L505.98787,270.90741 Z" id="Path" fill="#9F616A"></path>
            <path d="M531.12982,285.57352 C531.12982,285.57352 510.17824,262.52677 505.98792,266.71709 C501.7976,270.90741 489.22665,273.00257 491.32181,281.3832 C493.41697,289.76383 537.4153,317.0009 537.4153,317.0009 L531.12982,285.57352 Z" id="Path" fill="#00B0FF"></path>
            <path d="M531.12982,285.57352 C531.12982,285.57352 510.17824,262.52677 505.98792,266.71709 C501.7976,270.90741 489.22665,273.00257 491.32181,281.3832 C493.41697,289.76383 537.4153,317.0009 537.4153,317.0009 L531.12982,285.57352 Z" id="Path" fill="#000000" opacity="0.1"></path>
            <path d="M650.55382,283.47836 L650.55382,300.23963 C650.55382,300.23963 652.64898,337.95249 640.07803,335.85733 C627.50708,333.76217 633.79255,302.33483 633.79255,302.33483 L635.88771,283.47836 L650.55382,283.47836 Z" id="Path" fill="#9F616A"></path>
            <path d="M644.26835,404.99757 C644.26835,404.99757 663.12482,434.32983 669.41025,436.42495 C675.69568,438.52007 709.21825,457.37654 713.40859,476.23295 L742.74082,513.94583 L728.07471,532.80226 C728.07471,532.80226 661.02963,461.56686 642.1732,455.28138 C623.31677,448.9959 604.46034,417.56852 604.46034,417.56852 L644.26835,404.99757 Z" id="Path" fill="#9F616A"></path>
            <path d="M495.51207,356.80892 C495.51207,356.80892 455.70407,363.09439 461.98953,388.2363 C468.27499,413.37821 529.03461,465.75718 529.03461,465.75718 L531.12982,478.32813 L554.17657,482.51845 L564.65236,472.04265 L562.55721,465.75718 C562.55721,465.75718 537.41525,442.71043 535.32009,434.32983 C533.22493,425.94923 510.17819,392.42666 499.70239,390.3315 L514.3685,381.95086 L495.51207,356.80892 Z" id="Path" fill="#9F616A"></path>
            <path d="M736.45534,513.94583 C736.45534,513.94583 728.0747,501.37488 740.64565,503.47003 C753.2166,505.56518 761.59724,507.66035 761.59724,516.04103 C761.59724,524.42171 751.12145,583.08611 738.55049,578.89579 C725.97953,574.70547 736.45534,555.84904 736.45534,555.84904 C736.45534,555.84904 730.16986,539.08777 725.97954,536.99261 C721.78922,534.89745 721.78922,524.42166 725.97954,524.42166 C730.16986,524.42166 738.55049,518.13615 736.45534,513.94583 Z" id="Path" fill="#2F2E41"></path>
            <path d="M558.36682,467.85233 C558.36682,467.85233 558.36682,457.37654 566.74745,467.85233 C575.12808,478.32812 579.31845,486.70876 570.93777,492.99424 C562.55709,499.27972 533.22493,513.94583 533.22493,513.94583 C533.22493,513.94583 501.79755,520.2313 505.98787,505.56519 C505.98787,505.56519 526.93946,495.0894 526.93946,486.70876 C526.93946,478.32812 526.93946,463.66202 533.22493,467.85233 C539.5104,472.04264 558.36682,474.13783 558.36682,467.85233 Z" id="Path" fill="#2F2E41"></path>
            <path d="M598.17482,310.71542 C598.17482,310.71542 627.50705,314.90574 625.41189,356.80892 C625.41189,356.80892 663.12475,394.52178 652.64895,407.09273 C642.17315,419.66368 619.12641,442.71043 610.74578,436.42495 C602.36515,430.13947 577.22327,381.95083 577.22327,381.95083 C577.22327,381.95083 518.55882,402.90242 508.08303,392.42663 C497.60724,381.95084 487.13144,356.80893 487.13144,356.80893 L539.51044,329.57186 L598.17482,310.71542 Z" id="Path" fill="#2F2E41"></path>
            <circle id="Oval" fill="#9F616A" cx="516.46366" cy="166.14947" r="25.14191"></circle>
            <path d="M535.32009,168.24463 C535.32009,168.24463 549.9862,191.29137 554.17652,193.38653 C558.36684,195.48169 524.8443,216.43328 524.8443,216.43328 C524.8443,216.43328 524.8443,189.19621 514.3685,182.91074 L535.32009,168.24463 Z" id="Path" fill="#9F616A"></path>
            <path d="M537.41525,191.29137 C537.41525,191.29137 570.93779,180.81558 577.22325,197.57685 C583.50871,214.33812 598.17482,245.7655 596.0797,266.71709 C593.98458,287.66868 589.79422,283.47836 596.0797,289.76384 C602.36518,296.04932 606.55549,291.859 604.46033,300.23963 C602.36517,308.62026 600.27001,308.62027 602.36517,312.81058 C604.46033,317.00089 577.22327,331.66701 554.17652,333.76217 L531.12982,335.85733 C531.12982,335.85733 531.12982,298.14447 526.93951,289.76384 C522.7492,281.38321 514.36851,264.62193 514.36851,258.33645 L514.36851,241.70561 C514.36851,230.63632 517.257231,219.758653 522.74914,210.14782 L522.74914,210.14782 C522.74914,210.14782 535.32009,191.29137 537.41525,191.29137 Z" id="Path" fill="#00B0FF"></path>
            <path d="M562.55716,199.67201 C562.55716,199.67201 640.07803,205.95748 648.45867,226.90907 C656.83931,247.86066 661.02962,289.76383 652.64898,289.76383 C644.26834,289.76383 633.79255,293.95414 631.6974,289.76383 C629.60225,285.57352 621.2216,243.67033 619.1264,243.67033 C617.0312,243.67033 554.17652,237.38483 554.17652,237.38483 C554.17652,237.38483 526.93946,203.86233 562.55716,199.67201 Z" id="Path" fill="#00B0FF"></path>
            <path d="M515.45348,159.91646 C515.45348,159.91646 508.78154,148.32185 500.44174,158.39282 C492.10194,168.46379 478.53474,149.9566 480.61748,146.00756 C482.70022,142.05852 490.05518,146.18513 502.65961,142.06473 C515.26404,137.94433 539.54423,129.55027 543.61061,156.93201 C547.67699,184.31375 537.99235,181.44318 537.99235,181.44318 C537.99235,181.44318 533.5532,157.18 529.54109,164.14943 L525.52898,171.11886 L522.04879,171.9754 L515.45348,159.91646 Z" id="Path" fill="#2F2E41"></path>
        </g>
    </g>
</svg>